<svg width="630" height="606" viewBox="0 0 630 606" fill="none" xmlns="http://www.w3.org/2000/svg">
<path d="M460.722 488.368C459.712 485.481 457.805 482.993 455.281 481.267C452.756 479.541 449.746 478.667 446.689 478.772C406.729 482.443 396.765 450.294 394.112 434.272C391.842 420.549 389.203 378.643 389.203 378.643C389.203 325.579 349.479 282.538 296.341 282.538C243.203 282.538 203.744 325.579 203.478 378.643C203.478 389.978 203.301 400.753 202.55 423.969C202.24 433.8 155.381 430.587 146.95 396.758C145.913 393.505 143.749 390.729 140.847 388.929C137.946 387.128 134.497 386.422 131.122 386.938C127.746 387.453 124.665 389.155 122.433 391.739C120.201 394.323 118.963 397.619 118.944 401.033C118.948 402.63 119.222 404.215 119.755 405.72C133.699 452.756 192.29 456.913 196.712 471.535C204.083 495.959 200.353 548.183 200.353 548.183V550.291H200.442C200.958 556.296 203.708 561.889 208.149 565.964C212.589 570.039 218.397 572.3 224.424 572.3C230.451 572.3 236.259 570.039 240.699 565.964C245.14 561.889 247.89 556.296 248.406 550.291H248.583C249.078 556.309 251.819 561.921 256.26 566.012C260.702 570.103 266.519 572.374 272.558 572.374C278.596 572.374 284.414 570.103 288.855 566.012C293.296 561.921 296.037 556.309 296.532 550.291H296.724C297.219 556.309 299.96 561.921 304.401 566.012C308.843 570.103 314.66 572.374 320.699 572.374C326.737 572.374 332.555 570.103 336.996 566.012C341.438 561.921 344.178 556.309 344.673 550.291H344.865C345.378 556.294 348.125 561.887 352.563 565.962C357.002 570.037 362.807 572.298 368.832 572.298C392.579 572.298 392.785 545.56 392.579 544.292L391.429 486.997C405.506 498.907 424.196 508.562 447.323 507.412C449.61 507.408 451.863 506.856 453.892 505.803C455.922 504.749 457.669 503.225 458.989 501.357C460.308 499.489 461.16 497.333 461.475 495.068C461.789 492.802 461.556 490.495 460.796 488.339L460.722 488.368Z" fill="#8CC153"/>
<path d="M123.528 354.739L112.584 356.402L125.525 441.565L136.469 439.902L123.528 354.739Z" fill="#725C41"/>
<path d="M122.267 356.471L114.412 357.666L126.898 439.737L134.752 438.542L122.267 356.471Z" fill="#92785C"/>
<path d="M208.813 342.619C209.609 347.38 206.927 351.787 202.829 352.48L26.4196 382.196C22.3072 382.874 18.3273 379.587 17.5756 374.826L1.1404 277.246C0.34444 272.5 3.01239 268.078 7.12487 267.385L183.446 237.669C187.543 236.991 191.509 240.278 192.29 245.039L208.813 342.619Z" fill="#846C53" stroke="#6F5B45" stroke-width="2" stroke-miterlimit="10"/>
<path d="M25.3148 379.159C23.1038 379.159 21.0697 377.081 20.6127 374.31L4.17756 276.73C3.66165 273.679 5.19462 270.834 7.59725 270.466L184.021 240.75C184.213 240.735 184.405 240.735 184.596 240.75C186.807 240.75 188.841 242.828 189.298 245.599L205.733 343.179C206.249 346.23 204.716 349.075 202.314 349.443L25.8897 379.115C25.6995 379.145 25.5073 379.16 25.3148 379.159Z" fill="#92785C"/>
<path d="M68.2018 324.4L61.8783 285.053L46.8196 287.473L22.5007 340.797L23.2293 345.331L56.0996 340.049L58.3635 354.136L72.6127 351.846L70.3487 337.759L78.121 336.51L75.9741 323.151L68.2018 324.4ZM50.895 307.664L53.9527 326.69L41.8895 328.629L50.7331 307.69L50.895 307.664ZM78.345 316.707C82.3264 341.481 96.7736 349.209 111.104 346.906C125.434 344.603 136.651 332.751 132.67 307.977C128.949 284.822 114.309 275.381 99.979 277.684C85.6489 279.987 74.6237 293.552 78.345 316.707ZM93.7276 314.235C91.5677 300.795 94.7584 292.227 102.126 291.043C109.412 289.872 115.114 296.928 117.287 310.449C119.603 324.86 116.243 332.376 108.957 333.547C101.589 334.731 96.0436 328.646 93.7276 314.235ZM180.947 306.281L174.623 266.934L159.564 269.354L135.245 322.678L135.974 327.212L168.844 321.929L171.108 336.017L185.357 333.727L183.093 319.639L190.866 318.39L188.719 305.032L180.947 306.281ZM163.64 289.545L166.697 308.571L154.634 310.509L163.478 289.571L163.64 289.545Z" fill="white"/>
<path d="M409.455 600.688C409.455 603.12 360.047 605.11 299.111 605.11C238.176 605.11 188.782 603.135 188.782 600.688C188.782 598.241 238.176 596.266 299.111 596.266C360.047 596.266 409.455 598.3 409.455 600.688Z" fill="#1F2E49"/>
<path d="M178.242 596.727C178.242 598.201 154.968 599.439 126.254 599.439C97.5402 599.439 74.2656 598.23 74.2656 596.727C74.2656 595.223 97.5402 594 126.254 594C154.968 594 178.242 595.223 178.242 596.727Z" fill="#1F2E49"/>
<path d="M604.114 121.222C601.591 121.218 599.082 121.591 596.67 122.328C595.276 112.643 590.69 103.7 583.637 96.9168C576.585 90.1338 567.47 85.8989 557.738 84.8833C548.006 83.8678 538.213 86.1298 529.912 91.3107C521.611 96.4916 515.277 104.295 511.914 113.484C508.219 111.677 504.201 110.621 500.095 110.378C495.988 110.135 491.874 110.71 487.991 112.069C484.109 113.427 480.534 115.543 477.475 118.294C474.416 121.044 471.933 124.374 470.17 128.091C466.506 124.71 461.935 122.469 457.017 121.645C452.099 120.821 447.047 121.448 442.48 123.45C437.913 125.452 434.029 128.742 431.302 132.917C428.576 137.093 427.126 141.972 427.129 146.959H629.776C629.788 143.582 629.132 140.236 627.848 137.113C626.563 133.99 624.674 131.152 622.29 128.76C619.906 126.369 617.073 124.472 613.953 123.179C610.834 121.885 607.49 121.22 604.114 121.222Z" fill="#3B5170"/>
<path d="M441.883 61.7608C441.889 51.3942 445.309 41.3181 451.616 33.0904C457.922 24.8628 466.764 18.942 476.773 16.2434C469.794 14.3677 462.477 14.1232 455.388 15.529C448.299 16.9349 441.629 19.9532 435.894 24.3504C430.159 28.7476 425.513 34.4056 422.315 40.8865C419.118 47.3674 417.455 54.4972 417.455 61.7239C417.455 68.9507 419.118 76.0805 422.315 82.5614C425.513 89.0423 430.159 94.7003 435.894 99.0975C441.629 103.495 448.299 106.513 455.388 107.919C462.477 109.325 469.794 109.08 476.773 107.204C466.776 104.509 457.943 98.5994 451.638 90.3867C445.333 82.174 441.905 72.1148 441.883 61.7608Z" fill="#F5DE32"/>
<path d="M240.136 127.104C240.136 126.647 240.136 126.204 240.136 125.748C240.149 122.403 241.073 119.125 242.807 116.265C244.542 113.405 247.022 111.071 249.983 109.514C252.943 107.956 256.271 107.234 259.61 107.424C262.95 107.615 266.174 108.711 268.938 110.595C269.623 102.521 273.118 94.9432 278.814 89.1806C284.51 83.418 292.047 79.8357 300.112 79.0572C308.177 78.2787 316.26 80.3535 322.953 84.9202C329.647 89.487 334.526 96.2565 336.743 104.05C340.264 98.9257 345.527 95.2556 351.552 93.7233C357.578 92.191 363.955 92.9011 369.496 95.7212C375.037 98.5413 379.365 103.279 381.672 109.053C383.979 114.826 384.11 121.241 382.039 127.104H240.136Z" fill="#384D6B"/>
<path d="M158.27 127.222C159.963 127.223 161.646 127.472 163.267 127.959C164.24 121.497 167.332 115.542 172.058 111.029C176.783 106.516 182.874 103.701 189.374 103.026C195.873 102.351 202.412 103.855 207.964 107.301C213.516 110.746 217.766 115.939 220.046 122.063C222.519 120.847 225.209 120.134 227.96 119.964C230.71 119.794 233.467 120.17 236.071 121.072C238.676 121.974 241.075 123.383 243.132 125.218C245.188 127.053 246.86 129.277 248.052 131.761C250.506 129.498 253.566 127.998 256.859 127.446C260.151 126.895 263.533 127.315 266.591 128.655C269.649 129.995 272.249 132.198 274.075 134.993C275.9 137.788 276.871 141.055 276.869 144.394H141.113C141.121 139.844 142.93 135.483 146.146 132.265C149.361 129.047 153.721 127.233 158.27 127.222Z" fill="#3D5473"/>
<path d="M383.498 61.5249L385.297 65.1952L389.335 65.7848L386.417 68.6296L387.11 72.6537L383.498 70.7522L379.887 72.6537L380.58 68.6296L377.646 65.7848L381.685 65.1952L383.498 61.5249Z" fill="#F5DE32"/>
<path d="M251.795 84.6963L253.593 88.3518L257.632 88.9414L254.713 91.7863L255.406 95.8103L251.795 93.9088L248.169 95.8103L248.861 91.7863L245.943 88.9414L249.982 88.3518L251.795 84.6963Z" fill="#F5DE32"/>
<path d="M152.299 103.254L154.097 106.925L158.136 107.5L155.218 110.359L155.91 114.368L152.299 112.482L148.688 114.368L149.366 110.359L146.447 107.5L150.486 106.925L152.299 103.254Z" fill="#F5DE32"/>
<path d="M492.368 40.9185L493.341 42.9084L495.537 43.2326L493.945 44.7656L494.328 46.9471L492.368 45.9301L490.407 46.9471L490.776 44.7656L489.199 43.2326L491.395 42.9084L492.368 40.9185Z" fill="#F5DE32"/>
<path d="M488.609 98.2275L489.935 100.925L492.913 101.367L490.761 103.46L491.262 106.423L488.609 105.023L485.941 106.423L486.457 103.46L484.305 101.367L487.282 100.925L488.609 98.2275Z" fill="#F5DE32"/>
<path d="M312.451 16.3174L313.866 19.1917L317.035 19.6486L314.735 21.8744L315.281 25.0288L312.451 23.54L309.621 25.0288L310.166 21.8744L307.881 19.6486L311.036 19.1917L312.451 16.3174Z" fill="#F5DE32"/>
<path d="M91.4377 84.0923L92.8527 86.9666L96.0071 87.4235L93.7224 89.6493L94.2678 92.8037L91.4377 91.3149L88.6076 92.8037L89.153 89.6493L86.8535 87.4235L90.0226 86.9666L91.4377 84.0923Z" fill="#F5DE32"/>
<path d="M485.293 180.551C485.293 179.873 485.397 179.21 485.397 178.517C485.399 173.464 484.019 168.507 481.405 164.183C478.791 159.859 475.043 156.332 470.568 153.986C466.093 151.64 461.061 150.563 456.018 150.873C450.974 151.183 446.112 152.867 441.958 155.743C440.893 143.644 435.628 132.299 427.076 123.674C418.523 115.049 407.223 109.69 395.132 108.524C383.042 107.358 370.926 110.46 360.883 117.291C350.84 124.123 343.504 134.253 340.148 145.927C334.861 138.226 326.955 132.71 317.903 130.406C308.851 128.102 299.27 129.168 290.945 133.404C282.62 137.64 276.12 144.758 272.654 153.432C269.188 162.106 268.994 171.745 272.108 180.551H485.293Z" fill="#40597A"/>
<path d="M399.579 90.2534C399.579 90.609 399.474 90.9567 399.276 91.2524C399.078 91.5482 398.797 91.7787 398.469 91.9148C398.14 92.0509 397.779 92.0865 397.43 92.0171C397.081 91.9477 396.761 91.7764 396.509 91.525C396.258 91.2735 396.086 90.953 396.017 90.6042C395.948 90.2554 395.983 89.8938 396.119 89.5652C396.255 89.2366 396.486 88.9557 396.782 88.7581C397.077 88.5605 397.425 88.4551 397.781 88.4551C398.017 88.4551 398.251 88.5016 398.469 88.592C398.687 88.6823 398.885 88.8148 399.052 88.9818C399.219 89.1488 399.352 89.347 399.442 89.5652C399.532 89.7834 399.579 90.0172 399.579 90.2534Z" fill="white"/>
<path d="M478.557 78.9917C478.557 79.348 478.451 79.6963 478.252 79.9923C478.054 80.2883 477.772 80.5188 477.443 80.6545C477.114 80.7901 476.751 80.8249 476.402 80.7543C476.053 80.6837 475.732 80.511 475.481 80.258C475.231 80.005 475.06 79.6832 474.993 79.3334C474.925 78.9836 474.963 78.6216 475.101 78.2933C475.239 77.9649 475.472 77.6851 475.77 77.4893C476.068 77.2935 476.417 77.1905 476.773 77.1934C477.247 77.1973 477.701 77.3885 478.035 77.7253C478.369 78.0621 478.557 78.5173 478.557 78.9917Z" fill="white"/>
<path d="M235.906 47.0208C235.909 47.4675 235.78 47.9049 235.534 48.2777C235.287 48.6505 234.936 48.9419 234.524 49.1149C234.113 49.2878 233.659 49.3346 233.22 49.2492C232.782 49.1639 232.379 48.9503 232.062 48.6355C231.745 48.3207 231.529 47.9188 231.44 47.481C231.352 47.0431 231.396 46.5889 231.566 46.176C231.737 45.763 232.026 45.4099 232.397 45.1614C232.768 44.913 233.205 44.7803 233.651 44.7803C233.947 44.7784 234.24 44.8349 234.513 44.9466C234.787 45.0583 235.035 45.2231 235.245 45.4313C235.455 45.6396 235.621 45.8872 235.734 46.16C235.848 46.4328 235.906 46.7253 235.906 47.0208Z" fill="white"/>
<path d="M367.696 38.6781C367.696 39.1242 367.564 39.5602 367.316 39.9311C367.068 40.3019 366.716 40.591 366.304 40.7617C365.892 40.9324 365.438 40.977 365.001 40.89C364.563 40.803 364.161 40.5882 363.846 40.2728C363.531 39.9574 363.316 39.5556 363.229 39.1181C363.142 38.6806 363.187 38.2272 363.357 37.8151C363.528 37.403 363.817 37.0508 364.188 36.803C364.559 36.5552 364.995 36.4229 365.441 36.4229C365.738 36.4209 366.032 36.4779 366.306 36.5906C366.581 36.7032 366.83 36.8693 367.04 37.0791C367.25 37.2889 367.416 37.5383 367.528 37.8128C367.641 38.0873 367.698 38.3814 367.696 38.6781Z" fill="white"/>
<path d="M128.509 92.8036C128.509 93.2497 128.377 93.6857 128.129 94.0566C127.882 94.4274 127.529 94.7165 127.117 94.8872C126.705 95.0579 126.252 95.1025 125.814 95.0155C125.377 94.9285 124.975 94.7137 124.66 94.3983C124.344 94.0829 124.129 93.6811 124.042 93.2436C123.955 92.8061 124 92.3527 124.171 91.9406C124.341 91.5285 124.63 91.1763 125.001 90.9285C125.372 90.6807 125.808 90.5484 126.254 90.5484C126.551 90.5464 126.845 90.6034 127.12 90.7161C127.394 90.8287 127.643 90.9948 127.853 91.2046C128.063 91.4144 128.229 91.6638 128.342 91.9383C128.454 92.2128 128.511 92.5069 128.509 92.8036Z" fill="white"/>
<path d="M391.723 2.38789C391.723 2.86017 391.583 3.32185 391.32 3.71453C391.058 4.10722 390.685 4.41329 390.248 4.59402C389.812 4.77475 389.332 4.82204 388.869 4.7299C388.406 4.63776 387.98 4.41034 387.646 4.07639C387.312 3.74243 387.085 3.31695 386.993 2.85375C386.901 2.39054 386.948 1.91042 387.129 1.47409C387.309 1.03776 387.615 0.664818 388.008 0.402433C388.401 0.140048 388.862 0 389.335 0C389.968 0 390.575 0.251581 391.023 0.699398C391.471 1.14721 391.723 1.75458 391.723 2.38789Z" fill="white"/>
<path d="M552.389 63.7802C552.389 64.0717 552.303 64.3567 552.141 64.5991C551.979 64.8415 551.749 65.0304 551.479 65.142C551.21 65.2535 550.914 65.2827 550.628 65.2258C550.342 65.169 550.079 65.0286 549.873 64.8224C549.667 64.6163 549.527 64.3537 549.47 64.0677C549.413 63.7818 549.442 63.4854 549.554 63.2161C549.665 62.9467 549.854 62.7165 550.096 62.5546C550.339 62.3926 550.624 62.3062 550.915 62.3062C551.306 62.3062 551.681 62.4614 551.958 62.7379C552.234 63.0143 552.389 63.3892 552.389 63.7802Z" fill="white"/>
<path d="M318.523 67.0971C318.523 67.488 318.368 67.8629 318.091 68.1393C317.815 68.4158 317.44 68.5711 317.049 68.5711C316.658 68.5711 316.283 68.4158 316.007 68.1393C315.73 67.8629 315.575 67.488 315.575 67.0971C315.575 66.7061 315.73 66.3312 316.007 66.0548C316.283 65.7783 316.658 65.623 317.049 65.623C317.44 65.623 317.815 65.7783 318.091 66.0548C318.368 66.3312 318.523 66.7061 318.523 67.0971Z" fill="white"/>
<path d="M187.44 80.4808C187.44 80.8718 187.285 81.2467 187.008 81.5231C186.732 81.7996 186.357 81.9549 185.966 81.9549C185.575 81.9549 185.2 81.7996 184.924 81.5231C184.647 81.2467 184.492 80.8718 184.492 80.4808C184.492 80.0899 184.647 79.715 184.924 79.4386C185.2 79.1621 185.575 79.0068 185.966 79.0068C186.357 79.0068 186.732 79.1621 187.008 79.4386C187.285 79.715 187.44 80.0899 187.44 80.4808Z" fill="white"/>
<path d="M576.136 359.024C571.714 355.324 568.132 354.808 566.01 345.419C565.245 340.107 564.753 334.759 564.536 329.396C564.108 316.012 564.035 309.733 564.005 303.188C563.887 272.485 541.025 247.589 510.307 247.589C479.589 247.589 458.466 272.544 456.653 303.188C456.005 314.126 457.228 330.178 453.705 343.96C451.303 353.452 443.033 364.596 436.268 366.777C426.038 370.108 422.633 383.743 436.268 383.183C442.399 382.918 449.195 377.464 454.84 371.538C454.693 387.399 454.693 399.028 454.693 399.028C454.575 399.765 454.693 415.243 468.43 415.243C471.918 415.244 475.278 413.936 477.847 411.577C480.416 409.219 482.005 405.982 482.301 402.507H482.419C482.718 405.977 484.309 409.209 486.875 411.564C489.442 413.918 492.799 415.225 496.282 415.225C499.765 415.225 503.121 413.918 505.688 411.564C508.255 409.209 509.845 405.977 510.145 402.507H510.263C510.542 405.994 512.124 409.249 514.694 411.622C517.265 413.995 520.635 415.313 524.133 415.313C527.632 415.313 531.002 413.995 533.572 411.622C536.143 409.249 537.725 405.994 538.004 402.507H538.107C538.385 405.994 539.968 409.249 542.538 411.622C545.109 413.995 548.479 415.313 551.977 415.313C555.476 415.313 558.846 413.995 561.416 411.622C563.987 409.249 565.569 405.994 565.848 402.507V401.284L565.273 371.686C568.11 374.063 571.143 376.198 574.338 378.068C585.511 384.038 591.333 377.655 589.078 369.814C587.604 364.139 581.855 363.932 576.136 359.024Z" fill="#8CC153"/>
<path d="M520.39 322.248C520.393 324.601 519.697 326.902 518.392 328.86C517.087 330.818 515.23 332.345 513.057 333.248C510.883 334.151 508.491 334.388 506.183 333.931C503.874 333.474 501.753 332.342 500.088 330.679C498.423 329.016 497.289 326.896 496.829 324.589C496.369 322.281 496.603 319.888 497.503 317.714C498.403 315.539 499.928 313.681 501.884 312.373C503.841 311.065 506.141 310.367 508.494 310.367C510.056 310.365 511.602 310.671 513.045 311.267C514.488 311.863 515.8 312.738 516.905 313.842C518.009 314.945 518.886 316.255 519.484 317.698C520.082 319.14 520.39 320.686 520.39 322.248Z" fill="#272525"/>
<path d="M508.523 334.128C510.544 334.134 512.533 333.621 514.298 332.638C516.064 331.654 517.547 330.234 518.605 328.512C517.62 326.675 516.168 325.13 514.396 324.032C512.625 322.933 510.595 322.321 508.511 322.255C506.428 322.189 504.364 322.673 502.526 323.657C500.689 324.642 499.142 326.092 498.043 327.864C499.059 329.758 500.571 331.342 502.417 332.445C504.262 333.548 506.373 334.13 508.523 334.128Z" fill="#B2474D"/>
<path d="M508.493 466.995C537.222 466.995 560.511 466.012 560.511 464.799C560.511 463.586 537.222 462.603 508.493 462.603C479.765 462.603 456.476 463.586 456.476 464.799C456.476 466.012 479.765 466.995 508.493 466.995Z" fill="#1F2E49"/>
<path d="M134.716 398.129C134.716 398.129 127.685 394.341 126.52 398.129C125.356 401.918 128.141 408.934 136.499 408.551C144.857 408.167 134.716 398.129 134.716 398.129Z" fill="#7DB640"/>
<path d="M239.664 327.996C238.573 325.239 235.36 324.783 232.5 326.949C229.641 329.116 228.196 333.096 229.287 335.793C230.378 338.491 233.591 339.007 236.451 336.84C239.31 334.673 240.755 330.738 239.664 327.996Z" fill="#C5F196"/>
<path d="M261.362 317.951C268.822 313.056 273.157 306.479 271.044 303.259C268.932 300.04 261.172 301.398 253.712 306.292C246.252 311.187 241.917 317.765 244.03 320.984C246.142 324.204 253.902 322.846 261.362 317.951Z" fill="#C5F196"/>
<path d="M481.863 277.767C483.062 275.934 482.975 273.755 481.667 272.899C480.359 272.043 478.327 272.834 477.127 274.666C475.928 276.499 476.016 278.678 477.323 279.534C478.631 280.39 480.664 279.599 481.863 277.767Z" fill="#C5F196"/>
<path d="M500.608 259.662C499.37 257.804 494.874 258.615 490.57 261.445C486.266 264.275 483.79 268.078 485.028 269.921C486.266 271.763 490.762 270.982 495.066 268.137C499.37 265.292 501.832 261.504 500.608 259.662Z" fill="#C5F196"/>
<path d="M316.623 422.893C315.86 422.893 315.115 422.66 314.488 422.226C313.861 421.791 313.382 421.175 313.115 420.461C311.984 417.216 309.87 414.405 307.067 412.419C304.264 410.432 300.911 409.368 297.475 409.376C294.043 409.368 290.694 410.432 287.896 412.419C285.097 414.406 282.989 417.218 281.866 420.461C281.696 420.922 281.438 421.346 281.104 421.708C280.771 422.069 280.37 422.362 279.924 422.569C279.478 422.775 278.995 422.892 278.504 422.912C278.013 422.933 277.522 422.856 277.06 422.686C276.599 422.517 276.175 422.258 275.813 421.925C275.452 421.592 275.159 421.191 274.952 420.745C274.746 420.298 274.629 419.816 274.609 419.325C274.588 418.833 274.665 418.343 274.835 417.881C276.474 413.199 279.533 409.146 283.587 406.287C287.641 403.428 292.486 401.905 297.446 401.932C302.412 401.903 307.264 403.423 311.325 406.282C315.386 409.141 318.454 413.196 320.101 417.881C320.45 418.814 320.415 419.846 320.003 420.753C319.591 421.659 318.837 422.365 317.905 422.716C317.491 422.85 317.057 422.91 316.623 422.893Z" fill="#272525"/>
<path d="M253.579 395.491C253.874 395.5 254.169 395.449 254.445 395.343C254.72 395.237 254.972 395.077 255.186 394.872L260.89 389.403C261.308 388.979 261.542 388.407 261.542 387.812C261.542 387.216 261.308 386.644 260.89 386.22C260.682 386.009 260.434 385.842 260.16 385.728C259.887 385.614 259.594 385.556 259.298 385.556C259.002 385.556 258.709 385.614 258.436 385.728C258.162 385.842 257.914 386.009 257.706 386.22L252.016 391.673C251.806 391.882 251.639 392.13 251.525 392.403C251.411 392.676 251.353 392.969 251.353 393.265C251.353 393.561 251.411 393.854 251.525 394.128C251.639 394.401 251.806 394.649 252.016 394.857C252.222 395.061 252.466 395.222 252.734 395.331C253.002 395.44 253.289 395.494 253.579 395.491Z" fill="#FFC6C2"/>
<path d="M242.245 395.874C242.54 395.883 242.834 395.832 243.11 395.726C243.386 395.62 243.638 395.46 243.851 395.255L249.556 389.786C249.77 389.581 249.941 389.336 250.06 389.065C250.179 388.793 250.244 388.501 250.25 388.205C250.256 387.908 250.204 387.614 250.096 387.337C249.988 387.061 249.827 386.809 249.622 386.595C249.417 386.381 249.171 386.21 248.9 386.091C248.629 385.972 248.336 385.907 248.04 385.901C247.744 385.895 247.449 385.947 247.173 386.055C246.897 386.163 246.645 386.324 246.431 386.529L240.741 391.938C240.531 392.147 240.364 392.395 240.25 392.668C240.136 392.941 240.077 393.234 240.077 393.53C240.077 393.826 240.136 394.12 240.25 394.393C240.364 394.666 240.531 394.914 240.741 395.122C240.929 395.341 241.159 395.52 241.417 395.649C241.676 395.778 241.957 395.854 242.245 395.874Z" fill="#FFC6C2"/>
<path d="M230.909 396.257C231.206 396.267 231.501 396.215 231.778 396.106C232.054 395.997 232.305 395.833 232.516 395.624L238.22 390.17C238.434 389.965 238.605 389.719 238.724 389.448C238.843 389.176 238.908 388.884 238.914 388.588C238.92 388.291 238.868 387.997 238.76 387.721C238.653 387.445 238.492 387.192 238.286 386.979C238.081 386.765 237.836 386.593 237.564 386.474C237.293 386.355 237.001 386.291 236.704 386.284C236.408 386.278 236.113 386.331 235.837 386.438C235.561 386.546 235.309 386.707 235.095 386.912L229.405 392.381C228.974 392.794 228.724 393.361 228.711 393.957C228.697 394.554 228.92 395.132 229.332 395.565C229.748 395.991 230.313 396.24 230.909 396.257Z" fill="#FFC6C2"/>
<path d="M256.63 367.131C256.571 369.403 255.841 371.606 254.531 373.462C253.22 375.319 251.389 376.746 249.269 377.562C247.148 378.379 244.833 378.549 242.616 378.051C240.399 377.552 238.379 376.408 236.812 374.763C235.245 373.117 234.2 371.044 233.81 368.806C233.42 366.567 233.703 364.263 234.621 362.185C235.54 360.106 237.054 358.347 238.972 357.128C240.89 355.91 243.127 355.287 245.398 355.339C246.911 355.371 248.403 355.703 249.788 356.314C251.172 356.925 252.423 357.803 253.466 358.899C254.51 359.995 255.327 361.287 255.87 362.699C256.413 364.112 256.671 365.618 256.63 367.131Z" fill="#272525"/>
<path d="M340.561 395.491C340.265 395.5 339.971 395.449 339.695 395.343C339.419 395.237 339.167 395.077 338.954 394.872L333.264 389.403C333.051 389.199 332.881 388.955 332.762 388.685C332.644 388.415 332.579 388.124 332.573 387.829C332.567 387.534 332.619 387.241 332.726 386.966C332.833 386.691 332.994 386.44 333.198 386.227C333.402 386.014 333.646 385.843 333.916 385.725C334.187 385.606 334.478 385.542 334.772 385.536C335.067 385.53 335.361 385.582 335.636 385.689C335.91 385.796 336.162 385.956 336.374 386.161L342.064 391.614C342.495 392.027 342.745 392.594 342.759 393.191C342.773 393.788 342.549 394.366 342.138 394.798C341.935 395.013 341.69 395.186 341.419 395.305C341.149 395.424 340.857 395.487 340.561 395.491Z" fill="#FFC6C2"/>
<path d="M351.896 395.874C351.6 395.883 351.306 395.833 351.03 395.726C350.754 395.62 350.502 395.46 350.289 395.255L344.599 389.787C344.204 389.366 343.985 388.81 343.987 388.233C343.99 387.656 344.213 387.102 344.611 386.685C345.01 386.267 345.553 386.019 346.129 385.99C346.706 385.961 347.271 386.154 347.709 386.529L353.399 391.939C353.83 392.352 354.08 392.919 354.094 393.515C354.108 394.112 353.884 394.69 353.473 395.122C353.275 395.348 353.033 395.532 352.762 395.661C352.49 395.79 352.196 395.863 351.896 395.874Z" fill="#FFC6C2"/>
<path d="M363.275 396.258C362.978 396.267 362.682 396.215 362.406 396.106C362.13 395.997 361.879 395.833 361.668 395.624L355.905 390.17C355.672 389.971 355.482 389.726 355.347 389.451C355.212 389.176 355.134 388.876 355.119 388.57C355.104 388.264 355.151 387.958 355.258 387.671C355.364 387.384 355.529 387.121 355.74 386.9C355.952 386.678 356.206 386.502 356.488 386.382C356.77 386.262 357.074 386.2 357.38 386.202C357.687 386.203 357.99 386.267 358.271 386.389C358.552 386.511 358.805 386.689 359.015 386.912L364.749 392.381C365.067 392.688 365.287 393.081 365.384 393.512C365.48 393.943 365.448 394.393 365.291 394.806C365.134 395.219 364.859 395.576 364.501 395.834C364.142 396.093 363.716 396.24 363.275 396.258Z" fill="#FFC6C2"/>
<path d="M337.51 367.131C337.569 369.403 338.299 371.606 339.61 373.462C340.92 375.319 342.751 376.746 344.871 377.562C346.992 378.379 349.307 378.549 351.524 378.051C353.741 377.552 355.761 376.408 357.328 374.763C358.896 373.117 359.94 371.044 360.33 368.806C360.72 366.567 360.438 364.263 359.519 362.185C358.6 360.106 357.086 358.347 355.168 357.128C353.25 355.91 351.014 355.287 348.742 355.339C347.229 355.373 345.738 355.706 344.355 356.318C342.971 356.929 341.721 357.808 340.678 358.904C339.635 359.999 338.818 361.29 338.274 362.701C337.73 364.113 337.471 365.619 337.51 367.131Z" fill="#272525"/>
<path d="M361.609 325.712C360.221 323.138 358.349 320.855 356.096 318.99C353.072 316.285 349.755 313.926 346.206 311.959C346.101 311.897 345.98 311.869 345.859 311.879C345.738 311.888 345.623 311.935 345.53 312.012C345.436 312.09 345.369 312.194 345.337 312.311C345.305 312.428 345.31 312.553 345.351 312.667C346.123 314.735 346.498 316.93 346.456 319.138C346.456 321.923 346.162 324.695 346.235 327.48C346.188 330.281 346.94 333.037 348.402 335.425C349.188 336.637 350.271 337.627 351.549 338.3C352.826 338.974 354.255 339.309 355.698 339.273C357.184 339.113 358.595 338.542 359.773 337.622C360.95 336.703 361.847 335.472 362.361 334.069C362.802 332.697 362.963 331.25 362.833 329.814C362.704 328.379 362.288 326.983 361.609 325.712Z" fill="#6CAAD5"/>
<path d="M361.019 330.03C360.341 328.954 359.015 329.131 358.071 330.443C357.602 331.049 357.307 331.77 357.216 332.531C357.125 333.292 357.242 334.063 357.556 334.762C358.234 335.838 359.545 335.661 360.504 334.349C360.97 333.742 361.263 333.021 361.354 332.261C361.445 331.501 361.329 330.73 361.019 330.03Z" fill="#A5D5ED"/>
<path d="M545.682 298.384C545.682 299.789 545.265 301.162 544.485 302.331C543.704 303.499 542.594 304.41 541.296 304.947C539.998 305.485 538.569 305.626 537.191 305.352C535.813 305.078 534.547 304.401 533.554 303.407C532.56 302.414 531.883 301.148 531.609 299.77C531.335 298.391 531.476 296.963 532.013 295.665C532.551 294.366 533.462 293.257 534.63 292.476C535.799 291.695 537.172 291.279 538.577 291.279C540.462 291.279 542.269 292.027 543.601 293.36C544.934 294.692 545.682 296.499 545.682 298.384Z" fill="#272525"/>
<path d="M485.529 298.384C485.529 299.789 485.112 301.162 484.331 302.331C483.551 303.499 482.441 304.41 481.143 304.947C479.845 305.485 478.416 305.626 477.038 305.352C475.66 305.078 474.394 304.401 473.4 303.407C472.407 302.414 471.73 301.148 471.456 299.77C471.182 298.391 471.322 296.963 471.86 295.665C472.398 294.366 473.309 293.257 474.477 292.476C475.645 291.695 477.019 291.279 478.424 291.279C480.308 291.279 482.115 292.027 483.448 293.36C484.78 294.692 485.529 296.499 485.529 298.384Z" fill="#272525"/>
<path d="M169.089 154.918C166.952 154.917 164.826 155.23 162.78 155.847C161.589 147.642 157.694 140.069 151.712 134.327C145.731 128.585 138.004 125.004 129.757 124.149C121.51 123.295 113.213 125.216 106.182 129.609C99.15 134.003 93.7851 140.617 90.9369 148.403C87.8105 146.872 84.4118 145.975 80.937 145.764C77.4621 145.553 73.9798 146.032 70.691 147.173C67.4022 148.315 64.3719 150.096 61.7751 152.415C59.1782 154.733 57.0661 157.543 55.5607 160.682C52.4515 157.804 48.5689 155.896 44.3904 155.195C40.2118 154.493 35.9194 155.028 32.0407 156.734C28.162 158.439 24.866 161.24 22.558 164.793C20.25 168.347 19.0306 172.497 19.0495 176.734H190.816C190.823 173.874 190.267 171.041 189.179 168.397C188.091 165.752 186.493 163.348 184.475 161.322C182.457 159.296 180.059 157.687 177.419 156.589C174.779 155.49 171.948 154.922 169.089 154.918Z" fill="#3B5170"/>
<path d="M566.689 249.181L579.321 237.757C579.843 237.287 580.531 237.043 581.233 237.079C581.935 237.115 582.594 237.428 583.065 237.949C583.531 238.47 583.772 239.155 583.736 239.853C583.7 240.551 583.39 241.207 582.873 241.678L570.241 253.102C569.719 253.572 569.031 253.816 568.33 253.78C567.628 253.744 566.969 253.431 566.497 252.91C566.265 252.653 566.085 252.352 565.969 252.025C565.853 251.699 565.802 251.352 565.82 251.006C565.838 250.659 565.924 250.32 566.073 250.007C566.222 249.694 566.431 249.413 566.689 249.181ZM557.653 257.332L558.626 256.462C558.883 256.23 559.184 256.05 559.511 255.934C559.837 255.818 560.184 255.767 560.53 255.785C560.877 255.803 561.216 255.889 561.529 256.038C561.842 256.187 562.123 256.396 562.355 256.654C562.589 256.91 562.769 257.21 562.887 257.537C563.004 257.863 563.056 258.209 563.04 258.555C563.023 258.902 562.939 259.241 562.791 259.555C562.643 259.869 562.435 260.15 562.178 260.383L561.206 261.268C560.684 261.734 560 261.975 559.301 261.939C558.603 261.903 557.947 261.593 557.476 261.076C557.008 260.552 556.766 259.863 556.805 259.161C556.843 258.459 557.159 257.801 557.683 257.332H557.653Z" fill="#FF4444"/>
<path d="M558.552 241.943L568.87 229.857C569.081 229.608 569.339 229.404 569.629 229.256C569.919 229.108 570.236 229.019 570.561 228.994C570.886 228.969 571.213 229.009 571.522 229.112C571.831 229.214 572.117 229.377 572.363 229.591C572.859 230.021 573.164 230.629 573.214 231.283C573.264 231.938 573.053 232.585 572.629 233.085L562.222 245.172C561.792 245.667 561.184 245.972 560.53 246.022C559.876 246.072 559.229 245.861 558.729 245.437C558.243 244.997 557.951 244.382 557.918 243.727C557.885 243.072 558.113 242.431 558.552 241.943ZM551.182 250.581L551.963 249.653C552.393 249.157 553.001 248.852 553.655 248.802C554.309 248.752 554.956 248.963 555.456 249.387C555.705 249.598 555.909 249.856 556.057 250.146C556.205 250.437 556.294 250.753 556.319 251.078C556.344 251.403 556.304 251.73 556.201 252.039C556.099 252.349 555.936 252.635 555.722 252.881L554.926 253.809C554.496 254.304 553.888 254.61 553.234 254.66C552.58 254.709 551.932 254.499 551.432 254.075C551.182 253.866 550.976 253.61 550.825 253.321C550.674 253.032 550.581 252.717 550.553 252.392C550.524 252.068 550.559 251.741 550.657 251.43C550.755 251.119 550.913 250.831 551.123 250.581H551.182Z" fill="#FF4444"/>
<path d="M574.058 258.541L587.457 249.918C588.011 249.562 588.683 249.44 589.326 249.578C589.97 249.716 590.532 250.103 590.891 250.655C591.245 251.208 591.364 251.879 591.223 252.52C591.082 253.162 590.693 253.721 590.14 254.074L576.741 262.712C576.185 263.067 575.512 263.186 574.868 263.046C574.225 262.905 573.663 262.514 573.306 261.96C572.953 261.407 572.833 260.736 572.974 260.095C573.115 259.454 573.505 258.895 574.058 258.541ZM564.477 264.717L565.494 264.054C566.046 263.698 566.715 263.577 567.356 263.715C567.998 263.853 568.558 264.24 568.914 264.791C569.092 265.063 569.214 265.368 569.273 265.688C569.332 266.008 569.327 266.336 569.258 266.654C569.19 266.972 569.059 267.273 568.873 267.54C568.688 267.808 568.451 268.035 568.177 268.21L567.16 268.874C566.607 269.227 565.936 269.347 565.294 269.206C564.653 269.065 564.094 268.675 563.74 268.122C563.566 267.848 563.448 267.543 563.392 267.223C563.336 266.904 563.344 266.576 563.416 266.26C563.487 265.944 563.62 265.644 563.807 265.38C563.994 265.115 564.232 264.889 564.507 264.717H564.477Z" fill="#FF4444"/>
</svg>
