<?xml version="1.0" encoding="utf-8"?>
<!-- Generator: Adobe Illustrator 24.0.1, SVG Export Plug-In . SVG Version: 6.00 Build 0)  -->
<svg version="1.1" id="Слой_1" xmlns="http://www.w3.org/2000/svg" xmlns:xlink="http://www.w3.org/1999/xlink" x="0px" y="0px"
	 viewBox="0 0 182 45" style="enable-background:new 0 0 182 45;" xml:space="preserve">
<style type="text/css">
	.st0{fill-rule:evenodd;clip-rule:evenodd;fill:#FFFFFF;}
	.st1{fill:#FFFFFF;}
</style>
<path class="st0" d="M22.3,2.9c-3.7,0-7.3,1.3-8.6,2l0,0C7.3,8,2.9,14.6,2.9,22.2c0,10.7,8.7,19.4,19.4,19.4s19.4-8.7,19.4-19.4
	S33,2.9,22.3,2.9z M12.4,2.3C14,1.5,18,0,22.3,0c12.3,0,22.3,10,22.3,22.2c0,12.3-10,22.2-22.3,22.2C10,44.5,0,34.5,0,22.2
	C0,13.5,5.1,5.9,12.4,2.3z"/>
<path class="st1" d="M22.3,15.7v1.4V15.7z M14.2,14.6l-0.4-1.4l0,0L14.2,14.6z M9.2,22.3l1.4,0.3L9.2,22.3z M11.2,31.1l-0.1-1.4
	L11.2,31.1z M30.3,14.6l0.4-1.4l0,0L30.3,14.6z M35.4,22.3L34,22.7L35.4,22.3z M33.3,31.1l0.1-1.4L33.3,31.1z M22.3,14.3
	c-1.4,0-2.6-0.4-4-0.7c-1.3-0.3-2.9-0.7-4.4-0.3l0.8,2.8c0.7-0.2,1.6,0,2.9,0.3c1.3,0.3,2.9,0.8,4.7,0.8V14.3z M13.9,13.3
	C11.5,13.9,9,16.4,7.8,22l2.8,0.6c1.1-5.1,3.1-6.4,4-6.6L13.9,13.3z M7.8,22c-0.7,3.3-0.8,5.8-0.3,7.5c0.3,0.9,0.7,1.7,1.4,2.3
	c0.7,0.6,1.6,0.8,2.5,0.7l-0.2-2.9c-0.3,0-0.4-0.1-0.5-0.1c-0.1-0.1-0.3-0.3-0.4-0.8c-0.3-1.1-0.3-3,0.4-6.2L7.8,22z M11.3,32.6
	c1.3-0.1,2.3-0.6,3.1-1.1c0.8-0.5,1.6-1.3,2.3-1.8c1.4-1.1,2.9-2.1,5.6-2.1v-2.9c-3.6,0-5.7,1.4-7.4,2.8c-0.9,0.7-1.4,1.2-2.1,1.7
	c-0.6,0.4-1.1,0.6-1.7,0.6L11.3,32.6z M22.3,17.2c1.8,0,3.5-0.5,4.7-0.8c1.4-0.4,2.2-0.5,2.9-0.3l0.8-2.8c-1.6-0.4-3.2,0-4.4,0.3
	c-1.4,0.4-2.6,0.7-4,0.7V17.2z M29.9,16c0.9,0.2,2.9,1.6,4,6.6l2.8-0.6c-1.2-5.6-3.7-8.1-6.1-8.8L29.9,16z M34,22.7
	c0.7,3.1,0.7,5.1,0.4,6.2c-0.1,0.5-0.3,0.7-0.4,0.8c-0.1,0.1-0.2,0.1-0.5,0.1l-0.2,2.9c0.9,0.1,1.7-0.1,2.5-0.7
	c0.7-0.6,1.2-1.4,1.4-2.3c0.5-1.8,0.4-4.3-0.3-7.5L34,22.7z M33.4,29.7c-0.6,0-1.1-0.2-1.7-0.6c-0.7-0.4-1.2-1-2.1-1.7
	c-1.7-1.3-3.8-2.8-7.4-2.8v2.9c2.6,0,4.2,1,5.6,2.1c0.7,0.5,1.5,1.3,2.3,1.8c0.9,0.6,1.9,1,3.1,1.1L33.4,29.7z"/>
<path class="st0" d="M26.6,16.5c-1.2,0.3-2.7,0.7-4.3,0.7c-1.6,0-3.1-0.4-4.3-0.7c-0.1,0-0.3-0.1-0.4-0.1c-1.4-0.4-2.2-0.5-2.9-0.3
	c-0.9,0.2-2.9,1.6-4,6.6c-0.7,3.1-0.7,5.1-0.4,6.2c0.1,0.5,0.3,0.7,0.4,0.8c0.1,0.1,0.2,0.1,0.5,0.1c0.7,0,1.3-0.3,2.1-0.9
	c0.3-0.2,0.6-0.5,0.9-0.8c0.1-0.1,0.2-0.2,0.3-0.3c0.5-0.4,1-0.8,1.6-1.2c1.5-1,3.4-1.9,6.2-1.9c3.6,0,5.7,1.4,7.4,2.8
	c0.3,0.2,0.5,0.4,0.7,0.6c0.5,0.4,0.9,0.7,1.3,1c0.6,0.4,1.1,0.6,1.7,0.6c0.3,0,0.4-0.1,0.5-0.1c0.1-0.1,0.3-0.3,0.4-0.8
	c0.3-1.1,0.3-3-0.4-6.2c-1.1-5.1-3.1-6.4-4-6.6c-0.7-0.2-1.6,0-2.9,0.3C26.9,16.4,26.7,16.4,26.6,16.5z M30.7,13.3l-0.4,1.4
	L30.7,13.3c2.3,0.6,4.9,3.2,6.1,8.8c0.7,3.3,0.8,5.8,0.3,7.5c-0.3,0.9-0.7,1.7-1.4,2.3c-0.7,0.6-1.6,0.8-2.5,0.7
	C32,32.5,31,32,30.1,31.5c-0.6-0.4-1.2-0.9-1.7-1.3c-0.2-0.2-0.4-0.3-0.6-0.5c-1.4-1.1-2.9-2.1-5.6-2.1c-2.1,0-3.4,0.6-4.6,1.4
	c-0.5,0.3-0.9,0.7-1.3,1c-0.1,0.1-0.2,0.2-0.3,0.2c-0.3,0.3-0.7,0.6-1.1,0.9c-1,0.7-2.1,1.4-3.7,1.5c-0.9,0.1-1.7-0.1-2.5-0.7
	c-0.7-0.6-1.2-1.4-1.4-2.3c-0.5-1.8-0.4-4.3,0.3-7.5c1.2-5.6,3.7-8.1,6.1-8.8l0.4,1.4l-0.4-1.4c1.6-0.4,3.2,0,4.4,0.3
	c0.1,0,0.2,0.1,0.4,0.1c1.2,0.3,2.4,0.6,3.6,0.6c1.2,0,2.4-0.3,3.6-0.6c0.1,0,0.2-0.1,0.4-0.1C27.5,13.2,29.1,12.8,30.7,13.3z"/>
<path class="st1" d="M62.1,24.8v1.8h-6.5v-8h6.3v1.8h-4.1v1.4h3.6v1.7h-3.6v1.5H62.1z"/>
<path class="st1" d="M68.5,26.7c-0.8,0-1.5-0.2-2.2-0.5c-0.7-0.4-1.2-0.9-1.5-1.5c-0.4-0.6-0.6-1.3-0.6-2.1s0.2-1.5,0.6-2.1
	c0.4-0.6,0.9-1.1,1.5-1.5c0.7-0.4,1.4-0.5,2.2-0.5c0.7,0,1.3,0.1,1.8,0.3c0.5,0.2,1,0.6,1.4,1l-1,0.9c-0.6-0.6-1.3-0.9-2.1-0.9
	c-0.6,0-1,0.1-1.5,0.4c-0.4,0.2-0.8,0.6-1,1c-0.2,0.4-0.4,0.9-0.4,1.5c0,0.5,0.1,1,0.4,1.5c0.2,0.4,0.6,0.8,1,1
	c0.4,0.2,0.9,0.4,1.5,0.4c0.8,0,1.6-0.3,2.1-1l1,0.9c-0.4,0.4-0.8,0.8-1.4,1C69.7,26.6,69.1,26.7,68.5,26.7z"/>
<path class="st1" d="M80.3,25.3v1.3h-6v-8h5.9v1.3h-4.4v2.1h3.9v1.2h-3.9v2.2H80.3z"/>
<path class="st1" d="M90.2,18.6v8H89l-4.4-5.4v5.4h-1.5v-8h1.2l4.4,5.4v-5.4H90.2z"/>
<path class="st1" d="M95.1,19.8h-2.7v-1.3h6.8v1.3h-2.7v6.8h-1.5V19.8z"/>
<path class="st1" d="M106.8,26.6l-1.6-2.4c-0.1,0-0.2,0-0.3,0h-1.8v2.3h-1.5v-8h3.3c0.7,0,1.3,0.1,1.8,0.3c0.5,0.2,0.9,0.6,1.2,1
	c0.3,0.4,0.4,0.9,0.4,1.5c0,0.6-0.1,1.1-0.4,1.6c-0.3,0.4-0.7,0.8-1.3,1l1.8,2.6H106.8z M106.8,21.4c0-0.5-0.2-0.9-0.5-1.2
	c-0.3-0.3-0.8-0.4-1.5-0.4h-1.7V23h1.7c0.7,0,1.1-0.1,1.5-0.4C106.6,22.3,106.8,21.9,106.8,21.4z"/>
<path class="st1" d="M116.3,24.7h-4l-0.8,1.9H110l3.6-8h1.5l3.6,8h-1.6L116.3,24.7z M115.8,23.6l-1.5-3.5l-1.5,3.5H115.8z"/>
<path class="st1" d="M120.9,18.6h1.5v6.8h4.2v1.3h-5.7V18.6z"/>
<path class="st1" d="M131.4,26.8c-0.7,0-1.3-0.1-1.9-0.2c-0.6-0.2-1.1-0.4-1.5-0.6l0.7-1.7c0.4,0.2,0.8,0.4,1.3,0.6
	c0.5,0.1,0.9,0.2,1.4,0.2c0.9,0,1.3-0.2,1.3-0.7c0-0.2-0.1-0.4-0.4-0.5c-0.2-0.1-0.6-0.2-1.2-0.4c-0.6-0.1-1.1-0.3-1.5-0.4
	c-0.4-0.2-0.8-0.4-1-0.7s-0.4-0.8-0.4-1.3c0-0.5,0.1-0.9,0.4-1.3c0.3-0.4,0.7-0.7,1.2-0.9c0.5-0.2,1.2-0.3,2-0.3
	c0.5,0,1,0.1,1.6,0.2c0.5,0.1,1,0.3,1.4,0.5l-0.7,1.7c-0.8-0.4-1.5-0.6-2.2-0.6c-0.5,0-0.8,0.1-1,0.2c-0.2,0.1-0.3,0.3-0.3,0.5
	s0.1,0.4,0.4,0.5c0.2,0.1,0.6,0.2,1.2,0.3c0.6,0.1,1.1,0.3,1.5,0.4c0.4,0.1,0.8,0.4,1,0.7c0.3,0.3,0.4,0.8,0.4,1.3
	c0,0.5-0.1,0.9-0.4,1.3s-0.7,0.7-1.2,0.9C132.9,26.6,132.2,26.8,131.4,26.8z"/>
<path class="st1" d="M140.9,18.6c0.7,0,1.4,0.1,1.9,0.4c0.5,0.2,0.9,0.6,1.2,1c0.3,0.4,0.4,1,0.4,1.6s-0.1,1.1-0.4,1.6
	c-0.3,0.4-0.7,0.8-1.2,1c-0.5,0.2-1.2,0.4-1.9,0.4h-1.4v2.1h-2.3v-8H140.9z M140.7,22.7c0.5,0,0.8-0.1,1.1-0.3
	c0.2-0.2,0.4-0.5,0.4-0.9c0-0.4-0.1-0.7-0.4-0.9c-0.2-0.2-0.6-0.3-1.1-0.3h-1.3v2.4H140.7z"/>
<path class="st1" d="M150.9,26.8c-0.9,0-1.6-0.2-2.3-0.5c-0.7-0.4-1.2-0.9-1.6-1.5c-0.4-0.6-0.6-1.4-0.6-2.1c0-0.8,0.2-1.5,0.6-2.1
	c0.4-0.6,0.9-1.1,1.6-1.5c0.7-0.4,1.4-0.5,2.3-0.5s1.6,0.2,2.3,0.5c0.7,0.4,1.2,0.9,1.6,1.5c0.4,0.6,0.6,1.4,0.6,2.1
	c0,0.8-0.2,1.5-0.6,2.1c-0.4,0.6-0.9,1.1-1.6,1.5C152.5,26.6,151.7,26.8,150.9,26.8z M150.9,24.9c0.4,0,0.8-0.1,1.1-0.3
	c0.3-0.2,0.6-0.5,0.8-0.8c0.2-0.4,0.3-0.8,0.3-1.2c0-0.5-0.1-0.8-0.3-1.2c-0.2-0.4-0.5-0.6-0.8-0.8c-0.3-0.2-0.7-0.3-1.1-0.3
	s-0.8,0.1-1.1,0.3c-0.3,0.2-0.6,0.5-0.8,0.8c-0.2,0.3-0.3,0.7-0.3,1.2c0,0.5,0.1,0.9,0.3,1.2c0.2,0.3,0.5,0.6,0.8,0.8
	C150.1,24.8,150.5,24.9,150.9,24.9z"/>
<path class="st1" d="M161.2,24.5h-1.2v2.1h-2.3v-8h3.7c0.7,0,1.4,0.1,1.9,0.4c0.5,0.2,0.9,0.6,1.2,1c0.3,0.4,0.4,1,0.4,1.6
	c0,0.6-0.1,1.1-0.4,1.5c-0.3,0.4-0.7,0.8-1.2,1l1.7,2.5h-2.4L161.2,24.5z M162.6,21.5c0-0.4-0.1-0.7-0.4-0.9
	c-0.2-0.2-0.6-0.3-1.1-0.3h-1.3v2.4h1.3c0.5,0,0.8-0.1,1.1-0.3C162.5,22.2,162.6,21.9,162.6,21.5z"/>
<path class="st1" d="M168.9,20.4h-2.5v-1.8h7.2v1.8h-2.5v6.2h-2.3V20.4z"/>
<path class="st1" d="M178.4,26.8c-0.7,0-1.3-0.1-1.9-0.2c-0.6-0.2-1.1-0.4-1.5-0.6l0.7-1.7c0.4,0.2,0.8,0.4,1.3,0.6
	c0.5,0.1,0.9,0.2,1.4,0.2c0.9,0,1.3-0.2,1.3-0.7c0-0.2-0.1-0.4-0.4-0.5c-0.2-0.1-0.6-0.2-1.2-0.4c-0.6-0.1-1.1-0.3-1.5-0.4
	c-0.4-0.2-0.8-0.4-1-0.7s-0.4-0.8-0.4-1.3c0-0.5,0.1-0.9,0.4-1.3c0.3-0.4,0.7-0.7,1.2-0.9c0.5-0.2,1.2-0.3,2-0.3
	c0.5,0,1,0.1,1.6,0.2c0.5,0.1,1,0.3,1.4,0.5l-0.7,1.7c-0.8-0.4-1.5-0.6-2.2-0.6c-0.5,0-0.8,0.1-1,0.2c-0.2,0.1-0.3,0.3-0.3,0.5
	s0.1,0.4,0.4,0.5c0.2,0.1,0.6,0.2,1.2,0.3c0.6,0.1,1.1,0.3,1.5,0.4c0.4,0.1,0.8,0.4,1,0.7c0.3,0.3,0.4,0.8,0.4,1.3
	c0,0.5-0.1,0.9-0.4,1.3c-0.3,0.4-0.7,0.7-1.2,0.9C179.9,26.6,179.2,26.8,178.4,26.8z"/>
</svg>
