<?xml version="1.0" encoding="utf-8"?>
<!-- Generator: Adobe Illustrator 24.0.1, SVG Export Plug-In . SVG Version: 6.00 Build 0)  -->
<svg version="1.1" id="Слой_1" xmlns="http://www.w3.org/2000/svg" xmlns:xlink="http://www.w3.org/1999/xlink" x="0px" y="0px"
	 viewBox="0 0 508 84" style="enable-background:new 0 0 508 84;" xml:space="preserve">
<style type="text/css">
	.st0{fill:#8CC153;}
	.st1{fill:#FFFFFF;}
	.st2{fill:#313131;}
</style>
<path class="st0" d="M257,0H0v84h257V0z"/>
<path class="st1" d="M17.8,68.3V18.1h10.3v20.4h21.5V18.1h10.3v50.1H49.6V48H28.1v20.3H17.8z M82.5,68.3v-9h8.3V27.1h-8.3v-9h27v9
	h-8.4v32.2h8.4v9H82.5z M153.9,69c-3.9,0-7.4-0.6-10.6-1.9c-3.2-1.3-6-3.2-8.3-5.5c-2.3-2.3-4.2-5.1-5.4-8.2
	c-1.3-3.2-1.9-6.6-1.9-10.3c0-3.6,0.7-7,2-10.1c1.3-3.2,3.2-5.9,5.6-8.2c2.4-2.3,5.2-4.2,8.4-5.4c3.2-1.3,6.8-1.9,10.7-1.9
	c4,0,7.7,0.8,11.1,2.4c3.4,1.6,6.1,3.6,8.1,6l-6.4,6.7c-1.9-1.8-3.9-3.2-6.1-4.2c-2.1-1-4.4-1.5-6.8-1.5c-3.1,0-5.8,0.7-8.2,2.1
	c-2.4,1.4-4.3,3.3-5.7,5.8c-1.4,2.4-2.1,5.2-2.1,8.3s0.7,5.9,2.1,8.4c1.5,2.5,3.5,4.5,5.9,5.9c2.5,1.5,5.2,2.2,8.2,2.2
	c2.2,0,4.3-0.4,6.1-1.3c1.8-0.9,3.2-2.1,4.3-3.5c1.1-1.5,1.6-3.1,1.6-4.9h-13v-8.7h23c0.1,0.8,0.2,1.8,0.3,3c0,1.1,0.1,2.1,0.1,2.7
	c0,4.3-1,8.2-3.1,11.5c-2,3.3-4.8,5.9-8.2,7.8C162.2,68,158.3,69,153.9,69z M197.3,68.3V18.1h10.3v20.4h21.5V18.1h10.3v50.1h-10.3
	V48h-21.5v20.3H197.3z"/>
<path class="st2" d="M273.6,70.1V20h21.6c5,0,8.8,1.1,11.5,3.3c2.7,2.1,4,5.2,4,9.2c0,5-2.1,8.4-6.2,10.2c2.7,1,4.8,2.6,6.4,4.7
	c1.6,2.1,2.4,4.7,2.4,7.7c0,4.9-1.6,8.6-4.8,11.2c-3.2,2.5-7.4,3.8-12.6,3.8H273.6z M283.5,40.4h10.5c2,0,3.5-0.5,4.7-1.6
	c1.2-1.1,1.8-2.4,1.8-4.2c0-1.8-0.6-3.2-1.9-4.2c-1.2-1-3-1.5-5.3-1.5h-9.9V40.4z M283.5,61.1h12c2.4,0,4.2-0.5,5.6-1.6
	c1.3-1.1,2-2.7,2-4.7c0-1.9-0.7-3.4-2.1-4.4c-1.4-1.1-3.4-1.6-5.8-1.6h-11.6V61.1z M354.3,70.6c-4,0-7.6-0.8-10.7-2.5
	c-3.2-1.7-5.6-4.1-7.4-7c-1.8-3-2.7-6.4-2.7-10.2V19.9h10.4v30.3c0,2.1,0.5,4,1.4,5.7c1,1.6,2.2,2.9,3.8,3.9c1.6,1,3.4,1.4,5.3,1.4
	c2.1,0,3.9-0.5,5.5-1.4c1.7-1,3-2.2,3.9-3.9c1-1.7,1.5-3.6,1.5-5.7V19.9h10v30.9c0,3.8-0.9,7.2-2.7,10.2c-1.8,3-4.2,5.3-7.4,7
	C362,69.7,358.4,70.6,354.3,70.6z M398.7,70.1V20h22.1c3.1,0,5.8,0.7,8.3,2.1c2.5,1.4,4.5,3.3,6,5.7c1.5,2.4,2.2,5.1,2.2,8.2
	c0,3.2-0.9,6.2-2.6,8.7s-4,4.5-6.8,5.8l11.4,19.7l-12-0.1L417.1,52h-8.5v18.1H398.7z M408.7,43.5h11.7c2,0,3.6-0.7,4.8-2
	c1.2-1.4,1.9-3.1,1.9-5.2c0-2.2-0.7-4-2.2-5.3c-1.5-1.3-3.4-2-5.9-2h-10.3V43.5z M481.8,70.8c-3.9,0-7.4-0.6-10.6-1.9
	c-3.2-1.3-6-3.2-8.3-5.5c-2.3-2.3-4.2-5.1-5.4-8.2c-1.3-3.2-1.9-6.6-1.9-10.3c0-3.6,0.7-7,2-10.1c1.3-3.2,3.2-5.9,5.6-8.2
	c2.4-2.3,5.2-4.2,8.4-5.4c3.2-1.3,6.8-1.9,10.7-1.9c4,0,7.7,0.8,11.1,2.4c3.4,1.6,6.1,3.6,8.1,6l-6.4,6.7c-1.9-1.8-3.9-3.2-6.1-4.2
	c-2.1-1-4.4-1.5-6.8-1.5c-3.1,0-5.8,0.7-8.2,2.1c-2.4,1.4-4.3,3.3-5.7,5.8c-1.4,2.4-2.1,5.2-2.1,8.3s0.7,5.9,2.1,8.4
	c1.5,2.5,3.5,4.5,5.9,5.9s5.2,2.2,8.2,2.2c2.2,0,4.3-0.4,6.1-1.3c1.8-0.9,3.2-2.1,4.3-3.5c1.1-1.5,1.6-3.1,1.6-4.9h-13V43h23
	c0.1,0.8,0.2,1.8,0.3,3c0,1.1,0.1,2.1,0.1,2.7c0,4.3-1,8.2-3.1,11.5c-2,3.3-4.8,5.9-8.2,7.8C490,69.9,486.1,70.8,481.8,70.8z"/>
</svg>
