<svg width="1340" height="403" viewBox="0 0 1340 403" fill="none" xmlns="http://www.w3.org/2000/svg">
<path opacity="0.25" d="M99.1931 376.918C87.3812 376.918 75.9168 375.459 64.7998 372.541C53.6827 369.623 44.6501 365.732 37.702 360.868L51.2509 330.435C57.7821 334.743 65.3556 338.217 73.9713 340.857C82.587 343.498 91.0638 344.818 99.4015 344.818C115.243 344.818 123.164 340.857 123.164 332.936C123.164 328.768 120.871 325.71 116.286 323.765C111.839 321.68 104.613 319.527 94.6073 317.303C83.6292 314.941 74.4577 312.439 67.0926 309.799C59.7276 307.02 53.4048 302.643 48.1242 296.667C42.8436 290.692 40.2033 282.632 40.2033 272.488C40.2033 263.594 42.6352 255.604 47.4989 248.516C52.3626 241.29 59.5886 235.593 69.1771 231.424C78.9045 227.255 90.7858 225.171 104.821 225.171C114.41 225.171 123.859 226.282 133.17 228.506C142.48 230.59 150.679 233.717 157.766 237.886L145.051 268.527C131.155 261.023 117.675 257.271 104.613 257.271C96.4138 257.271 90.4384 258.522 86.6864 261.023C82.9344 263.385 81.0584 266.512 81.0584 270.403C81.0584 274.294 83.2818 277.212 87.7287 279.158C92.1755 281.103 99.3321 283.118 109.198 285.203C120.315 287.565 129.487 290.136 136.713 292.915C144.078 295.555 150.401 299.863 155.682 305.839C161.101 311.675 163.811 319.665 163.811 329.81C163.811 338.564 161.379 346.485 156.515 353.572C151.652 360.66 144.356 366.357 134.629 370.665C124.901 374.834 113.089 376.918 99.1931 376.918ZM280.636 345.652H218.936L207.472 374H165.366L229.775 228.089H270.422L335.04 374H292.1L280.636 345.652ZM268.546 315.219L249.786 268.527L231.026 315.219H268.546ZM370.471 260.815H325.655V228.089H456.35V260.815H411.743V374H370.471V260.815ZM471.726 228.089H512.998V374H471.726V228.089ZM689.949 228.089L627.416 374H586.769L524.444 228.089H569.051L608.656 323.14L649.094 228.089H689.949ZM791.162 345.652H729.462L717.998 374H675.892L740.301 228.089H780.948L845.566 374H802.626L791.162 345.652ZM779.072 315.219L760.312 268.527L741.552 315.219H779.072Z" fill="white"/>
<path opacity="0.25" fill-rule="evenodd" clip-rule="evenodd" d="M1140.11 373.998L1138.3 374L1138.22 344.204C1138.22 344.204 1135.86 351.793 1118.88 360.06C1101.91 368.327 1065.62 364.124 1065.62 364.124C1071.83 357.464 1083.8 352.669 1095.07 349.819C1103.17 347.814 1111.42 346.454 1119.74 345.753C1119.74 345.753 1079.19 344.409 1048.66 336.261C1021.58 329.033 1000.09 320.651 975.994 308.918C964.751 303.442 955.857 302.082 955.857 302.082C961.319 301.055 968.446 301.802 977.126 301.685C1000.14 301.373 1019.99 299.713 1058.62 308.918C1094.97 317.575 1125.63 332.646 1125.63 332.646C1125.63 332.646 1071.8 291.816 1021.95 238.411C995.89 210.496 970.524 167.428 954.941 141.239C946.721 127.426 940 118.544 940 118.544C940 118.544 947.748 126.391 959.242 133.781C981.392 148.024 1018.98 170.713 1052.51 203.382C1107.65 257.112 1134.68 323.379 1134.68 323.379C1134.68 323.379 1111.62 227.247 1111.62 177.204C1111.62 118.677 1123.64 74.6759 1131.71 42.6582C1135.23 28.5933 1138 14.3545 1140.02 0L1140.11 373.998ZM1140.11 373.998L1141.7 374L1141.78 344.204C1141.78 344.204 1144.14 351.793 1161.12 360.06C1178.09 368.327 1214.38 364.124 1214.38 364.124C1208.17 357.464 1196.2 352.669 1184.93 349.819C1176.83 347.814 1168.58 346.454 1160.26 345.753C1160.26 345.753 1200.81 344.409 1231.34 336.261C1258.42 329.033 1279.91 320.651 1304.01 308.918C1315.25 303.442 1324.15 302.082 1324.15 302.082C1318.68 301.055 1311.56 301.802 1302.88 301.685C1279.86 301.373 1260.01 299.713 1221.38 308.918C1185.04 317.575 1154.37 332.646 1154.37 332.646C1154.37 332.646 1208.2 291.816 1258.05 238.411C1284.11 210.496 1309.48 167.428 1325.06 141.239C1333.28 127.426 1340 118.544 1340 118.544C1340 118.544 1332.25 126.391 1320.76 133.781C1298.61 148.024 1261.02 170.713 1227.49 203.382C1172.35 257.112 1145.32 323.379 1145.32 323.379C1145.32 323.379 1168.38 227.247 1168.38 177.204C1168.38 118.677 1156.36 74.6759 1148.29 42.6582C1144.77 28.5935 1142 14.3546 1139.98 0L1140.11 373.998Z" fill="white"/>
</svg>
