<?xml version="1.0" encoding="utf-8"?>
<!-- Generator: Adobe Illustrator 24.0.1, SVG Export Plug-In . SVG Version: 6.00 Build 0)  -->
<svg version="1.1" id="Слой_1" xmlns="http://www.w3.org/2000/svg" xmlns:xlink="http://www.w3.org/1999/xlink" x="0px" y="0px"
	 viewBox="0 0 50 50" style="enable-background:new 0 0 50 50;" xml:space="preserve">
<style type="text/css">
	.st0{fill:#C42126;}
	.st1{fill:#E7E7E7;}
	.st2{fill:#DC3027;}
	.st3{fill:#F3F4F5;}
	.st4{fill:#E73625;}
	.st5{fill:#283991;}
	.st6{fill:#EFEFEF;}
</style>
<path class="st0" d="M49.9,27.3H0.1v0L49.9,27.3L49.9,27.3z"/>
<path class="st0" d="M47.3,13.7H2.7v0L47.3,13.7L47.3,13.7z"/>
<path class="st0" d="M49.1,18.2H0.9v0L49.1,18.2L49.1,18.2z"/>
<path class="st0" d="M10.7,45.5h28.5l0,0L10.7,45.5L10.7,45.5z"/>
<path class="st0" d="M25,0c-0.5,0-1,0-1.5,0h2.9C26,0,25.5,0,25,0z"/>
<path class="st0" d="M49.9,22.8H0.1v0L49.9,22.8L49.9,22.8z"/>
<path class="st1" d="M32.4,9.1h11.9c-1.4-1.7-3.1-3.3-4.9-4.5h-9C31.2,5.9,31.9,7.4,32.4,9.1z"/>
<path class="st2" d="M30.5,4.6h9C35.7,2,31.3,0.3,26.5,0h-0.8C28,0.3,29,2,30.5,4.6z"/>
<path class="st1" d="M49.1,18.2c-0.4-1.6-1-3.1-1.8-4.5H33.6c0.3,1.5,0.5,3,0.7,4.5H49.1z"/>
<path class="st2" d="M32.8,13.7h14.5c-0.8-1.6-1.8-3.2-3-4.5H31.7C32.1,10.6,32.5,12.1,32.8,13.7z"/>
<path class="st1" d="M34.7,27.3h15.1C50,26.6,50,25.8,50,25c0-0.7,0-1.5-0.1-2.2H34.8C34.8,24.3,34.8,25.8,34.7,27.3z"/>
<path class="st2" d="M49.9,22.8c-0.1-1.6-0.4-3.1-0.8-4.5H33.6c0.2,1.5,0.3,3,0.3,4.5H49.9z"/>
<path class="st1" d="M33.3,36.4h13.9c0.7-1.4,1.3-3,1.8-4.5H34C33.8,33.5,33.6,35,33.3,36.4z"/>
<path class="st2" d="M49,31.9c0.4-1.5,0.7-3,0.9-4.5H34.3c-0.1,1.5-0.2,3.1-0.3,4.5H49z"/>
<path class="st1" d="M39.3,45.5c1.9-1.3,3.5-2.8,5-4.5H32.5c-0.5,1.7-1.2,3.2-2,4.5H39.3z"/>
<path class="st2" d="M32,41h12.2c1.2-1.4,2.2-2.9,3-4.5h-14C32.9,38,32.5,39.6,32,41z"/>
<path class="st2" d="M24.1,50c-0.1,0-0.1,0-0.2,0C24,50,24,50,24.1,50z"/>
<path class="st2" d="M25,50c5.3,0,10.2-1.7,14.3-4.5h-9C28.6,48.3,27.5,50,25,50z"/>
<path class="st0" d="M25,50c-0.3,0-0.6,0-0.9,0C24.4,50,24.7,50,25,50z"/>
<path class="st3" d="M31.3,4.6H10.6C8.7,5.9,7.1,7.4,5.7,9.1h27.5C32.7,7.4,32,5.9,31.3,4.6z"/>
<path class="st4" d="M10.6,4.6h20.7C29.8,2,28,0.3,25.7,0h-2.2C18.7,0.3,14.3,2,10.6,4.6z"/>
<path class="st3" d="M0.9,18.2H35c-0.2-1.6-0.4-3.1-0.7-4.5H2.7C2,15.1,1.4,16.7,0.9,18.2z"/>
<path class="st4" d="M5.7,9.1c-1.1,1.4-2.1,2.9-3,4.5h31.6c-0.3-1.6-0.7-3.1-1.1-4.5H5.7z"/>
<path class="st3" d="M0,25c0,0.8,0,1.6,0.1,2.3h35.2c0.1-1.5,0.1-3,0-4.5H0.1C0,23.5,0,24.3,0,25z"/>
<path class="st4" d="M0.1,22.8h35.2c-0.1-1.5-0.2-3.1-0.3-4.5H0.9C0.5,19.7,0.2,21.2,0.1,22.8z"/>
<path class="st3" d="M35,31.9H1C1.4,33.5,2,35,2.8,36.4h31.6C34.6,35,34.8,33.5,35,31.9z"/>
<path class="st4" d="M1,31.9h34c0.2-1.5,0.3-3,0.3-4.5H0.1C0.3,28.9,0.5,30.4,1,31.9z"/>
<path class="st3" d="M10.7,45.5h20.5c0.8-1.3,1.4-2.8,2-4.5H5.8C7.2,42.7,8.9,44.2,10.7,45.5z"/>
<path class="st4" d="M2.8,36.4c0.8,1.6,1.8,3.2,3,4.5h27.4c0.5-1.4,0.8-2.9,1.1-4.5H2.8z"/>
<path class="st4" d="M23.9,50c0.1,0,0.1,0,0.2,0c0.3,0,0.6,0,0.9,0c2.5,0,4.6-1.7,6.2-4.5H10.7C14.5,48.2,19,49.8,23.9,50z"/>
<path class="st5" d="M24.5,0C11.7,0.3,1.2,10.2,0.1,22.7h24.4L24.5,0L24.5,0z"/>
<path class="st6" d="M5,14.2l0.4,1.2h1.2l-1,0.7L6,17.2l-1-0.7l-1,0.7l0.4-1.2l-1-0.7h1.2L5,14.2z"/>
<path class="st6" d="M5,18.3l0.4,1.2h1.2l-1,0.7L6,21.4l-1-0.7l-1,0.7l0.4-1.2l-1-0.7h1.2L5,18.3z"/>
<path class="st6" d="M9.1,7.9l0.4,1.2h1.2l-1,0.7l0.4,1.2l-1-0.7l-1,0.7l0.4-1.2l-1-0.7h1.2L9.1,7.9z"/>
<path class="st6" d="M9.1,12.1l0.4,1.2h1.2l-1,0.7l0.4,1.2l-1-0.7l-1,0.7L8.5,14l-1-0.7h1.2L9.1,12.1z"/>
<path class="st6" d="M9.1,16.2l0.4,1.2h1.2l-1,0.7l0.4,1.2l-1-0.7l-1,0.7l0.4-1.2l-1-0.7h1.2L9.1,16.2z"/>
<path class="st6" d="M1.9,19.3l-0.4-1.2l1-0.7H1.2l0-0.1c-0.1,0.4-0.3,0.8-0.4,1.3l0,0L1.9,19.3z"/>
<path class="st6" d="M4,13.1l1-0.7l1,0.7l-0.4-1.2l1-0.7H5.4L5,10l-0.4,1.2H4.2c-0.1,0.1-0.2,0.3-0.2,0.4l0.5,0.3L4,13.1z"/>
<path class="st6" d="M9.1,6.2l1,0.7L9.8,5.7l1-0.7H10C9.4,5.4,8.9,5.9,8.3,6.4L8.1,6.9L9.1,6.2z"/>
<path class="st6" d="M12.3,4.8l1-0.7l1,0.7l-0.4-1.2l1-0.7h-1.2l-0.1-0.2c-0.4,0.2-0.8,0.4-1.2,0.7l0.3,0.2L12.3,4.8z"/>
<path class="st6" d="M13.3,5.9L13.7,7h1.2l-1,0.7l0.4,1.2l-1-0.7l-1,0.7l0.4-1.2l-1-0.7h1.2L13.3,5.9z"/>
<path class="st6" d="M13.3,10l0.4,1.2h1.2l-1,0.7l0.4,1.2l-1-0.7l-1,0.7l0.4-1.2l-1-0.7h1.2L13.3,10z"/>
<path class="st6" d="M13.3,14.2l0.4,1.2h1.2l-1,0.7l0.4,1.2l-1-0.7l-1,0.7l0.4-1.2l-1-0.7h1.2L13.3,14.2z"/>
<path class="st6" d="M13.3,18.3l0.4,1.2h1.2l-1,0.7l0.4,1.2l-1-0.7l-1,0.7l0.4-1.2l-1-0.7h1.2L13.3,18.3z"/>
<path class="st6" d="M17.4,3.8L17.8,5H19l-1,0.7l0.4,1.2l-1-0.7l-1,0.7l0.4-1.2l-1-0.7h1.2L17.4,3.8z"/>
<path class="st6" d="M17.4,7.9l0.4,1.2H19l-1,0.7l0.4,1.2l-1-0.7l-1,0.7l0.4-1.2l-1-0.7h1.2L17.4,7.9z"/>
<path class="st6" d="M17.4,12.1l0.4,1.2H19l-1,0.7l0.4,1.2l-1-0.7l-1,0.7l0.4-1.2l-1-0.7h1.2L17.4,12.1z"/>
<path class="st6" d="M17.4,16.2l0.4,1.2H19l-1,0.7l0.4,1.2l-1-0.7l-1,0.7l0.4-1.2l-1-0.7h1.2L17.4,16.2z"/>
<path class="st6" d="M21.6,1.7L22,2.9h1.2l-1,0.7l0.4,1.2l-1-0.7l-1,0.7L21,3.6l-1-0.7h1.2L21.6,1.7z"/>
<path class="st6" d="M21.6,5.9L22,7h1.2l-1,0.7l0.4,1.2l-1-0.7l-1,0.7L21,7.8L20,7h1.2L21.6,5.9z"/>
<path class="st6" d="M21.6,10l0.4,1.2h1.2l-1,0.7l0.4,1.2l-1-0.7l-1,0.7l0.4-1.2l-1-0.7h1.2L21.6,10z"/>
<path class="st6" d="M21.6,14.2l0.4,1.2h1.2l-1,0.7l0.4,1.2l-1-0.7l-1,0.7l0.4-1.2l-1-0.7h1.2L21.6,14.2z"/>
<path class="st6" d="M21.6,18.3l0.4,1.2h1.2l-1,0.7l0.4,1.2l-1-0.7l-1,0.7l0.4-1.2l-1-0.7h1.2L21.6,18.3z"/>
</svg>
