<?xml version="1.0" encoding="utf-8"?>
<!-- Generator: Adobe Illustrator 24.0.1, SVG Export Plug-In . SVG Version: 6.00 Build 0)  -->
<svg version="1.1" id="Слой_1" xmlns="http://www.w3.org/2000/svg" xmlns:xlink="http://www.w3.org/1999/xlink" x="0px" y="0px"
	 viewBox="0 0 80 80" style="enable-background:new 0 0 80 80;" xml:space="preserve">
<style type="text/css">
	.st0{fill:#dcdcdc;}
	.st1{fill:#2E2E2E;}
</style>
<ellipse class="st0" cx="40" cy="40" rx="40" ry="40"/>
<path class="st1" d="M40.2,39.9c2.1,0,4-0.8,5.4-2.3c1.5-1.5,2.3-3.3,2.3-5.4c0-2.1-0.8-4-2.3-5.4c-1.5-1.5-3.3-2.3-5.4-2.3
	c-2.1,0-4,0.8-5.4,2.3c-1.5,1.5-2.3,3.3-2.3,5.4c0,2.1,0.8,4,2.3,5.4C36.2,39.1,38.1,39.9,40.2,39.9z"/>
<path class="st1" d="M53.7,49.1c0-0.6-0.1-1.3-0.3-2c-0.1-0.7-0.3-1.4-0.5-2c-0.2-0.6-0.5-1.3-0.8-1.9c-0.4-0.6-0.8-1.2-1.3-1.6
	c-0.5-0.5-1.1-0.9-1.8-1.1c-0.7-0.3-1.5-0.4-2.3-0.4c-0.3,0-0.6,0.1-1.3,0.5c-0.4,0.2-0.8,0.5-1.3,0.8c-0.4,0.3-1,0.5-1.7,0.7
	c-0.7,0.2-1.4,0.3-2.1,0.3c-0.7,0-1.4-0.1-2.1-0.3c-0.7-0.2-1.3-0.5-1.7-0.7c-0.5-0.3-0.9-0.6-1.3-0.8c-0.6-0.4-0.9-0.5-1.3-0.5
	c-0.8,0-1.6,0.1-2.3,0.4c-0.7,0.3-1.3,0.7-1.8,1.1c-0.5,0.5-0.9,1-1.3,1.6c-0.3,0.6-0.6,1.2-0.8,1.9c-0.2,0.6-0.4,1.3-0.5,2
	c-0.1,0.7-0.2,1.4-0.3,2c0,0.6-0.1,1.2-0.1,1.9c0,1.7,0.5,3,1.6,4c1,1,2.4,1.5,4.1,1.5h15.4c1.7,0,3-0.5,4.1-1.5c1-1,1.6-2.3,1.6-4
	C53.7,50.3,53.7,49.7,53.7,49.1z"/>
</svg>
