<svg width="14" height="15" viewBox="0 0 14 15" fill="none" xmlns="http://www.w3.org/2000/svg">
<path d="M0.0242555 6.68473C0.0729892 6.80156 0.186709 6.87779 0.312906 6.87779L3.7361 6.87779L3.7361 14.6876C3.7361 14.86 3.87606 15 4.0485 15L9.0468 15C9.21924 15 9.3592 14.86 9.3592 14.6876L9.3592 6.87776L12.7955 6.87776C12.9217 6.87776 13.0354 6.80153 13.0842 6.68532C13.1323 6.5685 13.106 6.43416 13.0167 6.3448L6.78445 0.0919451C6.72573 0.0332245 6.64636 0.000101478 6.56327 0.000101471C6.48019 0.000101464 6.40082 0.0332245 6.3421 0.0913299L0.0917318 6.34419C0.00237826 6.43357 -0.0244772 6.56788 0.0242555 6.68473Z" fill="#B5B5B5"/>
</svg>
