<?xml version="1.0" encoding="utf-8"?>
<!-- Generator: Adobe Illustrator 24.0.1, SVG Export Plug-In . SVG Version: 6.00 Build 0)  -->
<svg version="1.1" id="Слой_1" xmlns="http://www.w3.org/2000/svg" xmlns:xlink="http://www.w3.org/1999/xlink" x="0px" y="0px"
	 viewBox="0 0 39 19" style="enable-background:new 0 0 39 19;" xml:space="preserve">
<style type="text/css">
	.st0{fill:#337D95;}
</style>
<path class="st0" d="M12.7,16.4H9.5L3.2,6.2v10.2H0V0.8h3.2l6.2,10.3V0.8h3.2V16.4z M28.1,16.4h-3.2V9.7h-6.2v6.7h-3.2V0.8h3.2v6.3
	h6.2V0.8h3.2V16.4z M35.5,13.1c0.9,0.1,1.5,0.4,2,0.9c0.5,0.5,0.7,1.1,0.7,1.8c0,0.5-0.2,1-0.5,1.5c-0.3,0.5-0.8,0.8-1.4,1.1
	c-0.6,0.3-1.4,0.4-2.4,0.4c-0.8,0-1.6-0.1-2.3-0.3C31,18.3,30.4,18,30,17.7l0.9-1.8c0.4,0.3,0.9,0.5,1.4,0.6
	c0.6,0.2,1.1,0.2,1.7,0.2c0.6,0,1.1-0.1,1.4-0.3c0.3-0.2,0.5-0.5,0.5-0.8c0-0.7-0.6-1-1.7-1h-1.3v-1.5l2-1.9h-4.4V9.5h7.4V11
	L35.5,13.1z"/>
</svg>
