<svg height="504pt" viewBox="0 0 504.18537 504" width="504pt" xmlns="http://www.w3.org/2000/svg"><path d="m178.929688 366.902344c3.277343 3.273437 8.589843 3.273437 11.867187 0l6.65625-6.65625 6.65625 6.65625c3.292969 3.179687 8.527344 3.132812 11.765625-.105469 3.238281-3.234375 3.285156-8.472656.101562-11.765625l-6.65625-6.65625 6.65625-6.65625c3.183594-3.292969 3.136719-8.527344-.101562-11.765625s-8.472656-3.28125-11.765625-.101563l-6.65625 6.65625-6.65625-6.65625c-3.292969-3.179687-8.527344-3.136718-11.765625.101563s-3.28125 8.472656-.101562 11.765625l6.65625 6.65625-6.65625 6.65625c-3.277344 3.277344-3.277344 8.589844 0 11.871094zm0 0"/><path d="m254.46875 173.851562c3.277344 3.277344 8.59375 3.277344 11.871094 0l6.65625-6.65625 6.65625 6.65625c3.292968 3.179688 8.527344 3.136719 11.765625-.101562 3.234375-3.238281 3.28125-8.472656.101562-11.765625l-6.65625-6.65625 6.65625-6.65625c3.179688-3.292969 3.132813-8.527344-.101562-11.765625-3.238281-3.238281-8.472657-3.285156-11.765625-.101562l-6.65625 6.652343-6.65625-6.652343c-3.292969-3.183594-8.53125-3.136719-11.765625.101562-3.238281 3.238281-3.285157 8.472656-.105469 11.765625l6.65625 6.65625-6.65625 6.65625c-3.273438 3.277344-3.273438 8.589844 0 11.867187zm0 0"/><path d="m400.632812 271.097656c-3.277343-3.277344-8.589843-3.277344-11.867187 0l-6.65625 6.65625-6.65625-6.65625c-3.292969-3.179687-8.527344-3.136718-11.765625.101563s-3.285156 8.472656-.101562 11.765625l6.65625 6.65625-6.65625 6.65625c-2.183594 2.109375-3.058594 5.230468-2.289063 8.164062.765625 2.933594 3.058594 5.226563 5.992187 5.992188 2.9375.769531 6.058594-.105469 8.164063-2.285156l6.65625-6.65625 6.65625 6.65625c3.292969 3.179687 8.527344 3.132812 11.765625-.105469 3.238281-3.234375 3.28125-8.472657.101562-11.765625l-6.65625-6.65625 6.65625-6.65625c3.277344-3.277344 3.277344-8.589844 0-11.867188zm0 0"/><path d="m61.65625 350.15625c-12.210938 8.636719-23.273438 18.789062-32.917969 30.214844l-.304687.34375c-10.789063 12.527344-19.015625 27.046875-24.214844 42.742187-7.226562 18.625-5.082031 39.585938 5.765625 56.359375 12.402344 15.667969 31.527344 24.492188 51.496094 23.753906h2.8125c15.527343-.289062 30.878906-3.363281 45.324219-9.074218 14.164062-5.449219 27.574218-12.695313 39.894531-21.5625.191406-.140625.375-.300782.578125-.445313l.082031-.066406c22.464844-15.640625 40.496094-36.835937 52.34375-61.515625 2.515625.203125 4.976563.378906 7.511719.378906 27.644531.003906 53.832031-12.394531 71.34375-33.785156 22.152344 27.375 57.949218 39.765625 92.285156 31.941406 34.335938-7.828125 61.230469-34.503906 69.335938-68.773437 8.105468-34.269531-3.992188-70.167969-31.1875-92.542969 17.253906-8.453125 32.945312-19.777344 46.40625-33.480469 10.773437-10.703125 20.128906-22.738281 27.84375-35.816406 8.492187-14.085937 14.207031-29.671875 16.835937-45.910156l.050781-.386719c3.949219-19.496094-1.625-39.710938-15.015625-54.421875-14.695312-13.375-34.878906-18.949219-54.355469-15.019531-.144531.011718-.289062.027344-.429687.050781-16.269531 2.632813-31.882813 8.363281-45.996094 16.878906-1.527343.898438-3.136719 1.890625-4.582031 2.820313-11.285156 7.15625-21.738281 15.542968-31.171875 25.003906-4.890625 4.945312-9.488281 10.167969-13.765625 15.648438-28.253906-24.746094-68.742188-29.757813-102.175781-12.648438-8.113281-24.683594-22.109375-47.019531-40.773438-65.09375l-.203125-.210938c-10.664062-10.707031-22.652344-20.015624-35.671875-27.695312-39.273437-22.957031-78.796875-23.710938-100.71875-1.882812-21.824219 21.898437-21.078125 61.433593 1.886719 100.722656 7.695312 13.023437 17.019531 25.007812 27.75 35.671875l.183594.183593c28.539062 28.539063 64.125 45.460938 94.199218 45.460938 1.050782 0 2.066407-.085938 3.105469-.125.460938 10.507812 2.734375 20.863281 6.714844 30.601562-43.117187 8.6875-74.144531 46.539063-74.207031 90.523438 0 1.484375.152344 2.9375.226562 4.40625-20.242187 5.257812-39.304687 14.300781-56.183594 26.648438zm76.976562 27.277344.109376.144531-21.503907 15.359375-66.945312-11.164062c5.75-5.765626 11.921875-11.09375 18.464843-15.945313zm-1.679687 83.75c-6.726563 4.632812-13.796875 8.753906-21.144531 12.320312l11.140625-66.902344 21.65625-15.460937zm-118.574219-25.589844 31.71875 5.285156-30.402344 21.707032c-3.050781-8.679688-3.511718-18.058594-1.316406-26.992188zm41.472656 18.953125-5.28125 31.675781c-9.148437-.851562-17.859374-4.320312-25.085937-9.996094zm19.304688-13.800781 28.488281-20.34375-10.074219 60.429687c-8.429687 2.859375-17.160156 4.742188-26.019531 5.609375zm-41.832031-44.117188 60.589843 10.074219-28.496093 20.378906-45.785157-7.628906c3.65625-8.117187 8.25-15.777344 13.691407-22.824219zm119.261719 48.96875 7.738281-46.492187c6.660156 3.808593 13.773437 6.765625 21.167969 8.804687-7.328126 14.175782-17.117188 26.933594-28.90625 37.6875zm271.6875-126.597656c-.050782 41.699219-33.84375 75.488281-75.542969 75.539062-24.433594.046876-47.351563-11.835937-61.386719-31.835937 14.703125-27.28125 14.703125-60.132813 0-87.417969 13.667969-19.273437 35.574219-31.03125 59.1875-31.777344.691406-.050781 1.445312-.050781 2.199219-.050781 41.699219.050781 75.492187 33.84375 75.542969 75.542969zm-26.933594-227.464844c7.851562-4.199218 16.15625-7.488281 24.757812-9.792968v46.390624l-24.757812 24.761719zm79.828125 5.257813c4.460937 8.054687 6.464843 17.238281 5.757812 26.421875h-32.179687zm-6.605469 67.984375h-61.355469l24.753907-24.761719h46.40625c-2.316407 8.582031-5.605469 16.871094-9.804688 24.703125zm-78.140625 16.789062h67.859375c-4.734375 6.648438-9.957031 12.9375-15.628906 18.808594h-71.042969zm-33.574219 45.75c1.351563-3.3125 2.507813-6.703125 3.464844-10.15625h63.707031c-10.617187 8.332032-22.40625 15.054688-34.984375 19.945313-10.019531-5.242188-20.921875-8.578125-32.15625-9.847657zm106.453125-142.433594-26.414062 26.421876v-32.179688c9.175781-.703125 18.359375 1.300781 26.414062 5.757812zm-106.019531 34.832032c6.582031-6.480469 13.699219-12.390625 21.269531-17.675782v67.558594l-15.433593 15.433594c-1.566407-18.035156-8.425782-35.203125-19.71875-49.351562 4.277343-5.621094 8.914062-10.953126 13.882812-15.964844zm-265.9375 18.464844c-5.671875-5.894532-10.898438-12.203126-15.636719-18.867188h67.902344l18.828125 18.824219zm-32.558594-103.652344 26.449219 26.449218h-32.046875c-.683594-9.167968 1.257812-18.34375 5.597656-26.449218zm115.480469 91.742187-18.828125-18.785156v-67.902344c6.65625 4.742188 12.949219 9.96875 18.828125 15.644531zm-35.617187-35.570312-24.75-24.796875v-46.164063c8.597656 2.246094 16.902343 5.480469 24.75 9.644531zm-36.628907-12.9375 24.761719 24.761719h-61.269531c-4.164063-7.851563-7.402344-16.160157-9.644531-24.761719zm90.652344 66.949219-1.679687-1.679688v-69.179688c10.863281 13.761719 18.875 29.550782 23.570312 46.441407-8.679688 6.777343-16.078125 15.046875-21.859375 24.417969zm-95.5625-127.648438v32.054688l-26.453125-26.457032c8.109375-4.335937 17.285156-6.277344 26.453125-5.597656zm12.925781 137.863281h69.171875l5.691407 5.6875c-2.496094 6.597657-4.21875 13.464844-5.136719 20.457031-20.898438 1.273438-46.726563-8.546874-69.726563-26.144531zm85.613282 38.171875c.015624-25 12.402343-48.375 33.082031-62.429687l.207031-.160157c28.488281-19.390624 66.5-16.980468 92.3125 5.847657s32.847656 60.257812 17.089844 90.902343c-5.554688.460938-11.054688 1.421876-16.433594 2.871094-1.953125-.050781-3.863281.589844-5.390625 1.804688-16.089844 5.515625-30.328125 15.398437-41.128906 28.539062-17.507813-21.394531-43.695313-33.800781-71.34375-33.800781h-.292969c-5.292969-10.402344-8.066406-21.902344-8.101562-33.574219zm8.394531 50.359375c41.722656 0 75.542969 33.820313 75.542969 75.542969 0 41.71875-33.820313 75.539062-75.542969 75.539062-41.71875 0-75.539063-33.820312-75.539063-75.539062.050782-41.699219 33.839844-75.492188 75.539063-75.542969zm-83.355469 114.992188-36.820312-6.128907c9.625-5.210937 19.820312-9.289062 30.382812-12.160156 1.496094 6.304688 3.652344 12.4375 6.4375 18.289063zm0 0"/></svg>
