<?xml version="1.0" encoding="utf-8"?>
<!-- Generator: Adobe Illustrator 24.0.1, SVG Export Plug-In . SVG Version: 6.00 Build 0)  -->
<svg version="1.1" id="Слой_1" xmlns="http://www.w3.org/2000/svg" xmlns:xlink="http://www.w3.org/1999/xlink" x="0px" y="0px"
	 viewBox="0 0 14 15" style="enable-background:new 0 0 14 15;" xml:space="preserve">
<style type="text/css">
	.st0{fill:#B5B5B5;}
</style>
<path class="st0" d="M13.1,8.3c0-0.1-0.2-0.2-0.3-0.2H9.4V0.3C9.4,0.1,9.2,0,9.1,0h-5C3.9,0,3.7,0.1,3.7,0.3v7.8H0.3
	C0.2,8.1,0.1,8.2,0,8.3c0,0.1,0,0.3,0.1,0.3l6.2,6.3C6.4,15,6.5,15,6.5,15c0.1,0,0.2,0,0.2-0.1L13,8.7C13.1,8.6,13.1,8.4,13.1,8.3z"
	/>
</svg>
