<?xml version="1.0" encoding="utf-8"?>
<!-- Generator: Adobe Illustrator 24.0.1, SVG Export Plug-In . SVG Version: 6.00 Build 0)  -->
<svg version="1.1" id="Слой_1" xmlns="http://www.w3.org/2000/svg" xmlns:xlink="http://www.w3.org/1999/xlink" x="0px" y="0px"
	 viewBox="0 0 30 31" style="enable-background:new 0 0 30 31;" xml:space="preserve">
<style type="text/css">
	.st0{fill:#FC5123;}
</style>
<path class="st0" d="M16.3,25.1l-1.8-8.2l-5.1,6.6l0,0C9.2,24,8.9,24.5,8.8,25c-0.5,2.1,0.8,4.1,2.9,4.6c2.1,0.5,4.1-0.8,4.6-2.9
	C16.4,26.2,16.4,25.6,16.3,25.1L16.3,25.1z"/>
<path class="st0" d="M24.9,18.5l-8.2-1.6l4.1,7.3l0,0c0.3,0.5,0.6,0.9,1.1,1.2c1.7,1.2,4.1,0.9,5.4-0.9c1.2-1.7,0.9-4.1-0.9-5.4
	C26,18.9,25.4,18.6,24.9,18.5L24.9,18.5z"/>
<path class="st0" d="M21,7.3l-4,7.4l8.2-1.7l0,0c0.5-0.1,1-0.3,1.5-0.7c1.7-1.3,2.1-3.7,0.8-5.4c-1.3-1.7-3.7-2.1-5.4-0.8
	C21.6,6.4,21.2,6.8,21,7.3L21,7.3z"/>
<path class="st0" d="M10,7.5l5.2,6.5l1.6-8.2l0,0c0.1-0.5,0.1-1.1,0-1.6c-0.5-2.1-2.6-3.3-4.6-2.8C10,1.9,8.8,4,9.3,6
	C9.4,6.6,9.7,7.1,10,7.5L10,7.5z"/>
<path class="st0" d="M6.1,18.7l7.5-3.6L6,11.7l0,0c-0.5-0.2-1-0.3-1.6-0.3c-2.1,0-3.8,1.8-3.8,3.9c0,2.1,1.8,3.8,3.9,3.8
	C5.1,19,5.6,18.9,6.1,18.7L6.1,18.7z"/>
</svg>
