<?xml version="1.0" encoding="utf-8"?>
<!-- Generator: Adobe Illustrator 24.0.1, SVG Export Plug-In . SVG Version: 6.00 Build 0)  -->
<svg version="1.1" id="Слой_1" xmlns="http://www.w3.org/2000/svg" xmlns:xlink="http://www.w3.org/1999/xlink" x="0px" y="0px"
	 viewBox="0 0 29 29" style="enable-background:new 0 0 29 29;" xml:space="preserve">
<style type="text/css">
	.st0{fill:#431F08;}
</style>
<path class="st0" d="M21.4,23.4c4.8-0.2,6.9-2.3,6.9-4.9c0-2.2-1.6-4.1-5.2-4.7c0-0.8,0-1.6,0-2.4H0.4c0,4.9,0,12,4.6,15.5
	c-2.8,0.2-4.6,0.5-4.6,0.9c0,0.6,5.1,1.1,11.4,1.1c6.3,0,11.4-0.5,11.4-1.1c0-0.4-1.8-0.7-4.6-0.9C19.8,25.9,20.7,24.7,21.4,23.4z
	 M23.1,15.9c2,0.4,2.4,1.4,2.3,2.6c0,1.4-0.4,2.3-3.2,2.7C22.7,19.5,23,17.7,23.1,15.9z M3.2,13.1h3.6c-1.6,4.5,1.1,11.7,1.1,11.7
	C2,20.5,3.2,13.1,3.2,13.1z"/>
<path class="st0" d="M13.7,8.4c0.5-4,9.5-2,7.6-7.1C21,0.5,19.7,0.9,20,1.7c0.8,2.3-2.3,2.5-3.9,3c-1.9,0.6-3.5,1.7-3.7,3.7
	C12.2,9.3,13.6,9.3,13.7,8.4z"/>
<path class="st0" d="M20.1,5.7c-1.8,0.4-3.4,1.1-3.9,2.9c-0.2,0.8,1.1,1.1,1.3,0.3c0.6-2,3.3-2,5-2.5c1.8-0.5,2.9-1.8,2.6-3.6
	C25,2,23.7,2,23.8,2.8C24.1,5.1,21.9,5.3,20.1,5.7z"/>
</svg>
