<?xml version="1.0" encoding="utf-8"?>
<!-- Generator: Adobe Illustrator 24.0.1, SVG Export Plug-In . SVG Version: 6.00 Build 0)  -->
<svg version="1.1" id="Слой_1" xmlns="http://www.w3.org/2000/svg" xmlns:xlink="http://www.w3.org/1999/xlink" x="0px" y="0px"
	 viewBox="0 0 30 36" style="enable-background:new 0 0 30 36;" xml:space="preserve">
<style type="text/css">
	.st0{fill:#8CC153;}
</style>
<path class="st0" d="M28.6,10c-0.6-2-1.6-3.8-2.9-5.2c-2.4-2.6-5.9-4-10-4h0l0,0c-3.7,0-7.1,1.4-9.4,4.1C3.9,7.5,2.7,11.2,3,15
	l-2.2,3.8c-0.4,0.6-0.4,1.4,0.1,1.9c0.2,0.2,0.4,0.2,0.8,0.3c0.7,0.1,1.1,0.3,1.2,0.4l0.3,4.5c0,0.7,0.4,1.3,0.9,1.7
	C4.7,28,5.3,28.2,6,28.2l4.9-0.5v0.2c0,0.4,0.3,0.7,0.7,0.7c0.4,0,0.7-0.3,0.7-0.7v-1c0-0.2-0.1-0.4-0.2-0.5
	c-0.1-0.1-0.3-0.2-0.5-0.2l-5.7,0.6c-0.3,0-0.6-0.1-0.8-0.2c-0.2-0.2-0.4-0.5-0.4-0.8L4.5,24c0.6,0.1,1.1,0.3,1.7,0.5
	c0.1,0,0.2,0.1,0.3,0.1c0.3,0,0.5-0.1,0.6-0.4c0.2-0.3,0-0.7-0.3-0.9c-0.7-0.3-1.5-0.6-2.3-0.7l-0.1-1.3c-0.1-1.2-1.5-1.4-2.3-1.6
	c0,0-0.1,0-0.1,0c0,0,0,0,0-0.1c0,0,0-0.1,0.1-0.1l2.3-4c0.1-0.1,0.1-0.3,0.1-0.4C4,11.6,5.1,8.2,7.3,5.8c2.1-2.3,5.1-3.6,8.4-3.6
	c0,0,0,0,0,0c3.7,0,6.9,1.2,9,3.6c2.3,2.5,3.4,6.2,3.1,10c-0.3,3-2.3,7-6.2,9.3c-1.2,0.7-2,2.1-2,3.5v5.4h-7.4
	c0-0.3-0.3-0.6-0.7-0.6c-0.4,0-0.7,0.3-0.7,0.7v0.6c0,0.4,0.3,0.7,0.7,0.7h8.7c0.4,0,0.7-0.3,0.7-0.7v-6c0-0.9,0.5-1.8,1.3-2.3
	c2.1-1.2,3.8-2.9,5-5c1.1-1.7,1.7-3.7,1.9-5.4C29.4,13.9,29.2,11.9,28.6,10L28.6,10z"/>
<path class="st0" d="M11,31.3c0.2,0.2,0.4,0.3,0.7,0.3c0.3-0.1,0.5-0.3,0.5-0.6c0-0.3-0.1-0.6-0.4-0.7c-0.3-0.1-0.6-0.1-0.8,0.1
	C10.9,30.7,10.9,31,11,31.3z"/>
<path class="st0" d="M6.6,17c0.4,0,0.7-0.3,0.7-0.7v-0.7l0.9,0.5c0.1,0.1,0.2,0.1,0.3,0.1c0.2,0,0.5-0.1,0.6-0.3
	c0.2-0.3,0.1-0.7-0.2-0.9l-2.7-1.5c-0.3-0.2-0.7-0.1-0.9,0.2c-0.2,0.3-0.1,0.7,0.2,0.9L6,14.9v1.5C6,16.7,6.3,17,6.6,17L6.6,17z"/>
<path class="st0" d="M19.7,6.6c-1,0-1.9,0.4-2.7,1c-0.4-0.1-0.8-0.2-1.2-0.2c-1.7,0-3.1,1.1-3.5,2.7c-1.4,0.1-2.6,1.4-2.6,2.8
	c0,1.6,1.3,2.8,2.8,2.8h10.5c1.4,0,2.6-1.1,2.6-2.6c0-1.2-0.8-2.2-1.9-2.5c0,0,0-0.1,0-0.1C23.7,8.4,21.9,6.6,19.7,6.6L19.7,6.6z
	 M12.6,14.4c-0.8,0-1.5-0.7-1.5-1.5c0-0.8,0.7-1.5,1.5-1.5h0.3c0.3,0,0.6-0.3,0.7-0.6c0.1-1.2,1.1-2.1,2.3-2.1c1.3,0,2.3,1,2.3,2.3
	c0,0.2,0,0.3,0,0.5c0,0.2,0,0.4,0.1,0.6c0.1,0.2,0.3,0.2,0.5,0.2h0.1c0.6,0,1,0.5,1,1c0,0.6-0.5,1-1,1H12.6z M24.3,13.1
	c0,0.7-0.5,1.2-1.2,1.2H21c0.1-0.3,0.2-0.7,0.2-1c0-1.1-0.7-2-1.7-2.3c0,0,0,0,0,0c0-1.1-0.5-2-1.2-2.7c0.4-0.3,0.9-0.4,1.4-0.4
	c1.5,0,2.7,1.2,2.7,2.7c0,0.2,0,0.4-0.1,0.5c0,0.2,0,0.4,0.1,0.6c0.1,0.2,0.3,0.2,0.5,0.2h0.1C23.7,11.9,24.3,12.5,24.3,13.1
	L24.3,13.1z"/>
<path class="st0" d="M17.6,16.9c-0.2,0-0.4,0.1-0.5,0.2c-0.4,0.4-1.4,1.6-1.4,2.4c0,1,0.8,1.9,1.9,1.9c1,0,1.9-0.8,1.9-1.9
	c0-0.8-1-2-1.4-2.4C18,17,17.8,16.9,17.6,16.9L17.6,16.9z M17.6,20.1c-0.3,0-0.5-0.2-0.5-0.5c0-0.2,0.2-0.5,0.5-0.9
	c0.3,0.4,0.5,0.8,0.5,0.9C18.1,19.9,17.9,20.1,17.6,20.1z"/>
<path class="st0" d="M22.2,17.6c-0.2,0-0.4,0.1-0.5,0.2c-0.4,0.4-1.4,1.6-1.4,2.4c0,1,0.8,1.9,1.9,1.9c1,0,1.9-0.8,1.9-1.9
	c0-0.8-1-2-1.4-2.4C22.6,17.7,22.4,17.6,22.2,17.6L22.2,17.6z M22.2,20.8c-0.3,0-0.5-0.2-0.5-0.5c0-0.2,0.2-0.5,0.5-0.9
	c0.3,0.4,0.5,0.8,0.5,0.9C22.7,20.5,22.5,20.8,22.2,20.8z"/>
<path class="st0" d="M13,22.1c1,0,1.9-0.8,1.9-1.9c0-0.8-1-2-1.4-2.4c-0.1-0.1-0.3-0.2-0.5-0.2c-0.2,0-0.4,0.1-0.5,0.2
	c-0.4,0.4-1.4,1.6-1.4,2.4C11.1,21.3,12,22.1,13,22.1z M13,19.3c0.3,0.4,0.5,0.8,0.5,0.9c0,0.3-0.2,0.5-0.5,0.5
	c-0.3,0-0.5-0.2-0.5-0.5C12.5,20.1,12.7,19.7,13,19.3z"/>
</svg>
