<?xml version="1.0" encoding="utf-8"?>
<!-- Generator: Adobe Illustrator 24.0.1, SVG Export Plug-In . SVG Version: 6.00 Build 0)  -->
<svg version="1.1" id="Слой_1" xmlns="http://www.w3.org/2000/svg" xmlns:xlink="http://www.w3.org/1999/xlink" x="0px" y="0px"
	 viewBox="0 0 32 38" style="enable-background:new 0 0 32 38;" xml:space="preserve">
<style type="text/css">
	.st0{fill:#8CC153;}
</style>
<path class="st0" d="M28.3,7.3c1.4-1,2.8-2.2,3.3-3.5c0.4-0.9,0.2-1.5,0-1.9C30.3-0.6,24-0.1,18.5,1.2c0,0-0.1,0-0.1,0
	C16-0.2,14,0,12.7,0.5c-0.3,0.1-0.5,0.2-0.7,0.4c0,0,0,0,0,0C9.1,0.3,6.6,0,4.6,0.1C2.3,0.3,0.9,0.9,0.4,1.9C0.2,2.4,0,3,0.4,3.9
	C0.9,5,2,6.1,3.3,7.1C3.2,7.3,3,7.6,2.9,7.9c0,0-0.1,0-0.1,0.1c-2.9,2.3-2.9,3.8-2.5,4.8c0.6,1.1,2,1.6,3.7,1.8
	c-1.2,0.4-2,1.4-2,2.7c0,1.5,1.1,2.7,2.6,2.8c0.3,4.2,3.5,7.5,7.6,8.1v1.4H4.6c-2.5,0-4.6,2.1-4.6,4.6v3c0,0.4,0.3,0.7,0.7,0.7h11.1
	c0.4,0,0.7-0.3,0.7-0.7c0-0.4-0.3-0.7-0.7-0.7H1.5v-2.3c0-1.7,1.4-3.1,3.1-3.1h21.2c1.7,0,3.1,1.4,3.1,3.1v2.3H18.6
	c-0.4,0-0.7,0.3-0.7,0.7c0,0.4,0.3,0.7,0.7,0.7h11.1c0.4,0,0.7-0.3,0.7-0.7v-3c0-2.5-2.1-4.6-4.6-4.6h-7.6v-1.4
	c4.2-0.4,7.6-3.9,7.9-8.2c1.3-0.2,2.3-1.4,2.3-2.8c0-1.2-0.7-2.2-1.8-2.6c2.1,0,4.3-0.4,5-1.8C32.3,11.3,31.1,9.4,28.3,7.3L28.3,7.3
	z M25.5,13.1c-0.1,0-0.2,0-0.3,0c-0.8,0-1.7-0.1-2.6-0.3c-0.7-0.3-1.5-0.8-2.3-1.4c2.2-0.8,4.3-1.8,6-2.8
	C26.6,10.1,26.3,11.8,25.5,13.1L25.5,13.1z M9.2,10.6c0.6,0.4,1.6,0.9,3.2,1.6c-1.2,0.3-2.4,0.5-3.5,0.6c0-0.3,0.1-0.5,0.1-0.8
	C9,11.6,9.1,11.1,9.2,10.6L9.2,10.6z M26.8,1.6c2.8,0.1,3.4,0.8,3.5,1c0,0.1,0.1,0.3,0,0.7c-0.3,0.8-1.5,1.9-3.3,3.1
	c-0.6-1.1-1.5-2.1-2.6-2.9c-1.1-0.8-2.4-1.2-3.8-1.4C22.9,1.8,25.1,1.5,26.8,1.6L26.8,1.6z M13.8,1.7c1.6-0.4,3.4,0.2,5.3,1.8
	c0.1,0.1,0.3,0.2,0.5,0.2c2.6-0.1,5,1.3,6.1,3.6c-1.8,1.1-4.2,2.2-7,3.2c-0.4-0.3-0.9-0.6-1.3-1c-0.1-0.1-0.2-0.1-0.2-0.2
	c-0.5-0.4-0.9-0.1-1,0c-0.2,0.2-0.3,0.5-0.2,0.8l0.2,0.6c0.1,0.2,0.1,0.5,0,0.6c-0.1,0-0.1,0-0.2,0.1c-0.6-0.2-1.2-0.4-1.8-0.6
	C10.5,9.5,7.5,8,5.4,6.7C6,5.9,7,5.4,8,5.2c0.5-0.1,1.1-0.1,1.6,0c0.2,0,0.4,0,0.6-0.1c0.1-0.1,0.2-0.2,0.3-0.4
	C10.6,4.2,11.8,2.2,13.8,1.7L13.8,1.7z M1.7,3.3c-0.2-0.4-0.1-0.7,0-0.7c0.3-0.5,1.4-0.9,3-1c1.6-0.1,3.6,0.1,5.8,0.5
	c-0.2,0.2-0.4,0.4-0.5,0.6C9.7,2.9,9.4,3.3,9.2,3.7c-0.5,0-1,0-1.5,0.1C6.3,4,5,4.8,4.1,5.8C2.8,4.9,2,4,1.7,3.3L1.7,3.3z M4.9,8.2
	c0.9,0.6,1.9,1.1,3,1.6c-0.3,0.7-0.3,1.5-0.4,2.2c0,0.5-0.1,0.8-0.1,1.1c-0.2,0-0.4,0-0.6,0c-0.5,0-1,0-1.5,0l-1-2.1
	C4,10,3.9,9.6,4.3,8.6l0-0.1c0.1-0.2,0.1-0.4,0.2-0.6C4.7,8,4.8,8.1,4.9,8.2L4.9,8.2z M1.7,12.1c-0.2-0.4,0-1,0.9-1.9
	C2.6,10.6,2.8,11,3,11.5c0,0,0,0,0,0.1L3.6,13C2.5,12.8,1.9,12.4,1.7,12.1L1.7,12.1z M13.7,29.5v-1.3h3v1.3H13.7z M25.6,18.5h-0.2
	c-0.4,0-0.7,0.3-0.7,0.7v0.1c0,4-3.3,7.3-7.3,7.3h-3.9c-4.1,0-7.3-3.3-7.3-7.3v-0.1c0-0.4-0.3-0.7-0.7-0.7H4.9
	c-0.7,0-1.3-0.6-1.3-1.3c0-0.7,0.6-1.3,1.3-1.3h0.5c0.2,0,0.5-0.1,0.6-0.3c0.1,0,0.2,0,0.2,0c0.2,0,0.4-0.1,0.8-0.2
	c0.7-0.2,1.2-0.5,1.4-1c1.9-0.2,4.1-0.6,6.3-1.2c0.6,0.2,1.2,0.1,1.8-0.2c1.9,0.5,3.8,1,5.6,1.2c1,0.5,1.8,0.7,2.6,0.9v0
	c0,0.4,0.3,0.7,0.7,0.7h0.2c0.7,0,1.3,0.6,1.3,1.3C26.9,17.9,26.3,18.5,25.6,18.5L25.6,18.5z M30.2,12.1c-0.2,0.4-1.2,0.9-3.1,1
	c0.6-1.4,0.8-2.9,0.6-4.3C29.8,10.3,30.5,11.5,30.2,12.1z"/>
<path class="st0" d="M21.1,16.5c-0.3-0.3-0.8-0.3-1,0l-0.4,0.4l-0.4-0.4c-0.3-0.3-0.8-0.3-1,0c-0.3,0.3-0.3,0.8,0,1l0.4,0.4
	l-0.4,0.4c-0.3,0.3-0.3,0.8,0,1c0.1,0.1,0.3,0.2,0.5,0.2s0.4-0.1,0.5-0.2l0.4-0.4l0.4,0.4c0.1,0.1,0.3,0.2,0.5,0.2s0.4-0.1,0.5-0.2
	c0.3-0.3,0.3-0.8,0-1l-0.4-0.4l0.4-0.4C21.4,17.2,21.4,16.8,21.1,16.5L21.1,16.5z"/>
<path class="st0" d="M12.2,16.5c-0.3-0.3-0.8-0.3-1,0l-0.4,0.4l-0.4-0.4c-0.3-0.3-0.8-0.3-1,0c-0.3,0.3-0.3,0.8,0,1l0.4,0.4
	l-0.4,0.4c-0.3,0.3-0.3,0.8,0,1c0.1,0.1,0.3,0.2,0.5,0.2c0.2,0,0.4-0.1,0.5-0.2l0.4-0.4l0.4,0.4c0.1,0.1,0.3,0.2,0.5,0.2
	s0.4-0.1,0.5-0.2c0.3-0.3,0.3-0.8,0-1l-0.4-0.4l0.4-0.4C12.5,17.2,12.5,16.8,12.2,16.5z"/>
<path class="st0" d="M16.9,24.8c-0.2,0-0.4-0.1-0.5-0.2c-0.6-0.6-1.7-0.6-2.3,0c-0.3,0.3-0.8,0.3-1,0c-0.3-0.3-0.3-0.8,0-1
	c1.2-1.2,3.2-1.2,4.4,0c0.3,0.3,0.3,0.8,0,1C17.2,24.7,17.1,24.8,16.9,24.8L16.9,24.8z"/>
<path class="st0" d="M15.2,37.9c-0.3,0-0.6-0.2-0.7-0.5c-0.1-0.3,0-0.6,0.2-0.8c0.2-0.2,0.6-0.2,0.8-0.1c0.3,0.2,0.4,0.5,0.4,0.8
	C15.9,37.6,15.6,37.9,15.2,37.9L15.2,37.9z"/>
</svg>
