<?xml version="1.0" encoding="utf-8"?>
<!-- Generator: Adobe Illustrator 24.0.1, SVG Export Plug-In . SVG Version: 6.00 Build 0)  -->
<svg version="1.1" id="Слой_1" xmlns="http://www.w3.org/2000/svg" xmlns:xlink="http://www.w3.org/1999/xlink" x="0px" y="0px"
	 viewBox="0 0 48 33" style="enable-background:new 0 0 48 33;" xml:space="preserve">
<style type="text/css">
	.st0{fill:#8CC153;}
</style>
<path class="st0" d="M45.7,16.9c0,2.9-10.2,3.5-13.2,3.6v-2.9c0-0.9-1.4-0.9-1.4,0v3c-0.6,0-1.1,0-1.5,0v-3c0-0.9-1.4-0.9-1.4,0v3
	c-0.5,0-2,0.7-4.4,0.7c-1,0-2.8-0.4-3.7-0.6v-2.4c0-0.9-1.4-0.9-1.4,0v2.2c-0.7,0-1.4,0-2.3,0v-2.2c0-0.9-1.4-0.9-1.4,0v2.1
	c-1.6-0.1-3.4-0.2-5.2-0.4v-1.7c0-0.9-1.4-0.9-1.4,0v1.5c-1.7-0.3-5.3-0.9-6.4-2.3c3.4-0.2,7-1.2,10-2.2v3c0,0.9,1.4,0.9,1.4,0V15
	c0.6-0.2,1-0.3,1.5-0.5v1c0,0.9,1.4,0.9,1.4,0c0-1.6,0-1.4,0-1.5c1.3-0.4,2.4-0.7,3-0.7c1.5,0,2.9,0.7,3.7,2
	c0.1,0.1,0.1,0.2,0.2,0.2c0.1,0.1,0.2,0.1,0.3,0.1c0.1,0,0.2,0,0.3-0.1c0.1-0.1,0.2-0.1,0.2-0.2c0.8-1.2,2.2-2,3.7-2
	c0.9,0,0.9-1.4,0-1.4c-0.8,0-1.6,0.2-2.3,0.5c-0.7,0.3-1.4,0.8-2,1.4c-0.6-0.6-1.2-1.1-2-1.4c-0.7-0.3-1.5-0.5-2.3-0.5
	c-3,0-11,4.4-18.2,4.4c-0.2,0-0.4,0.1-0.5,0.2c-0.1,0.1-0.2,0.3-0.2,0.5c0,3.7,2.6,7.6,7.2,10.6c17.2,11.2,39.2,0.1,39.2-10.6
	C47.1,16,45.7,16,45.7,16.9z M36.9,27.6v-4.2c0-0.9-1.4-0.9-1.4,0v4.8c-0.5,0.2-1,0.4-1.5,0.6v-2.5c0-0.9-1.4-0.9-1.4,0
	c0,3.1,0,2.9,0,3c-1.2,0.4-2.5,0.7-3.7,0.9v-1.8c0-0.9-1.4-0.9-1.4,0v2c-1,0.1-2,0.2-3,0.2v-1.5c0-0.9-1.4-0.9-1.4,0v1.5
	c-1,0-2-0.1-3-0.2v-2c0-0.9-1.4-0.9-1.4,0v1.8c-0.8-0.1-1.5-0.3-2.3-0.5v-4.9c0-0.9-1.4-0.9-1.4,0v4.5c-1.5-0.5-3-1.1-4.4-1.8v-3.4
	c0-0.9-1.4-0.9-1.4,0v2.6c-3.4-2-5.9-4.6-6.9-7.3c2.5,1.4,7,1.9,9.8,2.2v3.3c0,0.9,1.4,0.9,1.4,0v-3.2C16.6,22,19,22,19.5,22
	c0.4,0.1,2.3,0.6,3.8,0.7v0.8c0,0.9,1.4,0.9,1.4,0v-0.8c1-0.1,2-0.2,3-0.5v3.5c0,0.9,1.4,0.9,1.4,0V22c1.2,0,2.5,0,3.7-0.1v1.5
	c0,0.9,1.4,0.9,1.4,0v-1.6c3.2-0.2,8.4-0.6,11.2-2.2C44,22.7,41,25.6,36.9,27.6z"/>
<path class="st0" d="M29,15.5c0.4,0,0.7-0.3,0.7-0.7c0-0.4-0.3-0.7-0.7-0.7c-0.4,0-0.7,0.3-0.7,0.7C28.3,15.2,28.6,15.5,29,15.5z"/>
<path class="st0" d="M19.6,16.2c0.4,0,0.7-0.3,0.7-0.7c0-0.4-0.3-0.7-0.7-0.7c-0.4,0-0.7,0.3-0.7,0.7C18.8,15.9,19.2,16.2,19.6,16.2
	z"/>
<path class="st0" d="M18.9,24.2v1.5c0,0.9,1.4,0.9,1.4,0v-1.5C20.2,23.3,18.9,23.3,18.9,24.2z"/>
<path class="st0" d="M39.8,24.2v-0.7c0-0.9-1.4-0.9-1.4,0v0.7C38.5,25.1,39.8,25.1,39.8,24.2z"/>
<path class="st0" d="M23.9,27.1c0.4,0,0.7-0.3,0.7-0.7c0-0.4-0.3-0.7-0.7-0.7c-0.4,0-0.7,0.3-0.7,0.7C23.2,26.8,23.5,27.1,23.9,27.1
	z"/>
<path class="st0" d="M38.6,18.1c4.1,0,7.4-3.2,7.4-7.1c0-3.2-4.7-8.4-6.9-10.5c-0.1-0.1-0.3-0.2-0.5-0.2c-0.2,0-0.4,0.1-0.5,0.2
	c0,0-0.9,0.9-2.1,2.2c-0.1,0.1-0.1,0.2-0.1,0.2c0,0.1,0,0.2,0,0.3c0,0.1,0,0.2,0.1,0.3c0,0.1,0.1,0.2,0.2,0.2
	c0.1,0.1,0.2,0.1,0.2,0.1c0.1,0,0.2,0,0.3,0c0.1,0,0.2,0,0.3-0.1c0.1,0,0.2-0.1,0.2-0.2c0.6-0.7,1.2-1.3,1.5-1.6c2,2.1,6,6.6,6,9
	c0,3.1-2.7,5.6-6,5.6c-3.3,0-6-2.5-6-5.6c0-0.5,0.2-1.5,1.2-3.1c0.1-0.2,0.1-0.4,0.1-0.5c0-0.2-0.2-0.3-0.3-0.4
	c-0.2-0.1-0.4-0.1-0.5-0.1c-0.2,0-0.3,0.2-0.4,0.3c-0.9,1.5-1.4,2.8-1.4,3.9C31.2,14.9,34.5,18.1,38.6,18.1z"/>
<path class="st0" d="M41.9,8.4c-0.1-0.1-0.1-0.1-0.2-0.2c-0.1,0-0.2-0.1-0.3-0.1c-0.1,0-0.2,0-0.3,0.1c-0.1,0-0.2,0.1-0.2,0.2l-2,2
	l-2-2c-0.1-0.1-0.3-0.2-0.5-0.2c-0.2,0-0.4,0.1-0.5,0.2c-0.1,0.1-0.2,0.3-0.2,0.5c0,0.2,0.1,0.4,0.2,0.5l2,2l-2,2
	c-0.1,0.1-0.2,0.2-0.2,0.4s0,0.3,0,0.4c0.1,0.1,0.1,0.2,0.3,0.3c0.1,0.1,0.3,0.1,0.4,0.1c0.5,0,0.5-0.3,2.5-2.2l2,2
	c0.1,0.1,0.3,0.2,0.5,0.2c0.2,0,0.4-0.1,0.5-0.2c0.1-0.1,0.2-0.3,0.2-0.5c0-0.2-0.1-0.4-0.2-0.5l-2-2l2-2C41.9,9.4,42,9.3,42,9.2
	c0-0.1,0.1-0.2,0.1-0.3c0-0.1,0-0.2-0.1-0.3C42,8.6,41.9,8.5,41.9,8.4z"/>
<path class="st0" d="M34.8,6c0.4,0,0.7-0.3,0.7-0.7s-0.3-0.7-0.7-0.7c-0.4,0-0.7,0.3-0.7,0.7S34.4,6,34.8,6z"/>
</svg>
