<?xml version="1.0" encoding="utf-8"?>
<!-- Generator: Adobe Illustrator 24.0.1, SVG Export Plug-In . SVG Version: 6.00 Build 0)  -->
<svg version="1.1" id="Слой_1" xmlns="http://www.w3.org/2000/svg" xmlns:xlink="http://www.w3.org/1999/xlink" x="0px" y="0px"
	 viewBox="0 0 22 22" style="enable-background:new 0 0 22 22;" xml:space="preserve">
<style type="text/css">
	.st0{fill:#303030;}
</style>
<path class="st0" d="M3.4,13.7h2.3c0.4,0,0.7-0.3,0.7-0.7v-2.3c0-0.4-0.3-0.7-0.7-0.7H3.4c-0.4,0-0.7,0.3-0.7,0.7v2.3
	C2.8,13.4,3.1,13.7,3.4,13.7z"/>
<path class="st0" d="M3.4,19.2h2.3c0.4,0,0.7-0.3,0.7-0.7v-2.3c0-0.4-0.3-0.7-0.7-0.7H3.4c-0.4,0-0.7,0.3-0.7,0.7v2.3
	C2.8,18.9,3.1,19.2,3.4,19.2z"/>
<path class="st0" d="M9.9,13.7h2.3c0.4,0,0.7-0.3,0.7-0.7v-2.3c0-0.4-0.3-0.7-0.7-0.7H9.9c-0.4,0-0.7,0.3-0.7,0.7v2.3
	C9.2,13.4,9.5,13.7,9.9,13.7z"/>
<path class="st0" d="M9.9,19.2h2.3c0.4,0,0.7-0.3,0.7-0.7v-2.3c0-0.4-0.3-0.7-0.7-0.7H9.9c-0.4,0-0.7,0.3-0.7,0.7v2.3
	C9.2,18.9,9.5,19.2,9.9,19.2z"/>
<path class="st0" d="M16.3,13.7h2.3c0.4,0,0.7-0.3,0.7-0.7v-2.3c0-0.4-0.3-0.7-0.7-0.7h-2.3c-0.4,0-0.7,0.3-0.7,0.7v2.3
	C15.6,13.4,15.9,13.7,16.3,13.7z"/>
<path class="st0" d="M19.2,2.8h-0.9V0.9c0-0.5-0.4-0.9-0.9-0.9h-0.9c-0.5,0-0.9,0.4-0.9,0.9v1.8H6.4V0.9C6.4,0.4,6,0,5.5,0H4.6
	C4.1,0,3.7,0.4,3.7,0.9v1.8H2.8C1.2,2.8,0,4,0,5.5v13.8C0,20.8,1.2,22,2.8,22h16.5c1.5,0,2.8-1.2,2.8-2.8V5.5
	C22,4,20.8,2.8,19.2,2.8z M20.2,19.2c0,0.5-0.4,0.9-0.9,0.9H2.8c-0.5,0-0.9-0.4-0.9-0.9v-10h18.3V19.2z"/>
</svg>
