<?xml version="1.0" encoding="utf-8"?>
<!-- Generator: Adobe Illustrator 24.0.1, SVG Export Plug-In . SVG Version: 6.00 Build 0)  -->
<svg version="1.1" id="Слой_1" xmlns="http://www.w3.org/2000/svg" xmlns:xlink="http://www.w3.org/1999/xlink" x="0px" y="0px"
	 viewBox="0 0 18 18" style="enable-background:new 0 0 18 18;" xml:space="preserve">
<style type="text/css">
	.st0{fill:#303030;}
</style>
<path class="st0" d="M9,16.5h6.7c0.4,0,0.7-0.3,0.7-0.7V2.3c0-0.4-0.3-0.7-0.7-0.7H9c-0.4,0-0.7-0.3-0.7-0.7C8.3,0.4,8.6,0,9,0h6.7
	C17,0,18,1,18,2.3v13.5c0,1.2-1,2.2-2.2,2.2H9c-0.4,0-0.7-0.3-0.7-0.7C8.3,16.8,8.6,16.5,9,16.5z"/>
<path class="st0" d="M0.2,8.5L4.8,4c0.3-0.3,0.8-0.3,1.1,0c0.3,0.3,0.3,0.8,0,1.1L2.6,8.3h8.7C11.7,8.3,12,8.6,12,9
	c0,0.4-0.3,0.7-0.7,0.7H2.6L5.8,13c0.3,0.3,0.3,0.8,0,1.1c-0.1,0.1-0.3,0.2-0.5,0.2c-0.2,0-0.4-0.1-0.5-0.2L0.2,9.5
	C0.1,9.4,0,9.2,0,9C0,8.8,0.1,8.6,0.2,8.5z"/>
</svg>
