<?xml version="1.0" encoding="utf-8"?>
<!-- Generator: Adobe Illustrator 24.0.1, SVG Export Plug-In . SVG Version: 6.00 Build 0)  -->
<svg version="1.1" id="Слой_1" xmlns="http://www.w3.org/2000/svg" xmlns:xlink="http://www.w3.org/1999/xlink" x="0px" y="0px"
	 viewBox="0 0 36 36" style="enable-background:new 0 0 36 36;" xml:space="preserve">
<style type="text/css">
	.st0{fill:#8CC153;}
</style>
<path class="st0" d="M35.4,14.7l-4.6-1.4l1.8-1.1c0.1-0.1,0.2-0.1,0.2-0.2c0.1-0.1,0.1-0.2,0.1-0.3s0-0.2-0.1-0.3
	c-0.1-0.1-0.1-0.2-0.2-0.2l-1.8-1.1l4.6-1.4c0.1,0,0.2-0.1,0.3-0.2c0.1-0.1,0.1-0.2,0.1-0.4c0-0.1,0-0.3-0.1-0.4
	c-0.1-0.1-0.2-0.2-0.3-0.2l-3.2-0.9l3.5-4c0.1-0.1,0.1-0.2,0.1-0.3c0-0.1,0-0.3-0.1-0.4c-0.1-0.1-0.2-0.2-0.3-0.2
	c-0.1,0-0.2-0.1-0.4,0l-4,1V1.1c0-0.1,0-0.2-0.1-0.3s-0.1-0.2-0.2-0.2c-0.1-0.1-0.2-0.1-0.3-0.1c-0.1,0-0.2,0-0.3,0.1l-2.9,1.8
	l0.6,1l2.1-1.2v1.3c0,0.1,0,0.2,0.1,0.3c0,0.1,0.1,0.2,0.2,0.2C30.2,3.9,30.3,4,30.4,4c0.1,0,0.2,0,0.3,0l2.9-0.7l-2.9,3.3
	c-0.1,0.1-0.1,0.2-0.1,0.3c0,0.1,0,0.2,0,0.3c0,0.1,0.1,0.2,0.2,0.3c0.1,0.1,0.2,0.1,0.3,0.1l2.2,0.6l-4,1.2c-0.1,0-0.2,0.1-0.3,0.2
	c-0.1,0.1-0.1,0.2-0.1,0.3c0,0.1,0,0.2,0.1,0.3c0,0.1,0.1,0.2,0.2,0.2l2.1,1.3L29,13c-0.1,0.1-0.2,0.1-0.2,0.2
	c0,0.1-0.1,0.2-0.1,0.3c0,0.1,0.1,0.2,0.1,0.3c0.1,0.1,0.2,0.2,0.3,0.2l3,0.9l-2.9,0.3c-0.1,0-0.2,0-0.2,0.1c-0.1,0-0.1,0.1-0.2,0.2
	c0,0.1-0.1,0.1-0.1,0.2c0,0.1,0,0.2,0,0.2l0.4,2L26.5,17l-0.4,1.1l3.5,1.2c0.1,0,0.1,0,0.2,0c0.1,0,0.2,0,0.3-0.1
	c0.1,0,0.1-0.1,0.2-0.2c0.1-0.1,0.1-0.1,0.1-0.2c0-0.1,0-0.2,0-0.3L30,16.3l5.2-0.5c0.1,0,0.3-0.1,0.4-0.2c0.1-0.1,0.2-0.2,0.2-0.4
	c0-0.1,0-0.3-0.1-0.4C35.6,14.8,35.5,14.7,35.4,14.7L35.4,14.7z"/>
<path class="st0" d="M31.8,25.3l-8-1.7l-2-2.8c1-0.6,1.8-1.4,2.4-2.3c0.6-1,1-2,1.1-3.2h0.6c0.5,0,0.9-0.2,1.2-0.5
	c0.3-0.3,0.5-0.8,0.5-1.2v-1.2c0-0.4-0.2-0.8-0.4-1.2c-0.3-0.3-0.7-0.5-1.1-0.6l0.7-0.7c0.3-0.3,0.5-0.6,0.6-1
	c0.1-0.4,0.2-0.7,0.2-1.1V7c0-1.7-0.7-3.4-1.9-4.6c-1.2-1.2-2.9-1.9-4.6-1.9h-5.9c-1.7,0-3.4,0.7-4.6,1.9C9.3,3.6,8.7,5.2,8.7,7v0.8
	c0,0.4,0.1,0.8,0.2,1.1c0.1,0.4,0.4,0.7,0.6,1l0.7,0.7c-0.4,0.1-0.8,0.3-1.1,0.6c-0.3,0.3-0.4,0.7-0.4,1.2v1.2
	c0,0.5,0.2,0.9,0.5,1.2c0.3,0.3,0.8,0.5,1.2,0.5h0.6c0.1,1.1,0.5,2.2,1.1,3.2c0.6,1,1.4,1.8,2.4,2.3l-2,2.8l-8,1.7
	c-0.1,0-0.3,0.1-0.3,0.2c-0.1,0.1-0.1,0.2-0.1,0.4v7.1c0,0.1,0,0.3,0.1,0.4c0.1,0.1,0.2,0.2,0.4,0.2L18,35.9c0.1,0,0.1,0,0.2,0
	l13.6-2.4c0.1,0,0.3-0.1,0.4-0.2c0.1-0.1,0.1-0.2,0.1-0.4v-7.1c0-0.1,0-0.3-0.1-0.4C32,25.4,31.9,25.3,31.8,25.3L31.8,25.3z
	 M26.4,12.3v1.2c0,0.2-0.1,0.3-0.2,0.4C26.1,14,25.9,14,25.8,14h-0.6v-2.4h0.6c0.2,0,0.3,0.1,0.4,0.2C26.3,12,26.4,12.1,26.4,12.3z
	 M11,14h-0.6c-0.2,0-0.3-0.1-0.4-0.2c-0.1-0.1-0.2-0.3-0.2-0.4v-1.2c0-0.2,0.1-0.3,0.2-0.4c0.1-0.1,0.3-0.2,0.4-0.2H11V14z M11,8.1
	v1.5L10.4,9C10,8.7,9.8,8.2,9.8,7.8V7c0-1.4,0.6-2.8,1.6-3.8c1-1,2.3-1.6,3.8-1.6h5.9c1.4,0,2.8,0.6,3.8,1.6s1.6,2.3,1.6,3.8v0.8
	c0,0.5-0.2,0.9-0.5,1.3l-0.7,0.7V8.1c0-0.1,0-0.3-0.1-0.4c-0.1-0.1-0.2-0.2-0.3-0.2l-8.8-2.4c-0.2,0-0.3,0-0.4,0.1l-4.1,2.4
	c-0.1,0.1-0.2,0.1-0.2,0.2C11.1,7.9,11,8,11,8.1z M12.2,14.6V8.5l3.6-2.1L24,8.6v6c0,1.6-0.6,3.1-1.7,4.2c-1.1,1.1-2.6,1.7-4.2,1.7
	c-1.6,0-3.1-0.6-4.2-1.7C12.8,17.7,12.2,16.2,12.2,14.6z M31.1,32.4l-13,2.3l-13-2.3v-6.1l7.8-1.7c0.1,0,0.3-0.1,0.4-0.2l2.3-3.2
	c1.6,0.6,3.4,0.6,5.1,0l2.3,3.2c0.1,0.1,0.2,0.2,0.4,0.2l7.8,1.7V32.4z"/>
<path class="st0" d="M5.7,18.6c0,0.1,0,0.2,0,0.3s0.1,0.2,0.2,0.3s0.2,0.1,0.3,0.1c0.1,0,0.2,0,0.3,0l4.1-1.2L10.3,17l-3.2,0.9
	l0.4-2c0-0.1,0-0.2,0-0.2s-0.1-0.2-0.1-0.2c0-0.1-0.1-0.1-0.2-0.2c-0.1,0-0.2-0.1-0.2-0.1L4,14.9l3-0.9c0.1,0,0.2-0.1,0.3-0.2
	c0.1-0.1,0.1-0.2,0.1-0.3c0-0.1,0-0.2-0.1-0.3c0-0.1-0.1-0.2-0.2-0.2l-2.1-1.3l2.1-1.3c0.1-0.1,0.2-0.1,0.2-0.2
	c0-0.1,0.1-0.2,0.1-0.3c0-0.1-0.1-0.2-0.1-0.3C7.3,9.5,7.2,9.4,7.1,9.4l-4-1.2l2.2-0.6c0.1,0,0.2-0.1,0.3-0.1
	c0.1-0.1,0.1-0.2,0.2-0.3c0-0.1,0-0.2,0-0.3c0-0.1-0.1-0.2-0.1-0.3L2.7,3.3L5.6,4c0.1,0,0.2,0,0.3,0C5.9,4,6,3.9,6.1,3.9
	c0.1-0.1,0.1-0.1,0.2-0.2c0-0.1,0.1-0.2,0.1-0.3V2.1l2.1,1.2l0.6-1L6,0.6C5.9,0.5,5.8,0.5,5.7,0.5c-0.1,0-0.2,0-0.3,0.1
	C5.3,0.6,5.3,0.7,5.2,0.8C5.1,0.9,5.1,1,5.1,1.1v1.6l-4-1c-0.1,0-0.3,0-0.4,0c-0.1,0-0.2,0.1-0.3,0.2S0.4,2.2,0.4,2.3
	c0,0.1,0.1,0.2,0.1,0.3l3.5,4L0.8,7.6c-0.1,0-0.2,0.1-0.3,0.2C0.4,7.9,0.4,8,0.4,8.1c0,0.1,0,0.3,0.1,0.4c0.1,0.1,0.2,0.2,0.3,0.2
	l4.6,1.4l-1.8,1.1c-0.1,0.1-0.2,0.1-0.2,0.2c-0.1,0.1-0.1,0.2-0.1,0.3s0,0.2,0.1,0.3c0.1,0.1,0.1,0.2,0.2,0.2l1.8,1.1l-4.6,1.4
	c-0.1,0-0.2,0.1-0.3,0.2c-0.1,0.1-0.1,0.3-0.1,0.4c0,0.1,0.1,0.3,0.2,0.4c0.1,0.1,0.2,0.2,0.4,0.2l5.2,0.5L5.7,18.6z"/>
<path class="st0" d="M16.3,23.4l-1.2,0.2l0.6,2.9c0,0.1,0.1,0.3,0.2,0.3c0.1,0.1,0.2,0.1,0.4,0.1h1.2v-1.2h-0.7L16.3,23.4z"/>
<path class="st0" d="M20.4,26.6l0.6-2.9l-1.2-0.2l-0.5,2.5h-0.7V27h1.2c0.1,0,0.3,0,0.4-0.1C20.3,26.8,20.4,26.7,20.4,26.6z"/>
<path class="st0" d="M15.2,28.2H9.3c-0.1,0-0.3,0-0.4,0.1c-0.1,0.1-0.2,0.2-0.2,0.3L8.1,31l1.1,0.3l0.5-1.9H15l1.6,1.1l0.7-1
	l-1.8-1.2C15.4,28.2,15.3,28.2,15.2,28.2z"/>
<path class="st0" d="M20.7,28.3L19,29.5l0.7,1l1.6-1.1h5.3l0.5,1.9l1.1-0.3l-0.6-2.4c0-0.1-0.1-0.2-0.2-0.3
	c-0.1-0.1-0.2-0.1-0.4-0.1h-5.9C20.9,28.2,20.8,28.2,20.7,28.3L20.7,28.3z"/>
<path class="st0" d="M16.9,11.1c0-0.1,0-0.2-0.1-0.3c0-0.1-0.1-0.2-0.2-0.2l-2.4-1.8l-0.7,0.9l1.7,1.3l-1.7,1.3l0.7,0.9l2.4-1.8
	c0.1-0.1,0.1-0.1,0.2-0.2C16.9,11.3,16.9,11.2,16.9,11.1z"/>
<path class="st0" d="M21.9,13.3l0.7-0.9l-1.7-1.3l1.7-1.3l-0.7-0.9l-2.4,1.8c-0.1,0.1-0.1,0.1-0.2,0.2c0,0.1-0.1,0.2-0.1,0.3
	c0,0.1,0,0.2,0.1,0.3c0,0.1,0.1,0.2,0.2,0.2L21.9,13.3z"/>
<path class="st0" d="M19.5,18l0.7-1c-0.6-0.4-1.4-0.6-2.1-0.6S16.6,16.6,16,17l0.7,1c0.4-0.3,0.9-0.4,1.4-0.4
	C18.6,17.6,19.1,17.7,19.5,18L19.5,18z"/>
</svg>
