<?xml version="1.0" encoding="utf-8"?>
<!-- Generator: Adobe Illustrator 24.0.1, SVG Export Plug-In . SVG Version: 6.00 Build 0)  -->
<svg version="1.1" id="Слой_1" xmlns="http://www.w3.org/2000/svg" xmlns:xlink="http://www.w3.org/1999/xlink" x="0px" y="0px"
	 viewBox="0 0 9 11" style="enable-background:new 0 0 9 11;" xml:space="preserve">
<style type="text/css">
	.st0{fill:#848484;}
</style>
<path class="st0" d="M8,10.3H7.3l0-1.2c0-1.2-0.6-2.2-1.8-3C5.4,6,5.3,5.7,5.3,5.5S5.4,5,5.5,4.9c1.2-0.8,1.8-1.9,1.8-3V0.7H8
	c0.2,0,0.4-0.2,0.4-0.4S8.2,0,8,0H0.4C0.2,0,0,0.2,0,0.4c0,0.2,0.2,0.4,0.4,0.4H1v1.2c0,1.2,0.6,2.2,1.8,3C3,5,3.1,5.3,3.1,5.5
	C3.1,5.7,3,6,2.8,6.1C1.7,6.8,1,7.9,1,9.1v1.2H0.4c-0.2,0-0.4,0.2-0.4,0.4C0,10.8,0.2,11,0.4,11H8c0.2,0,0.4-0.2,0.4-0.4
	S8.2,10.3,8,10.3z M3.8,4.1c0-0.2,0.2-0.4,0.4-0.4s0.4,0.2,0.4,0.4v0.7c0,0.2-0.2,0.4-0.4,0.4S3.8,4.9,3.8,4.7V4.1z M3.9,6.4
	C4,6.4,4.1,6.3,4.2,6.3c0.1,0,0.2,0,0.3,0.1c0.1,0.1,0.1,0.2,0.1,0.3s0,0.2-0.1,0.3C4.4,7,4.3,7.1,4.2,7.1C4.1,7.1,4,7,3.9,7
	C3.8,6.9,3.8,6.8,3.8,6.7S3.8,6.5,3.9,6.4z M1.9,10.3c0.3-1.1,1.9-2.4,2.1-2.5c0.1-0.1,0.3-0.1,0.5,0c0.2,0.2,1.8,1.4,2.1,2.5H1.9z"
	/>
</svg>
