<?xml version="1.0" encoding="utf-8"?>
<!-- Generator: Adobe Illustrator 24.0.1, SVG Export Plug-In . SVG Version: 6.00 Build 0)  -->
<svg version="1.1" id="Слой_1" xmlns="http://www.w3.org/2000/svg" xmlns:xlink="http://www.w3.org/1999/xlink" x="0px" y="0px"
	 viewBox="0 0 39 36" style="enable-background:new 0 0 39 36;" xml:space="preserve">
<style type="text/css">
	.st0{fill-rule:evenodd;clip-rule:evenodd;}
</style>
<path class="st0" d="M19.6,0.1c0,0-0.3,0.8-1,2c-1.5,2.2-3.9,5.8-4,8.5c-0.1,1.7,0.8,4.6,0.8,4.6s-1.1-2.1-3.5-4.1
	c-1.7-1.4-4.3-2.1-6.9-3.1c-0.8-0.3-1.6-0.6-2.5-1c0,0,0.3,1.2,0.4,2.4c0.1,1.8,0.2,4.2,1.3,6.8C5.3,18.8,6,20,8.4,21.8
	c0,0-1.9-1.2-6.8,0.5c-0.4,0.1-0.9,0.3-1.4,0.3c0.2,0.4,0.4,0.8,0.6,1.2c0.7,1.9,2.6,5.3,7.8,6.3c0,0-2,1.4-2.7,2
	c-0.2,0.2-0.4,0.4-0.6,0.6c0,0,0.3,0.1,0.7,0.4c0.8,0.7,2.6,1.8,6.3,1.8c2.1,0,4.5-1,6.8-2.3l0.1,3.1h0.4V0.1z M19.6,0.1
	c0,0,0.3,0.8,1,2c1.5,2.2,3.9,5.8,4,8.5c0.1,1.7-0.8,4.6-0.8,4.6s1.1-2.1,3.5-4.1c1.7-1.4,4.3-2.1,6.9-3.1c0.8-0.3,1.6-0.6,2.5-1
	c0,0-0.3,1.2-0.4,2.4c-0.1,1.8-0.2,4.2-1.3,6.8c-1.1,2.5-1.8,3.7-4.2,5.5c0,0,1.9-1.2,6.8,0.5c0.4,0.1,0.9,0.3,1.4,0.3
	c-0.2,0.4-0.4,0.8-0.6,1.2c-0.7,1.9-2.6,5.3-7.8,6.3c0,0,2,1.4,2.7,2c0.2,0.2,0.4,0.4,0.6,0.6c0,0-0.3,0.1-0.7,0.4
	c-0.8,0.7-2.6,1.8-6.3,1.8c-2.1,0-4.5-1-6.8-2.3L20,35.7l-0.4,0"/>
</svg>
