<svg xmlns="http://www.w3.org/2000/svg" viewBox="0 0 26.78 34.58"><defs><style>.cls-1{fill:#8cc153;}</style></defs><title>Ресурс 1</title><g id="Слой_2" data-name="Слой 2"><g id="Слой_1-2" data-name="Слой 1"><path class="cls-1" d="M21.84,10.81s-1.39,3.67-4,2.87c-2.2-.66-2.08-3.65-1-6.12C18.62,3.28,13.37,0,13.37,0s.08,4.34-3.26,6A4.85,4.85,0,0,0,7.8,12.81a2.49,2.49,0,0,1-1.23,3.9c-2.92,1.18-4.63-2.46-4.63-2.46A13.39,13.39,0,0,0,13.29,34.58a6.18,6.18,0,0,1-6.08-6.17,10.16,10.16,0,0,1,1-4.24l.36-.82,1.81.53a6.79,6.79,0,0,1,2.16-3.73,7.8,7.8,0,0,1,2.23-1.43L16,18.26l.13,1.31A8,8,0,0,0,17.14,23c.52.85,1,1.55,1.56,2.36a5.37,5.37,0,0,1,.87,3.08,6.18,6.18,0,0,1-6.18,6.18h0a13.39,13.39,0,0,0,8.45-23.77Z"/><path class="cls-1" d="M17.54,28.4a3.3,3.3,0,0,0-.5-1.92c-.5-.72-1-1.52-1.62-2.46a9.24,9.24,0,0,1-1.11-2.76,5,5,0,0,0-2.1,3.95l0,1.33-2.5-.73a7.74,7.74,0,0,0-.46,2.58h0a4.16,4.16,0,1,0,8.31,0Z"/></g></g></svg>
