<?xml version="1.0" encoding="utf-8"?>
<!-- Generator: Adobe Illustrator 24.0.1, SVG Export Plug-In . SVG Version: 6.00 Build 0)  -->
<svg version="1.1" id="Слой_1" xmlns="http://www.w3.org/2000/svg" xmlns:xlink="http://www.w3.org/1999/xlink" x="0px" y="0px"
	 viewBox="0 0 26 26" style="enable-background:new 0 0 26 26;" xml:space="preserve">
<style type="text/css">
	.st0{fill:#303030;}
</style>
<path class="st0" d="M13,0C5.8,0,0,5.8,0,13c0,7.2,5.8,13,13,13c7.2,0,13-5.8,13-13C26,5.8,20.2,0,13,0z M15.7,20.1
	c-0.7,0.3-1.2,0.5-1.6,0.6c-0.4,0.1-0.9,0.2-1.4,0.2c-0.8,0-1.4-0.2-1.9-0.6c-0.4-0.4-0.7-0.9-0.7-1.5c0-0.2,0-0.5,0-0.7
	c0-0.2,0.1-0.5,0.2-0.8l0.8-3c0.1-0.3,0.1-0.6,0.2-0.8c0.1-0.3,0.1-0.5,0.1-0.7c0-0.4-0.1-0.6-0.2-0.8c-0.2-0.1-0.5-0.2-0.9-0.2
	c-0.2,0-0.4,0-0.7,0.1c-0.2,0.1-0.4,0.1-0.6,0.2l0.2-0.9c0.5-0.2,1.1-0.4,1.6-0.6c0.5-0.2,1-0.2,1.4-0.2c0.8,0,1.4,0.2,1.9,0.6
	c0.4,0.4,0.7,0.9,0.7,1.5c0,0.1,0,0.4,0,0.7c0,0.3-0.1,0.6-0.2,0.9L13.8,17c-0.1,0.2-0.1,0.5-0.2,0.8c-0.1,0.3-0.1,0.5-0.1,0.7
	c0,0.4,0.1,0.7,0.3,0.8c0.2,0.1,0.5,0.2,0.9,0.2c0.2,0,0.4,0,0.7-0.1c0.3-0.1,0.4-0.1,0.6-0.2L15.7,20.1z M15.6,8.2
	c-0.4,0.4-0.9,0.5-1.4,0.5c-0.5,0-1-0.2-1.4-0.5c-0.4-0.4-0.6-0.8-0.6-1.3c0-0.5,0.2-1,0.6-1.3C13.1,5.2,13.6,5,14.2,5
	c0.5,0,1,0.2,1.4,0.5c0.4,0.4,0.6,0.8,0.6,1.3C16.1,7.4,15.9,7.8,15.6,8.2z"/>
</svg>
