<?xml version="1.0" encoding="utf-8"?>
<!-- Generator: Adobe Illustrator 24.0.1, SVG Export Plug-In . SVG Version: 6.00 Build 0)  -->
<svg version="1.1" id="Слой_1" xmlns="http://www.w3.org/2000/svg" xmlns:xlink="http://www.w3.org/1999/xlink" x="0px" y="0px"
	 viewBox="0 0 35 35" style="enable-background:new 0 0 35 35;" xml:space="preserve">
<style type="text/css">
	.st0{fill:#ABA2E0;}
</style>
<path class="st0" d="M34.1,1.8c-0.7-1.1-2.3-1.1-3.1-0.1c-3.5,4.5-2.3,3.1-3.9,4.5l1-2.5c0.5-1.2-0.4-2.5-1.6-2.6
	c-1.3-0.1-2.3,1.1-2,2.3l1,4.4c-0.6,0.6-1.2,1.3-1.8,2l0.6-2.1c0.3-1.3-0.6-2.5-1.9-2.4c-1.3,0.1-2.2,1.3-1.7,2.6l1.5,4.2
	c-0.6,0.8-1,1.6-1.5,2.5c0.3-2.2,0.2-2.1,0.2-2.2c0-1.2-1.1-2.1-2.3-1.9c-1.8,0.3-2,2.7-1,2.6c0.3,0,0.5-0.3,0.4-0.6
	c-0.1-0.5,0.3-1,0.9-1c0.5,0,1,0.5,0.9,1l-0.3,3l-0.7-1.3c-0.1-0.2-0.4-0.3-0.7-0.2c-0.2,0.1-0.3,0.4-0.2,0.7l1.4,2.6
	c-2.4,5.4-3.4,11.2-2.8,17.3c0,0.3,0.2,0.5,0.5,0.5c0.3,0,0.5-0.3,0.5-0.6c-0.5-5.9,0.4-11.5,2.7-16.7c4.6,0.3,4.3,0.3,4.4,0.3
	c1.2,0,2.2-1.1,1.9-2.4c-0.3-1.3-1.7-1.9-2.8-1.2l-2.6,1.5c0.5-1.1,1.2-2.2,1.9-3.3c4.6,1,4.4,1,4.7,1c1.1,0,2-0.9,1.9-2.1
	c-0.1-1.3-1.4-2.1-2.6-1.6L23.8,11c0.7-0.9,1.4-1.7,2.2-2.5c4.5,1.5,4.3,1.5,4.7,1.5c1.9,0,2.7-2.5,1-3.6c-0.2-0.1-0.5-0.1-0.7,0.2
	c-0.1,0.2-0.1,0.5,0.2,0.7c0.3,0.2,0.4,0.5,0.4,0.8c0,0.6-0.6,1-1.2,0.8l-2.8-1l2-0.6C30,7.3,30.1,7.1,30,6.8
	c-0.1-0.3-0.4-0.4-0.6-0.4l-1.7,0.5c0.3-0.3,0.7-0.6,1-0.8l4.3-1.4C34.3,4.3,34.8,2.8,34.1,1.8L34.1,1.8z M23.9,15.3
	c0.9-0.5,1.8,0.6,1.2,1.4c-0.2,0.2-0.5,0.3-0.8,0.3l-3-0.2L23.9,15.3z M23.1,7.4l-0.8,2.9l-1-2.8c-0.3-1,0.9-1.7,1.6-0.9
	C23.1,6.8,23.2,7.1,23.1,7.4L23.1,7.4z M27,10.8c0.3-0.1,0.6-0.1,0.8,0.1c0.9,0.5,0.3,1.9-0.7,1.7L24.2,12L27,10.8z M26,6.1
	l-0.7-2.9c-0.1-0.3,0-0.6,0.2-0.8c0.7-0.8,1.9,0,1.5,0.9L26,6.1z M33.3,3.2c-0.1,0.3-0.3,0.5-0.6,0.6l-2.8,0.9l1.8-2.3
	C32.4,1.5,33.7,2.2,33.3,3.2z"/>
<path class="st0" d="M13,5.5c-0.6,0.1-1.1,0.5-1.3,1.1c-2.3,5.2-1.5,3.6-2.7,5.3l0.3-2.6c0.2-1.3-1-2.4-2.2-2.1
	c-1.3,0.2-2,1.6-1.4,2.8l2,4c-0.5,0.8-0.9,1.6-1.2,2.4l0-2.2c0-0.6-0.3-1.2-0.8-1.6c-1-0.8-2.5-0.3-3,0.9C2.6,14,2.6,14.6,3,15.1
	l2.5,3.7c-0.3,0.9-0.6,1.9-0.9,2.8l-0.3-2c-0.2-1.3-1.5-2-2.7-1.5c-1.2,0.5-1.5,2.1-0.6,3l3,3.4c-0.5,3-0.6,6.3-0.3,9.5
	c0,0.3,0.2,0.5,0.5,0.5c0.3,0,0.5-0.3,0.5-0.5c-0.2-2.3-0.3-5.5,0.3-9.1l4.2-0.8c1.3-0.2,2-1.6,1.4-2.8c-0.6-1.2-2.1-1.4-3.1-0.5
	l-2.2,2.1c0.3-1.2,0.6-2.4,1-3.6l4.3-0.2c1,0,1.9-0.9,1.9-1.9c0-0.2,0-0.4-0.1-0.6c-0.6-1.7-3.1-1.5-2.8-0.5
	c0.1,0.3,0.4,0.4,0.6,0.3c0.6-0.2,1.2,0.2,1.2,0.9c0,0.5-0.4,0.9-0.9,0.9l-3,0.1l1.1-0.8c0.2-0.2,0.3-0.5,0.1-0.7
	c-0.2-0.2-0.5-0.3-0.7-0.1l-1.1,0.8c0.4-1,0.9-2,1.5-3c4.7,0.4,4.4,0.3,4.5,0.3c1.2,0,2.1-1.1,1.9-2.3c-0.3-1.3-1.7-1.9-2.8-1.2
	l-2.3,1.3c0.2-0.4,0.5-0.7,0.8-1L14.5,9c0.5-0.3,0.9-0.9,0.9-1.5C15.5,6.3,14.3,5.2,13,5.5L13,5.5z M1.7,20.5
	c-0.4-0.5-0.3-1.2,0.3-1.4c0.6-0.3,1.2,0.1,1.3,0.7l0.4,2.9L1.7,20.5z M8.2,21.5c0.2-0.2,0.4-0.3,0.6-0.3c1.1,0,1.3,1.6,0.2,1.8
	l-2.9,0.5L8.2,21.5z M5.5,17.1l-1.6-2.5c-0.6-0.9,0.5-1.8,1.3-1.2c0.2,0.2,0.4,0.4,0.4,0.7L5.5,17.1z M8.3,9.2l-0.4,3L6.6,9.5
	C6.3,8.9,6.7,8.1,7.4,8.1C8,8.1,8.4,8.6,8.3,9.2L8.3,9.2z M12.6,12.1c0.9-0.5,1.8,0.6,1.1,1.4c-0.2,0.2-0.5,0.3-0.8,0.3l-3-0.2
	L12.6,12.1z M13.9,8.2l-2.5,1.6L12.6,7c0.2-0.3,0.5-0.5,0.8-0.5C14.4,6.5,14.7,7.7,13.9,8.2z"/>
</svg>
