<?xml version="1.0" encoding="utf-8"?>
<!-- Generator: Adobe Illustrator 24.0.1, SVG Export Plug-In . SVG Version: 6.00 Build 0)  -->
<svg version="1.1" id="Слой_1" xmlns="http://www.w3.org/2000/svg" xmlns:xlink="http://www.w3.org/1999/xlink" x="0px" y="0px"
	 viewBox="0 0 29 29" style="enable-background:new 0 0 29 29;" xml:space="preserve">
<style type="text/css">
	.st0{fill:#FDE616;}
</style>
<path class="st0" d="M20.6,19.6c2.1-2.4,3.1-5.5,2.9-8.6l-11,0.4L20.6,19.6z"/>
<path class="st0" d="M3.1,20.1l0.5,0.5C5.2,22,7.2,23,9.2,23.4l0.4-9.8L3.1,20.1z"/>
<path class="st0" d="M10.9,23.6c3.1,0.2,6.2-0.7,8.6-2.8l-8.2-8.2L10.9,23.6z"/>
<path class="st0" d="M20.4,3.7l-0.5-0.5l-6.5,6.5l9.8-0.4C22.8,7.3,21.9,5.4,20.4,3.7z"/>
<path class="st0" d="M23.5,0.8L23,0.2l-1.8,1.8l0.5,0.6c2.4,2.6,3.6,6,3.6,9.5c-0.1,3.5-1.5,6.8-3.9,9.3c-2.5,2.5-5.8,3.9-9.3,3.9
	c-0.1,0-0.2,0-0.2,0c-3.4,0-6.7-1.3-9.2-3.6l-0.6-0.5l-1.8,1.8l0.6,0.6c3.1,3.1,7.2,4.8,11.5,4.8c0,0,0.1,0,0.1,0
	c4.3,0,8.3-1.7,11.4-4.7c3.1-3.1,4.7-7.1,4.7-11.5C28.3,8,26.6,3.9,23.5,0.8L23.5,0.8z"/>
</svg>
