<?xml version="1.0" encoding="utf-8"?>
<!-- Generator: Adobe Illustrator 24.0.1, SVG Export Plug-In . SVG Version: 6.00 Build 0)  -->
<svg version="1.1" id="Слой_1" xmlns="http://www.w3.org/2000/svg" xmlns:xlink="http://www.w3.org/1999/xlink" x="0px" y="0px"
	 viewBox="0 0 32 33" style="enable-background:new 0 0 32 33;" xml:space="preserve">
<style type="text/css">
	.st0{fill:#C7DB5D;}
</style>
<path class="st0" d="M9.7,17.4c0,0-0.1,0-0.1,0c0,0,0,0,0,0c0,0,0,0,0,0l-3.6,4.1l-0.8,0.9l-0.8,0.9c-0.2,0.2-0.2,0.4-0.1,0.6
	c0,0,0,0,0,0c0.4,0.9,1,1.6,1.6,2.3c0.1,0.1,0.3,0.3,0.4,0.4c0.1,0.1,0.3,0.2,0.4,0.3c0.1,0.1,0.3,0.2,0.4,0.3
	c0.1,0.1,0.3,0.2,0.4,0.3c0.2,0.1,0.3,0.1,0.5,0.2c0.2,0.1,0.3,0.1,0.5,0.2C8.6,27.9,8.8,28,8.9,28c0.4,0.1,0.9,0.1,1.3,0.1
	c0.1,0,0.1,0,0.1-0.1c0,0,0.1-0.1,0.1-0.2L9.7,17.6L9.7,17.4z"/>
<path class="st0" d="M3.9,13.8l3,0.7l1.8,0.4c0-0.1,0.1-0.1,0.1-0.2c0,0,0,0,0-0.1C8.9,14.6,9,14.6,9,14.5L6.3,7.1
	C5.2,9,4.3,11,3.5,13c-0.1,0.2,0,0.3,0,0.5C3.6,13.6,3.8,13.7,3.9,13.8z"/>
<path class="st0" d="M4.2,21.6l3-3.4l1.4-1.6c0,0,0,0,0-0.1c0-0.1,0-0.1-0.1-0.2c0-0.1,0-0.1-0.1-0.2c0-0.1,0-0.1,0-0.2
	c0,0,0-0.1,0-0.1l-4.7-1.1v0l0,0c-0.2,0-0.3,0-0.5,0.1C3,15,3,15.2,2.9,15.3c-0.3,2-0.2,4.1,0.3,6c0.1,0.2,0.2,0.4,0.4,0.4
	C3.9,21.8,4.1,21.8,4.2,21.6z"/>
<path class="st0" d="M11.3,14.6C11.3,14.6,11.3,14.7,11.3,14.6C11.3,14.7,11.3,14.7,11.3,14.6C11.3,14.7,11.3,14.7,11.3,14.6
	l3.3-1.3l5-2.1v0l0.6-0.2c0.2-0.1,0.4-0.4,0.3-0.6c-0.2-0.9-0.5-1.8-0.8-2.7c-0.5-1.3-1.4-2.4-2.4-3.3c-0.1-0.1-0.3-0.2-0.5-0.1
	c-0.2,0-0.3,0.1-0.4,0.3l-3.1,6.2L11.3,14.6z"/>
<path class="st0" d="M10.1,14.1L10.1,14.1C10.1,14.1,10.2,14.1,10.1,14.1l0.1,0c0,0,0.1,0,0.1,0L15.4,4v0l0-0.1
	c0.1-0.2,0.1-0.3,0-0.5c-0.1-0.1-0.2-0.3-0.3-0.3c-0.2-0.1-0.3-0.1-0.5-0.1c-0.4-0.1-0.9-0.1-1.3-0.1c-2,0-4.1,1-5.9,2.8
	C7.2,5.9,7.2,6.1,7.3,6.3L10.1,14.1z"/>
<path class="st0" d="M19.1,20.9c0.5-1.1,0.9-2.3,1.2-3.5c0.3-1.3,0.5-2.7,0.5-4.1c0-0.2,0-0.4,0-0.6c0-0.2-0.1-0.4-0.3-0.5
	c-0.2-0.1-0.3-0.1-0.5,0l-8.2,3.4v0.1c0,0.1,0,0.2,0,0.3c0,0,0,0.1,0,0.1c0,0,0,0.1,0,0.1l6.6,4.9c0.1,0.1,0.3,0.1,0.5,0.1
	c0.1,0,0.1,0,0.2-0.1C19,21.1,19.1,21,19.1,20.9z"/>
<path class="st0" d="M22.5,18c0.1-0.2,0.1-0.5,0.2-0.7c0.1-0.5,0.2-0.9,0.2-1.4c0,0,0-0.1,0-0.1c0.4-3,0-6.1-1.2-9v0
	c-1.4-3.2-3.7-5.3-6.6-5.9c-0.6-0.1-1.2-0.2-1.8-0.2c0,0,0,0-0.1,0c-0.2,0-0.5,0-0.7,0c-0.1,0-0.2,0-0.3,0c-0.3,0-0.6,0.1-0.8,0.2
	c0,0,0,0,0,0C11,1,10.8,1,10.5,1.1c0,0,0,0,0,0c-0.1,0-0.1,0.1-0.2,0.1l-0.1,0C6,2.8,2.4,7.3,1.1,13.1c-0.9,3.7-0.6,7.6,0.8,11.2
	c0.8,2,2.2,3.6,3.9,4.8c0.1,0,0.2,0,0.3,0.1c0.1,0.1,0.2,0.2,0.4,0.3c0.6,0.3,1.3,0.6,2,0.7C14.4,31.5,20.7,26,22.5,18z M12.6,28.9
	C12.4,29,12.3,29,12.1,29c-0.3,0-0.6-0.1-0.8-0.2c0,0,0,0.1-0.1,0.1c-0.2,0.3-0.6,0.4-0.9,0.4c-0.5,0-1-0.1-1.6-0.2
	c-0.2,0-0.4-0.1-0.6-0.2c-0.2-0.1-0.4-0.1-0.6-0.2c-0.2-0.1-0.4-0.2-0.5-0.3c-0.2-0.1-0.4-0.2-0.5-0.3C6.3,28.1,6.1,28,6,27.8
	c-0.2-0.1-0.3-0.3-0.5-0.4C5.3,27.3,5.2,27.2,5,27c-0.7-0.8-1.4-1.6-1.8-2.6c0,0,0,0,0,0c-0.3-0.5-0.3-1.1,0-1.6
	c-0.5-0.2-0.9-0.6-1.1-1.2c-0.5-2.1-0.6-4.3-0.3-6.5c0.1-0.5,0.3-0.9,0.7-1.2c0,0,0,0,0,0c-0.2-0.4-0.3-0.9-0.1-1.4
	c0.8-2.1,1.8-4.2,2.9-6.2C5.6,6.2,5.8,6,6.1,6c0-0.4,0.2-0.7,0.5-1c2-2.1,4.4-3.2,6.7-3.2c0.5,0,1,0.1,1.5,0.2
	c0.2,0,0.4,0.1,0.6,0.2c0.5,0.1,0.8,0.5,1,0.9c0,0,0,0.1,0,0.1c0,0,0,0,0,0c0.5-0.1,1,0,1.4,0.4c1.2,1,2.1,2.3,2.7,3.8
	c0.4,0.9,0.7,1.9,0.9,2.9c0.1,0.5,0,1-0.3,1.4c0.4,0.3,0.6,0.8,0.6,1.2c0.1,1.7-0.1,3.3-0.5,4.9c-0.3,1.3-0.7,2.5-1.3,3.7
	c-0.2,0.4-0.5,0.7-1,0.9c0,0.1,0.1,0.3,0.1,0.4c0,0.3-0.1,0.6-0.3,0.9C17.2,26.3,15,28.2,12.6,28.9z"/>
<path class="st0" d="M10.4,15.3c-0.1,0-0.2-0.1-0.2-0.1c-0.1,0-0.1,0-0.2,0c-0.2,0.1-0.3,0.2-0.4,0.4c0,0,0,0,0,0c0,0,0,0.1,0,0.1
	c0,0.3,0.3,0.6,0.6,0.6c0.2,0,0.3-0.1,0.4-0.2c0.1-0.1,0.1-0.2,0.1-0.3c0-0.1,0-0.1,0-0.2C10.6,15.5,10.5,15.4,10.4,15.3z"/>
<path class="st0" d="M31.9,17.8c-0.2-2.9-1.3-5.7-2.9-8c-1.8-2.5-4-4.6-6.6-6.2c-0.8-0.5-1.7-1-2.6-1.4c1.3,1.2,2.2,2.6,2.9,4.2
	c1.5,3.8,1.9,7.9,0.9,11.9c-1.6,7.2-6.6,12.4-12,13.2c0.7,0.2,1.5,0.3,2.2,0.4c6.1,1,11.8-1.1,15.1-5.4c1.8-2.3,2.8-5,2.9-7.9
	C31.9,18.3,31.9,18,31.9,17.8z"/>
<path class="st0" d="M17.9,22.2l-6.8-5c0,0,0,0-0.1,0c0,0-0.1,0.1-0.1,0.1c0,0-0.1,0-0.1,0l0.7,10c0,0.2,0.1,0.3,0.2,0.4
	c0.1,0.1,0.3,0.1,0.5,0.1c2.2-0.7,4.2-2.4,5.8-4.8C18.2,22.7,18.1,22.4,17.9,22.2z"/>
</svg>
