<?xml version="1.0" encoding="utf-8"?>
<!-- Generator: Adobe Illustrator 24.0.1, SVG Export Plug-In . SVG Version: 6.00 Build 0)  -->
<svg version="1.1" id="Слой_1" xmlns="http://www.w3.org/2000/svg" xmlns:xlink="http://www.w3.org/1999/xlink" x="0px" y="0px"
	 viewBox="0 0 16 16" style="enable-background:new 0 0 16 16;" xml:space="preserve">
<style type="text/css">
	.st0{fill:#8CC153;}
</style>
<path class="st0" d="M9.8,6.2C9.6,6,9.4,5.9,9.1,5.7c-0.6-0.4-1.3-0.6-2-0.6c-1,0-1.9,0.4-2.6,1.1L1.1,9.6C0.4,10.3,0,11.3,0,12.3
	C0,14.3,1.7,16,3.7,16c1,0,1.9-0.4,2.6-1.1l2.8-2.8c0.1-0.1,0.1-0.1,0.1-0.2c0-0.1-0.1-0.3-0.3-0.3H8.9c-0.6,0-1.2-0.1-1.7-0.3
	c-0.1,0-0.2,0-0.3,0.1l-2,2c-0.6,0.6-1.6,0.6-2.3,0c-0.6-0.6-0.6-1.6,0-2.3L6,7.7c0.6-0.6,1.6-0.6,2.3,0c0.4,0.4,1.1,0.4,1.5,0
	c0.2-0.2,0.3-0.4,0.3-0.7C10.1,6.8,10,6.5,9.8,6.2z"/>
<path class="st0" d="M14.9,1.1c-1.5-1.5-3.8-1.5-5.3,0L6.8,3.9C6.8,4,6.7,4.1,6.8,4.2c0,0.1,0.1,0.2,0.3,0.2h0.1
	c0.6,0,1.2,0.1,1.7,0.3c0.1,0,0.2,0,0.3-0.1l2-2c0.6-0.6,1.6-0.6,2.3,0c0.6,0.6,0.6,1.6,0,2.3l-2.5,2.5l0,0L10,8.3
	c-0.6,0.6-1.6,0.6-2.3,0c-0.4-0.4-1.1-0.4-1.5,0C6.1,8.5,5.9,8.7,5.9,9c0,0.3,0.1,0.6,0.3,0.8c0.3,0.3,0.7,0.6,1.1,0.7
	c0.1,0,0.1,0,0.2,0.1c0.1,0,0.1,0,0.2,0.1c0.1,0,0.1,0,0.2,0.1l0.2,0c0.1,0,0.2,0,0.3,0.1c0.1,0,0.3,0,0.4,0h0.2h0l0.2,0
	c0.1,0,0.1,0,0.2,0h0.1l0.2,0l0.1,0l0.2,0h0c0.7-0.2,1.3-0.5,1.7-1l3.4-3.4C16.4,4.9,16.4,2.6,14.9,1.1z"/>
</svg>
