<?xml version="1.0" encoding="utf-8"?>
<!-- Generator: Adobe Illustrator 24.0.1, SVG Export Plug-In . SVG Version: 6.00 Build 0)  -->
<svg version="1.1" id="Слой_1" xmlns="http://www.w3.org/2000/svg" xmlns:xlink="http://www.w3.org/1999/xlink" x="0px" y="0px"
	 viewBox="0 0 8 11" style="enable-background:new 0 0 8 11;" xml:space="preserve">
<style type="text/css">
	.st0{fill:#EA3B3B;}
</style>
<path class="st0" d="M7.8,4H7.1V3.1C7.1,1.4,5.7,0,4,0S0.9,1.4,0.9,3.1V4H0.2C0.1,4,0,4.1,0,4.2v5.6c0,0.5,0.4,0.9,0.9,0.9h6.2
	c0.5,0,0.9-0.4,0.9-0.9V4.2C8,4.1,7.9,4,7.8,4z M4.7,8.6c0,0.1,0,0.1-0.1,0.2c0,0-0.1,0.1-0.2,0.1H3.6c-0.1,0-0.1,0-0.2-0.1
	c0,0-0.1-0.1-0.1-0.2l0.1-1.3C3.2,7.2,3.1,7,3.1,6.7c0-0.5,0.4-0.9,0.9-0.9s0.9,0.4,0.9,0.9c0,0.3-0.1,0.5-0.4,0.7L4.7,8.6z M5.8,4
	H2.2V3.1c0-1,0.8-1.8,1.8-1.8s1.8,0.8,1.8,1.8V4z"/>
</svg>
