<?xml version="1.0" encoding="utf-8"?>
<!-- Generator: Adobe Illustrator 24.0.1, SVG Export Plug-In . SVG Version: 6.00 Build 0)  -->
<svg version="1.1" id="Слой_1" xmlns="http://www.w3.org/2000/svg" xmlns:xlink="http://www.w3.org/1999/xlink" x="0px" y="0px"
	 viewBox="0 0 36 25" style="enable-background:new 0 0 36 25;" xml:space="preserve">
<path d="M34,8.1c0,0.1,0,0.2,0,0.3l-2.1,8.7c-0.1,0.4-0.5,0.7-0.9,0.8l-12.8,0.1c0,0,0,0,0,0H5.4c-0.4,0-0.8-0.3-0.9-0.8L2.3,8.4
	c0-0.1,0-0.2,0-0.3c-0.8-0.3-1.4-1.1-1.4-2C0.9,5,1.8,4,2.9,4s2,0.9,2,2.1c0,0.6-0.3,1.2-0.7,1.6l2.7,2.8c0.7,0.7,1.6,1.1,2.6,1.1
	c1.1,0,2.2-0.6,2.9-1.5l4.4-5.9c-0.4-0.4-0.6-0.9-0.6-1.5c0-1.1,0.9-2.1,2-2.1c1.1,0,2,0.9,2,2.1c0,0.6-0.2,1.1-0.6,1.4c0,0,0,0,0,0
	l4.3,6c0.7,0.9,1.8,1.5,2.9,1.5c1,0,1.9-0.4,2.6-1.1l2.7-2.7c-0.5-0.4-0.8-1-0.8-1.6c0-1.1,0.9-2.1,2-2.1s2,0.9,2,2.1
	C35.4,7,34.8,7.8,34,8.1z M31.7,21c0-0.5-0.4-1-1-1h-25c-0.5,0-1,0.4-1,1v2.4c0,0.5,0.4,1,1,1h25c0.5,0,1-0.4,1-1V21z"/>
</svg>
