<?xml version="1.0" encoding="utf-8"?>
<!-- Generator: Adobe Illustrator 24.0.1, SVG Export Plug-In . SVG Version: 6.00 Build 0)  -->
<svg version="1.1" id="Слой_1" xmlns="http://www.w3.org/2000/svg" xmlns:xlink="http://www.w3.org/1999/xlink" x="0px" y="0px"
	 viewBox="0 0 28 36" style="enable-background:new 0 0 28 36;" xml:space="preserve">
<style type="text/css">
	.st0{fill:#8CC153;}
</style>
<path class="st0" d="M23.8,28h-5.3v-1.6c1.5-0.5,2.9-1.4,3.8-2.7c1-1.3,1.6-2.9,1.7-4.5c1.1-0.2,2-1.3,2-2.5c0-1.2-0.8-2.2-1.8-2.5
	l0,0c1.3-1.7,1.7-4,1.1-6c0-0.1,0-0.1-0.1-0.2c0-0.1,0-0.1-0.1-0.2c-0.5-1.5-1.4-2.8-2.7-3.7c-1.2-0.8-2.6-1.3-4-1.3
	c-2.7-2.3-4.9-2.1-6.3-1.6c-1.1,0.5-2,1.3-2.4,1.9c-0.2,0.3-0.5,0.6-0.6,1c-0.5,0-0.9,0-1.4,0.1c-2,0.4-3.6,1.9-4.3,3.9l0,0.1
	c-0.4,1.2-0.4,1.9,0.1,3.1c0,0,0,0,0,0l1.2,2.7c-1.1,0.2-2,1.3-2,2.5c0,1.4,1,2.5,2.3,2.6c0.2,3.2,2.3,6.1,5.3,7.1V28H5.1
	C2.8,28,1,29.9,1,32.3V35c0,0.4,0.3,0.7,0.7,0.7h9.9c0.4,0,0.7-0.3,0.7-0.7s-0.3-0.7-0.7-0.7H2.3v-2.1c0-1.6,1.2-2.9,2.8-2.9h5.3
	v1.1c0,1,0.8,1.9,1.8,1.9c0.3,0,0.6-0.1,0.9-0.2c0.3,0.5,0.8,0.7,1.4,0.7c1,0,1.8-0.8,1.8-1.9v-1.1c0.2,0,0.3,0.1,0.5,0.1
	c0.5,0,1-0.2,1.3-0.6h5.7c1.5,0,2.8,1.3,2.8,2.9v2.1h-9.2c-0.4,0-0.7,0.3-0.7,0.7s0.3,0.7,0.7,0.7h9.9c0.4,0,0.7-0.3,0.7-0.7v-2.8
	C27.9,29.9,26.1,28,23.8,28z M11.6,23c0.1-1.1,1.4-2,2.8-2s2.7,0.9,2.8,2H11.6z M4.7,8.7L4.7,8.7C5.2,7,6.5,5.9,8,5.6
	c0.5-0.1,0.9-0.1,1.4,0c0.2,0,0.4,0,0.5-0.1c0.1-0.1,0.2-0.2,0.2-0.4c0.1-0.4,1.2-2.2,3-2.7c1.4-0.4,3,0.2,4.7,1.7
	c0.1,0.1,0.3,0.2,0.4,0.2c2.6-0.1,4.9,1.5,5.7,4c0,0.1,0,0.1,0.1,0.2v0c0,0.1,0,0.1,0.1,0.2c0.5,1.6,0.1,3.4-0.9,4.8l-0.1,0.1
	c-1.2-0.2-3.2-1-6.8-3.9c-0.1-0.1-0.2-0.1-0.2-0.2c-0.5-0.4-0.8-0.1-0.9,0C15,9.5,15,9.8,15.1,10l0.2,0.6c0.2,0.5-0.1,0.8-0.2,0.9
	c-0.1,0.1-0.4,0.3-0.8,0.2c-4.2-1.8-4.8-2.4-4.8-2.5C9.3,8.9,9.1,8.8,8.9,8.8c-0.2,0-0.4,0.1-0.6,0.3c-0.6,0.8-0.6,1.8-0.7,2.7
	c-0.1,1.3-0.2,1.7-0.8,1.8c-0.3,0.1-0.5,0.1-0.6,0.1c0,0-0.1,0-0.1,0l-1.3-2.9C4.5,10,4.5,9.6,4.7,8.7L4.7,8.7z M6.4,18.6L6.4,18.6
	c0-0.4-0.3-0.7-0.7-0.7H5.3c-0.7,0-1.2-0.6-1.2-1.2c0-0.7,0.5-1.2,1.2-1.2h0.4c0.2,0,0.4-0.1,0.5-0.3c0.1,0,0.1,0,0.2,0
	c0.2,0,0.4-0.1,0.7-0.1c1.6-0.4,1.7-1.9,1.8-3c0-0.5,0.1-0.9,0.2-1.3c0.7,0.5,2,1.2,4.6,2.3c0.8,0.3,1.6,0.2,2.2-0.4
	c0.3-0.3,0.5-0.7,0.6-1.1c2.5,2,4.6,3.1,6.2,3.4v0c0,0.4,0.3,0.7,0.7,0.7h0.2c0.7,0,1.2,0.6,1.2,1.2c0,0.7-0.5,1.2-1.2,1.2h-0.2
	c-0.4,0-0.7,0.3-0.7,0.7v0.1c0,2.9-1.7,5.4-4.3,6.4v-1.1c0-0.2,0.1-0.4,0.1-0.6c0-2-1.9-3.6-4.1-3.6c-2.3,0-4.1,1.6-4.1,3.6
	c0,0.2,0,0.5,0.1,0.7v0.9C8,23.9,6.4,21.4,6.4,18.6z M16.7,28.6c-0.3,0-0.5-0.2-0.5-0.5c0-0.4-0.3-0.7-0.7-0.7
	c-0.4,0-0.7,0.3-0.7,0.7V31c0,0.3-0.2,0.5-0.5,0.5S14,31.3,14,31v-0.5c0-0.4-0.3-0.7-0.7-0.7s-0.7,0.3-0.7,0.7
	c0,0.3-0.2,0.5-0.5,0.5c-0.3,0-0.5-0.2-0.5-0.5v-6.1h5.5v3.7C17.2,28.4,17,28.6,16.7,28.6L16.7,28.6z"/>
<path class="st0" d="M14.4,35.7c-0.3,0-0.5-0.2-0.6-0.5c-0.1-0.3,0-0.6,0.2-0.8c0.2-0.2,0.5-0.2,0.8,0c0.2,0.1,0.3,0.4,0.3,0.7
	C15,35.5,14.8,35.7,14.4,35.7z"/>
<path class="st0" d="M18.7,19.1c-0.2,0-0.3-0.1-0.5-0.2l-1.1-1.1c-0.3-0.3-0.3-0.7,0-1c0.3-0.3,0.7-0.3,0.9,0l0.6,0.6l0.6-0.6
	c0.3-0.3,0.7-0.3,0.9,0c0.3,0.3,0.3,0.7,0,1l-1.1,1.1C19,19,18.8,19.1,18.7,19.1L18.7,19.1z"/>
<path class="st0" d="M10.2,19.1c-0.2,0-0.3-0.1-0.5-0.2l-1.1-1.1c-0.3-0.3-0.3-0.7,0-1c0.3-0.3,0.7-0.3,0.9,0l0.6,0.6l0.6-0.6
	c0.3-0.3,0.7-0.3,0.9,0c0.3,0.3,0.3,0.7,0,1l-1.1,1.1C10.5,19,10.3,19.1,10.2,19.1z"/>
</svg>
