<?xml version="1.0" encoding="utf-8"?>
<!-- Generator: Adobe Illustrator 24.0.1, SVG Export Plug-In . SVG Version: 6.00 Build 0)  -->
<svg version="1.1" id="Слой_1" xmlns="http://www.w3.org/2000/svg" xmlns:xlink="http://www.w3.org/1999/xlink" x="0px" y="0px"
	 viewBox="0 0 29 31" style="enable-background:new 0 0 29 31;" xml:space="preserve">
<style type="text/css">
	.st0{fill:#FFA582;}
</style>
<path class="st0" d="M27.1,11.8c-0.9-2.3-2.7-4.1-4.8-5.2c1.4-3.8,0.8-4.9,0.2-5.5c-0.6-0.6-1.6-0.7-3.1-0.5c-1.1,0.2-2.2,0.6-3,0.8
	c-0.8,0.3-1.4,0.7-1.9,1.3C14,2,13.3,1.2,12.3,0.6c-0.4-0.3-1-0.1-1.3,0.3c-0.3,0.4-0.1,1,0.3,1.3c1.8,1.1,2.2,2.5,2.2,3.6
	c-0.2-0.1-0.4-0.1-0.6-0.2c-0.1,0-0.2,0-0.3-0.1C7.8,4.7,3.1,7.4,1.3,11.8c-2,5-0.8,10.6,3.1,14.4c2.6,2.5,6.1,3.9,9.8,3.9
	c3.7,0,7.2-1.4,9.8-3.9C27.9,22.4,29.1,16.8,27.1,11.8L27.1,11.8z M17.4,13.2c-0.1,0.4-0.5,0.7-0.9,0.7c-0.1,0-0.1,0-0.2,0
	c-0.5-0.1-0.9-0.6-0.7-1.1c0.4-1.9-0.8-3.4-0.8-3.4c-0.3-0.4-0.2-1,0.2-1.3c0.4-0.3,1-0.2,1.3,0.2C16.3,8.4,18,10.5,17.4,13.2
	L17.4,13.2z M20.5,5.9c-1.5-0.5-3.1-0.6-4.8-0.3c0,0-0.1,0-0.1,0l0,0c-0.1-0.4,0-0.8,0.2-1.2c0.2-0.6,0.7-1,1.3-1.2
	c2.7-1,3.9-0.9,4.1-0.8C21.3,2.6,21.3,3.6,20.5,5.9L20.5,5.9z"/>
</svg>
