<?xml version="1.0" encoding="utf-8"?>
<!-- Generator: Adobe Illustrator 24.0.1, SVG Export Plug-In . SVG Version: 6.00 Build 0)  -->
<svg version="1.1" id="Слой_1" xmlns="http://www.w3.org/2000/svg" xmlns:xlink="http://www.w3.org/1999/xlink" x="0px" y="0px"
	 viewBox="0 0 20 39" style="enable-background:new 0 0 20 39;" xml:space="preserve">
<style type="text/css">
	.st0{fill:#6B463A;}
</style>
<path class="st0" d="M4.8,11.9h10.9c1.7,0,3.1-1.4,3.1-3.1c0-4.7-3.9-8.6-8.6-8.6c-4.7,0-8.6,3.9-8.6,8.6C1.6,10.5,3,11.9,4.8,11.9z
	 M14.1,6.5c0.6,0,1.2,0.5,1.2,1.2s-0.5,1.2-1.2,1.2c-0.6,0-1.2-0.5-1.2-1.2S13.5,6.5,14.1,6.5z M10.2,3.4c0.6,0,1.2,0.5,1.2,1.2
	s-0.5,1.2-1.2,1.2c-0.6,0-1.2-0.5-1.2-1.2S9.6,3.4,10.2,3.4z M6.3,6.5C7,6.5,7.5,7,7.5,7.7S7,8.8,6.3,8.8S5.2,8.3,5.2,7.7
	S5.7,6.5,6.3,6.5z"/>
<path class="st0" d="M16.9,15.6v-1.3H3.6v1.3c-1.7,1.2-2.7,3.2-2.7,5.3v14c0,1.9,1.6,3.5,3.5,3.5h11.7c1.9,0,3.5-1.6,3.5-3.5V21
	C19.6,18.8,18.6,16.8,16.9,15.6L16.9,15.6z M10.2,28.7c-0.4,0-1.2,0-1.9,0v3.6c0,0.6-0.5,1.2-1.2,1.2c-0.6,0-1.2-0.5-1.2-1.2V21.3h0
	c0-0.3,0.1-0.6,0.3-0.8c0.2-0.2,0.5-0.3,0.8-0.3h3c2.4,0,4.3,1.9,4.3,4.3C14.5,26.8,12.6,28.7,10.2,28.7z"/>
<path class="st0" d="M10.2,22.5H8.3c0,0.7,0,3.2,0,3.8c0.7,0,1.4,0,1.9,0c1.1,0,2-0.9,2-1.9S11.2,22.5,10.2,22.5z"/>
</svg>
