<?xml version="1.0" encoding="utf-8"?>
<!-- Generator: Adobe Illustrator 24.0.1, SVG Export Plug-In . SVG Version: 6.00 Build 0)  -->
<svg version="1.1" id="Слой_1" xmlns="http://www.w3.org/2000/svg" xmlns:xlink="http://www.w3.org/1999/xlink" x="0px" y="0px"
	 viewBox="0 0 16 15" style="enable-background:new 0 0 16 15;" xml:space="preserve">
<style type="text/css">
	.st0{fill:#8CC153;}
</style>
<path class="st0" d="M15.7,11.8c0,0.2,0,0.5-0.2,0.6l-2.1,2.1c-0.1,0.1-0.2,0.2-0.4,0.3c-0.2,0.1-0.3,0.1-0.5,0.1c0,0,0,0-0.1,0
	c-0.1,0-0.1,0-0.2,0c-0.2,0-0.5,0-1-0.1s-1-0.2-1.7-0.5c-0.7-0.3-1.4-0.7-2.2-1.2c-0.8-0.5-1.7-1.3-2.6-2.2C4,10.2,3.4,9.5,2.9,8.9
	C2.4,8.2,2,7.6,1.7,7C1.4,6.4,1.2,5.9,1.1,5.5C0.9,5,0.8,4.6,0.8,4.3C0.7,3.9,0.7,3.7,0.7,3.5c0-0.2,0-0.3,0-0.3
	c0-0.1,0.1-0.3,0.1-0.5C0.9,2.6,1,2.4,1.1,2.3l2.1-2.1C3.4,0.1,3.6,0,3.8,0C3.9,0,4,0,4.1,0.1c0.1,0.1,0.2,0.2,0.3,0.3l1.7,3.2
	C6.2,3.8,6.2,4,6.2,4.2c0,0.2-0.1,0.4-0.3,0.5L5.1,5.5c0,0,0,0.1-0.1,0.1c0,0,0,0.1,0,0.1c0,0.2,0.1,0.5,0.3,0.8
	C5.5,6.7,5.7,7,5.9,7.4C6.2,7.8,6.6,8.2,7,8.7c0.5,0.5,0.9,0.9,1.3,1.1c0.4,0.3,0.7,0.5,0.9,0.6c0.2,0.1,0.4,0.2,0.6,0.2l0.2,0
	c0,0,0.1,0,0.1,0c0,0,0.1,0,0.1-0.1l0.9-0.9c0.2-0.2,0.4-0.3,0.7-0.3c0.2,0,0.3,0,0.4,0.1h0l3.1,1.8C15.5,11.5,15.7,11.6,15.7,11.8z
	"/>
</svg>
