<?xml version="1.0" encoding="utf-8"?>
<!-- Generator: Adobe Illustrator 24.0.1, SVG Export Plug-In . SVG Version: 6.00 Build 0)  -->
<svg version="1.1" id="Слой_1" xmlns="http://www.w3.org/2000/svg" xmlns:xlink="http://www.w3.org/1999/xlink" x="0px" y="0px"
	 viewBox="0 0 15 12" style="enable-background:new 0 0 15 12;" xml:space="preserve">
<style type="text/css">
	.st0{fill:#AEAEAE;}
</style>
<path class="st0" d="M4.4,3.1c0,0.7-0.6,1.2-1.2,1.2c-0.7,0-1.3-0.6-1.3-1.2c0-0.7,0.6-1.3,1.3-1.3C3.8,1.9,4.4,2.4,4.4,3.1z"/>
<path class="st0" d="M13.1,0H1.9C0.8,0,0,0.8,0,1.9v7.5c0,0,0,0.1,0,0.1c0,0.1,0,0.2,0,0.2c0.2,0.9,0.9,1.5,1.8,1.5h11.2
	c1,0,1.9-0.8,1.9-1.9V1.9C15,0.8,14.2,0,13.1,0z M1.9,1.3h11.2c0.3,0,0.6,0.3,0.6,0.6v5l-3.3-3.3c-0.4-0.4-1.1-0.4-1.5,0l-3,3
	L5.1,5.7C4.7,5.3,4,5.3,3.6,5.7L1.3,8.1V1.9C1.3,1.5,1.5,1.3,1.9,1.3z"/>
</svg>
