<?xml version="1.0" encoding="utf-8"?>
<!-- Generator: Adobe Illustrator 24.0.1, SVG Export Plug-In . SVG Version: 6.00 Build 0)  -->
<svg version="1.1" id="Слой_1" xmlns="http://www.w3.org/2000/svg" xmlns:xlink="http://www.w3.org/1999/xlink" x="0px" y="0px"
	 viewBox="0 0 40 33" style="enable-background:new 0 0 40 33;" xml:space="preserve">
<style type="text/css">
	.st0{fill:#677A4B;}
</style>
<path class="st0" d="M25,30v2.3c0,0.1,0.1,0.2,0.2,0.2h2.3c0.1,0,0.2-0.1,0.2-0.2V30H25z"/>
<path class="st0" d="M32.8,27.9l-4.7-5.3h2.4c0.4,0,0.7-0.3,0.7-0.7c0-0.2-0.1-0.3-0.1-0.4l-4.7-6.1h1.4c0.4,0,0.7-0.3,0.7-0.7
	c0-0.1,0-0.2-0.1-0.4l-4-6.9l-4-6.9c-0.2-0.3-0.6-0.5-1-0.3c-0.1,0.1-0.2,0.2-0.3,0.3l-4,6.9v0l-4,6.8c-0.2,0.3-0.1,0.8,0.2,1
	c0.1,0.1,0.3,0.1,0.4,0.1h1.4l-4.7,6.1c-0.3,0.3-0.2,0.7,0,1c0.1,0.1,0.3,0.2,0.5,0.2h2.4l-4.7,5.2c-0.3,0.3-0.3,0.7,0,1
	C7,29,7.2,29.1,7.4,29.1h24.9c0.4,0,0.7-0.3,0.7-0.7C33,28.2,33,28,32.8,27.9z"/>
<path class="st0" d="M11.9,30v2.3c0,0.1,0.1,0.2,0.2,0.2h2.3c0.1,0,0.2-0.1,0.2-0.2V30H11.9z"/>
<path class="st0" d="M39.4,27.8l-4.7-5.3H37c0.4,0,0.7-0.3,0.7-0.7c0-0.2-0.1-0.3-0.1-0.4l-4.7-6.1h1.4c0.4,0,0.7-0.3,0.7-0.7
	c0-0.1,0-0.2-0.1-0.4l-4-6.9l-4-6.9c-0.2-0.3-0.6-0.5-1-0.3c-0.1,0.1-0.2,0.2-0.3,0.3L23.7,4l1.6,2.8v0l4,6.9
	c0.5,0.8,0.2,1.8-0.6,2.3c-0.1,0.1-0.3,0.1-0.4,0.2l3.6,4.6c0.6,0.7,0.4,1.8-0.3,2.3c-0.3,0.2-0.6,0.3-0.9,0.3h-0.4l3.3,3.7
	c0.5,0.5,0.6,1.2,0.3,1.8h5c0.4,0,0.7-0.3,0.7-0.7C39.5,28.1,39.5,28,39.4,27.8z"/>
<path class="st0" d="M18.5,30v2.3c0,0.1,0.1,0.2,0.2,0.2H21c0.1,0,0.2-0.1,0.2-0.2V30H18.5z"/>
<path class="st0" d="M13.9,0.5c-0.2-0.3-0.6-0.5-1-0.3c-0.1,0.1-0.2,0.2-0.3,0.3l-4,6.9l0,0l-3.9,6.8c-0.2,0.3-0.1,0.8,0.2,1
	c0.1,0.1,0.3,0.1,0.4,0.1h1.4l-4.7,6.1c-0.3,0.3-0.2,0.7,0,1c0.1,0.1,0.3,0.2,0.5,0.2h2.4l-4.7,5.2c-0.3,0.3-0.3,0.7,0,1
	c0.1,0.1,0.3,0.2,0.5,0.2h5c-0.3-0.6-0.2-1.4,0.3-1.9l3.3-3.6H9.2c-0.9,0-1.7-0.8-1.7-1.7c0-0.4,0.1-0.8,0.4-1.1l3.5-4.5
	c-0.9-0.2-1.4-1.2-1.2-2.1c0-0.2,0.1-0.3,0.2-0.5l3.9-6.8v0L16,4.1L13.9,0.5z"/>
</svg>
