<?xml version="1.0" encoding="utf-8"?>
<!-- Generator: Adobe Illustrator 24.0.1, SVG Export Plug-In . SVG Version: 6.00 Build 0)  -->
<svg version="1.1" id="Слой_1" xmlns="http://www.w3.org/2000/svg" xmlns:xlink="http://www.w3.org/1999/xlink" x="0px" y="0px"
	 viewBox="0 0 27 37" style="enable-background:new 0 0 27 37;" xml:space="preserve">
<style type="text/css">
	.st0{fill:#B3C646;}
</style>
<path class="st0" d="M3.3,29c3.5,3.2,1.7,6,1.1,6.7c1.1-4.3-1.9-3.4-3.7-6.3c-1.8-2.9,1.8-3.8,1.4-4.7c-0.4-1-0.9-2.2,0.4-2.7
	c1.3-0.5,0.6-0.8-0.4-1.7c-1.8-1.7-1.6-3.2,1.2-4.4c2.8-1.2,0-4.5-1.2-6.3c8.3,5.7,3.9,7.4,2.7,7.9S2.2,19,4.5,19.8
	c2.3,0.9,0.9,3.2,0,4C3.5,24.7,0.6,26.2,3.3,29z"/>
<path class="st0" d="M20.5,29c3.2,3.5,1.1,6.2,0.4,6.8c1.6-4.1-1.6-3.6-3.1-6.7c-1.5-3.1,2.2-3.5,1.8-4.6c-0.3-1-0.6-2.3,0.7-2.6
	c1.4-0.4,0.7-0.8-0.3-1.7c-1.7-1.9-1.2-3.4,1.7-4.3c2.9-0.9,0.5-4.4-0.6-6.4c7.7,6.5,3.1,7.8,1.9,8.2c-1.2,0.4-2.8,1.2-0.6,2.2
	c2.2,1.1,0.6,3.3-0.4,4C21.2,24.7,18.1,25.9,20.5,29z"/>
<path class="st0" d="M13,26.7c-4.7,4.3-2.3,8.1-1.5,9c-1.5-5.7,2.6-4.6,5-8.5c2.4-3.9-2.4-5-1.8-6.3c0.6-1.3,1.2-2.9-0.6-3.6
	c-1.8-0.7-0.8-1.1,0.6-2.3c2.5-2.3,2.1-4.3-1.7-5.9c-3.7-1.6,0-6,1.7-8.5c-11.2,7.6-5.2,10-3.7,10.6c1.5,0.7,3.6,1.9,0.5,3.1
	c-3.1,1.2-1.3,4.3,0,5.4C12.7,20.9,16.6,23,13,26.7z"/>
</svg>
