<?xml version="1.0" encoding="utf-8"?>
<!-- Generator: Adobe Illustrator 24.0.1, SVG Export Plug-In . SVG Version: 6.00 Build 0)  -->
<svg version="1.1" id="Слой_1" xmlns="http://www.w3.org/2000/svg" xmlns:xlink="http://www.w3.org/1999/xlink" x="0px" y="0px"
	 viewBox="0 0 23 21" style="enable-background:new 0 0 23 21;" xml:space="preserve">
<style type="text/css">
	.st0{fill:#303030;}
</style>
<path class="st0" d="M7.5,13.9h12.2c0.3,0,0.6-0.2,0.6-0.5L23,3.9c0.1-0.2,0-0.4-0.1-0.6c-0.1-0.2-0.3-0.3-0.5-0.3H5.9L5.4,0.9
	C5.4,0.6,5.1,0.4,4.8,0.4H0.7C0.3,0.4,0,0.7,0,1.1c0,0.4,0.3,0.7,0.7,0.7h3.5l2.4,10.9c-0.7,0.3-1.2,1-1.2,1.9c0,1.1,0.9,2,2,2h12.2
	c0.4,0,0.7-0.3,0.7-0.7c0-0.4-0.3-0.7-0.7-0.7H7.5c-0.4,0-0.7-0.3-0.7-0.7C6.8,14.2,7.1,13.9,7.5,13.9z"/>
<path class="st0" d="M6.8,18.6c0,1.1,0.9,2,2,2c1.1,0,2-0.9,2-2c0-1.1-0.9-2-2-2C7.7,16.6,6.8,17.5,6.8,18.6z"/>
<path class="st0" d="M16.3,18.6c0,1.1,0.9,2,2,2c1.1,0,2-0.9,2-2c0-1.1-0.9-2-2-2C17.2,16.6,16.3,17.5,16.3,18.6z"/>
</svg>
