<?xml version="1.0" encoding="utf-8"?>
<!-- Generator: Adobe Illustrator 24.0.1, SVG Export Plug-In . SVG Version: 6.00 Build 0)  -->
<svg version="1.1" id="Слой_1" xmlns="http://www.w3.org/2000/svg" xmlns:xlink="http://www.w3.org/1999/xlink" x="0px" y="0px"
	 viewBox="0 0 35 37" style="enable-background:new 0 0 35 37;" xml:space="preserve">
<style type="text/css">
	.st0{fill:#C91543;}
</style>
<path class="st0" d="M27.9,25.2c1.1,0.8,2.6,1.1,4,0.6l2.1-0.7l-1.2-1.1c-1.2-1.1-3-1.4-4.5-0.7l-1.9,0.8L27.9,25.2z"/>
<path class="st0" d="M22.1,8.5c0.6,0,1.2,0.3,1.5,0.8l2.4,3.3c0.3,0.5,0.4,1.1,0.3,1.7l-1,3.1c0,0,0,0,0,0.1L24.7,20
	c-0.1,0.5-0.3,0.9-0.7,1.1l-4.3,3.2c-0.3,0.2-0.7,0.4-1.1,0.4h-1.2c-0.7,0.7-2.7,2.5-4,2.5c-0.6,0-1.3-0.2-1.9-0.4v0.6
	c0,0.4,0.2,0.8,0.6,1l0.6,0.4c0.2,0.1,0.4,0.2,0.7,0.2H17c0.1,0,0.1,0,0.2,0l3.6-0.5c0.3,0,0.5-0.2,0.7-0.4l2.5-2.5
	c0.1-0.1,0.2-0.2,0.2-0.3l4-7.9c0.1-0.2,0.2-0.5,0.1-0.8l-1-6c-0.1-0.4-0.3-0.7-0.6-0.9l-3-1.7C23.4,8,23.1,7.9,22.9,8l-2.5,0.4
	c0.1,0.1,0.1,0.1,0.2,0.2H22.1z"/>
<path class="st0" d="M32.8,12.9l1.2-1.1l-2.1-0.7c-1.1-0.4-2.2-0.3-3.2,0.2l0.4,2.5C30.4,14.2,31.8,13.8,32.8,12.9z"/>
<path class="st0" d="M11.9,30l-0.6-0.4c-0.7-0.5-1.1-1.2-1.1-2.1v-1c-1.2-0.3-2.8-0.8-5.1-1.6c-0.3-0.1-0.5-0.2-0.7-0.3
	c-0.2,1.6,0,4.8,4.2,6.5c3.8,1.5,6.1,0.3,7.2-0.7h-2.5C12.8,30.4,12.3,30.3,11.9,30z"/>
<path class="st0" d="M7.8,8.7l1.5,1.1c0.6-0.1,1.1-0.1,1.7,0c0.6-0.6,1.3-1,2.1-1.2l1.1-1.7c0.1-0.1,0.2-0.2,0.4-0.3
	c0,0,0.1,0,0.2,0l-0.9-0.7c-0.2-0.2-0.6-0.2-0.8,0l-1.9,1.6c-0.4,0.3-0.9,0.5-1.4,0.4L5.9,7.4c-0.2,0-0.4,0-0.5,0.2
	C5.3,7.7,5.2,7.8,5.2,8v0.9l0,0C5.9,8.2,7,8.1,7.8,8.7z"/>
<path class="st0" d="M7.5,18c3.8,3.3,7.8,5.2,9.1,5.5H17c2.6-1.1,2.6-3.1,2.6-3.1h1.3c0,0.7-0.3,1.4-0.7,2.1l3-2.3
	c0.1-0.1,0.2-0.2,0.2-0.4l0.5-2.6c0-0.1,0-0.2,0.1-0.2l1-3.1c0.1-0.2,0-0.4-0.1-0.6L22.6,10c-0.1-0.2-0.3-0.3-0.5-0.3h-0.8
	c0.9,1.5,1.5,3.2,2,4.8c0,0.2,0,0.3-0.1,0.5L21.7,18c-0.4,0.6-0.9,1.1-1.7,1.3c-0.3,0.9-1.2,2.4-2.9,2.4c-2,0-4.6-1.3-4.7-1.3
	c0,0-0.1,0-0.1-0.1l-3.1-2.5c0,0-0.1-0.1-0.1-0.1c-0.1-0.1-2-2.7-2-5.4c0-0.7,0.3-1.4,0.8-1.9L7,9.7C6.8,9.5,6.4,9.5,6.2,9.7
	C5.6,10.3,5,11,4.6,11.7c0,0.1,0,0.3-0.1,0.4C4.4,13,4,15,7.5,18z"/>
<path class="st0" d="M13.5,9.7L13.5,9.7c-1.6,0.3-2.6,1.6-2.6,3.1H9.6c0-0.7,0.2-1.3,0.5-1.9c-0.5,0-0.9,0.1-1.3,0.4
	c-0.3,0.2-0.4,0.6-0.4,1c0,2.1,1.4,4.2,1.7,4.6l3,2.4c0.4,0.2,2.5,1.2,4,1.2c0.7-0.1,1.3-0.5,1.5-1.2c-0.6-0.2-1.1-0.5-1.4-1l1-0.8
	c0.3,0.4,0.7,0.6,1.2,0.6c0.5,0,0.9-0.3,1.1-0.7l1.5-2.7c-0.3-0.9-1.4-4.2-2.9-5.7c-1.3-1.3-3.5-1.2-4.2-1.1l-1.1,1.6
	C13.8,9.6,13.7,9.7,13.5,9.7z M15.2,9.7h1.6c0.3,0,0.7,0.1,1,0.3l2.1,1.3c0.7,0.4,1,1.2,0.9,1.9l-0.3,2.1c-0.1,0.8-0.7,1.4-1.5,1.5
	l-4.9,1c-0.5,0.1-1.1,0-1.5-0.3l-1.1-0.8c-0.8-0.6-1-1.7-0.4-2.5l0.4-0.5c0.2-0.3,0.6-0.6,1-0.7l0.8-0.3l-0.3-0.6
	c-0.1-0.2-0.1-0.5,0.1-0.7l0.9-0.9C14.2,9.9,14.7,9.7,15.2,9.7L15.2,9.7z"/>
<path class="st0" d="M17.1,13.5c0-0.3-0.6-0.6-1.3-0.6c-0.7,0-1.3,0.3-1.3,0.6c0,0.3,0.6,0.6,1.3,0.6C16.6,14.1,17.1,13.9,17.1,13.5
	z"/>
<path class="st0" d="M3.4,18.5C3.8,19.2,4,20.1,3.8,21c-0.2,1.2,0.5,2.4,1.7,2.8c6.5,2.1,7.7,2.3,7.9,2.3c0.5,0,1.5-0.7,2.4-1.5
	c-2.3-0.7-6.1-3-9.1-5.6c-4.1-3.5-3.6-6.1-3.4-7.1c0-0.1,0-0.2,0-0.2c0-0.2,0.1-0.5,0.6-1.3v0l-2,2.6c-0.6,0.8-0.7,1.9-0.2,2.8
	L3.4,18.5z"/>
<path class="st0" d="M0.9,20.4l1.6,1.2c0-0.3,0-0.6,0-0.9c0.1-0.6,0-1.1-0.3-1.6l-0.8-1.5l-0.8,1c-0.2,0.3-0.3,0.6-0.3,0.9
	C0.5,19.9,0.6,20.2,0.9,20.4z"/>
<path class="st0" d="M13.4,13.7L12.7,14c-0.1,0-0.2,0.1-0.3,0.2l-0.4,0.5c-0.2,0.3-0.1,0.6,0.1,0.8l1.1,0.8c0.1,0.1,0.3,0.1,0.5,0.1
	l4.9-1c0.3-0.1,0.5-0.3,0.5-0.5l0.3-2.1c0-0.3-0.1-0.5-0.3-0.6l-2.1-1.3C17,11,16.9,11,16.8,11h-1.6c-0.2,0-0.3,0.1-0.4,0.2
	l-0.6,0.6l0.2,0.3c0.5-0.3,1-0.4,1.6-0.4c1.4,0,2.5,0.8,2.5,1.9c0,1.1-1.1,1.9-2.5,1.9C14.6,15.4,13.6,14.7,13.4,13.7z"/>
<path class="st0" d="M27.6,9.9c2.8-1.5,4.5-4.5,4.5-7.7V1c-4,0-7.4,2.6-8.4,6.5L27.6,9.9z"/>
<path class="st0" d="M23.4,27.3c0,4.8,3.9,8.8,8.8,8.8v-1.3c0-4.4-3.3-8.1-7.6-8.7L23.4,27.3z"/>
</svg>
