<?xml version="1.0" encoding="utf-8"?>
<!-- Generator: Adobe Illustrator 24.0.1, SVG Export Plug-In . SVG Version: 6.00 Build 0)  -->
<svg version="1.1" id="Слой_1" xmlns="http://www.w3.org/2000/svg" xmlns:xlink="http://www.w3.org/1999/xlink" x="0px" y="0px"
	 viewBox="0 0 40 34" style="enable-background:new 0 0 40 34;" xml:space="preserve">
<style type="text/css">
	.st0{fill:#8DAA7E;}
</style>
<path class="st0" d="M9.5,27.5c6.4,3.1,13.1,0.9,15.7-0.5c-12.2-6-17.6-5.8-22-6.3c7.7-0.7,17.9,3.6,22.1,5.8
	c-0.8-1.6-3.7-5.3-9-7.5C11,16.7,3.5,19.1,0.4,20.5C0.8,21.5,3.2,24.4,9.5,27.5z"/>
<path class="st0" d="M12.5,14.1c2.7,7.7,9.9,11.4,13.2,12.3c-5.2-14.8-9.7-19-12.8-23c6.9,5.7,11.7,17.4,13.3,22.6
	c0.6-2,1.3-7.4-1.3-13.5C22.4,6.5,14.3,2.4,10.7,1.1C10.1,2.2,9.8,6.5,12.5,14.1z"/>
<path class="st0" d="M27.2,10.1c-3.7,6.1-2.2,13-0.9,15.7c7.1-11.6,7.4-17,8.3-21.3c0,7.8-5.2,17.5-7.8,21.4
	c1.7-0.7,5.7-3.2,8.3-8.3c2.7-5.1,1-12.7-0.1-16C33.9,2,30.9,4.1,27.2,10.1z"/>
</svg>
