<?xml version="1.0" encoding="utf-8"?>
<!-- Generator: Adobe Illustrator 24.0.1, SVG Export Plug-In . SVG Version: 6.00 Build 0)  -->
<svg version="1.1" id="Слой_1" xmlns="http://www.w3.org/2000/svg" xmlns:xlink="http://www.w3.org/1999/xlink" x="0px" y="0px"
	 viewBox="0 0 18 18" style="enable-background:new 0 0 18 18;" xml:space="preserve">
<style type="text/css">
	.st0{fill:#303030;}
</style>
<path class="st0" d="M17.2,11l-1.7-1.3c0-0.2,0-0.4,0-0.7s0-0.5,0-0.7L17.2,7c0.3-0.2,0.4-0.7,0.2-1l-1.7-3c-0.2-0.3-0.6-0.5-1-0.4
	l-2,0.8c-0.4-0.3-0.8-0.5-1.2-0.7l-0.3-2.1c0-0.4-0.4-0.7-0.8-0.7H7C6.6,0,6.3,0.3,6.2,0.7L5.9,2.8C5.6,2.9,5.2,3.2,4.8,3.4l-2-0.8
	C2.5,2.5,2,2.7,1.8,3L0.1,6C-0.1,6.3,0,6.8,0.3,7L2,8.3c0,0.3,0,0.5,0,0.7c0,0.2,0,0.4,0,0.7L0.3,11c-0.3,0.2-0.4,0.7-0.2,1l1.7,3
	c0.2,0.3,0.6,0.5,1,0.4l2-0.8c0.4,0.3,0.8,0.5,1.2,0.7l0.3,2.1C6.3,17.7,6.6,18,7,18h3.4c0.4,0,0.7-0.3,0.8-0.7l0.3-2.1
	c0.4-0.2,0.8-0.4,1.2-0.7l2,0.8c0.1,0,0.2,0.1,0.3,0.1c0.3,0,0.6-0.2,0.7-0.4l1.7-3C17.6,11.6,17.5,11.2,17.2,11z M8.8,12
	c-1.7,0-3-1.3-3-3c0-1.7,1.3-3,3-3c1.7,0,3,1.3,3,3C11.8,10.7,10.4,12,8.8,12z"/>
</svg>
