<?xml version="1.0" encoding="utf-8"?>
<!-- Generator: Adobe Illustrator 24.0.1, SVG Export Plug-In . SVG Version: 6.00 Build 0)  -->
<svg version="1.1" id="Слой_1" xmlns="http://www.w3.org/2000/svg" xmlns:xlink="http://www.w3.org/1999/xlink" x="0px" y="0px"
	 viewBox="0 0 37 30" style="enable-background:new 0 0 37 30;" xml:space="preserve">
<style type="text/css">
	.st0{fill:#C8C900;}
</style>
<path class="st0" d="M35.8,14.5l-2-1.6c-1-0.8-2.2-1.3-3.4-1.4L29.1,10c-0.5-0.6-1.5-0.5-1.9,0.3l-1.1,2.4c-1.1,0.7-2.4,1-3.7,1
	h-8.8c-1.5,0-2.8,0.4-4,1.1C8.1,14.7,7,13.5,7,12V7.6c0-3.2-2.2-6.1-5.4-6.9C0.9,0.6,0.2,1.1,0.2,1.9v10.7c0,3.6,2.3,6.8,5.7,8
	c-0.1,0.7-0.1,0.4-0.1,8.3C5.8,29.5,6.4,30,7,30h2.2c0.4,0,0.8-0.3,1-0.6c0-0.1,0,0.1,1-2.9c0.3-0.1,0.6-0.2,0.8-0.3v2.7
	c0,0.6,0.5,1.1,1.1,1.1h2.2c0.6,0,1.1-0.5,1.1-1.1v-3.9h3.4v3.9c0,0.6,0.5,1.1,1.1,1.1h2.2c0.6,0,1.1-0.5,1.1-1.1v-1.3l1.3,2
	c0.2,0.3,0.6,0.5,0.9,0.5h1.7c0.7,0,1.2-0.7,1.1-1.3l-1.1-5.5c0-1-0.1-2.1,1.1-3.3c1.2-1.2,2.4-1.1,3.4-1.1c1.9,0,3.4-1.5,3.4-3.4
	C36.2,15,36.1,14.7,35.8,14.5L35.8,14.5z M22.5,19.5h-8.8c-3.1,0-5.5,2.5-5.5,5.5c0-3.6-0.2-4.5,0.5-6c1.4-1.1,3.1-1.8,5-1.8h8.8
	c1.4,0,2.8-0.4,4-1.2c0.5-0.3,1.2-0.2,1.6,0.3c0.3,0.5,0.2,1.2-0.3,1.6C26.1,19,24.3,19.5,22.5,19.5z"/>
</svg>
