<?xml version="1.0" encoding="utf-8"?>
<!-- Generator: Adobe Illustrator 24.0.1, SVG Export Plug-In . SVG Version: 6.00 Build 0)  -->
<svg version="1.1" id="Слой_1" xmlns="http://www.w3.org/2000/svg" xmlns:xlink="http://www.w3.org/1999/xlink" x="0px" y="0px"
	 viewBox="0 0 31 42" style="enable-background:new 0 0 31 42;" xml:space="preserve">
<style type="text/css">
	.st0{fill:#8CC153;}
</style>
<path class="st0" d="M30.3,23.4c-0.3-0.1-0.7,0-0.8,0.3l-0.6,1.4l-0.3-0.3c-0.1-0.1-0.3-0.2-0.5-0.2c-0.2,0-0.4,0.1-0.4,0.3L26.4,27
	c-0.2,0.3-0.1,0.7,0.2,0.8c0.1,0.1,0.2,0.1,0.3,0.1c0.2,0,0.4-0.1,0.5-0.3l0.8-1.4l0.4,0.4c0.1,0.1,0.3,0.2,0.5,0.2
	c0.2,0,0.4-0.2,0.4-0.3l1-2.1C30.7,23.9,30.6,23.6,30.3,23.4L30.3,23.4z"/>
<path class="st0" d="M1.6,26.9c0.2,0,0.4,0,0.5-0.2l0.4-0.4l0.8,1.4C3.4,27.9,3.6,28,3.8,28C4,28,4.1,28,4.1,28
	c0.3-0.2,0.4-0.5,0.2-0.8L3.2,25c-0.1-0.2-0.3-0.3-0.4-0.3c-0.2,0-0.4,0-0.5,0.2l-0.3,0.3l-0.6-1.4c-0.1-0.3-0.5-0.4-0.8-0.3
	c-0.3,0.1-0.4,0.5-0.3,0.8l1,2.1C1.3,26.7,1.4,26.9,1.6,26.9L1.6,26.9z"/>
<path class="st0" d="M8.1,37.1c-0.3,0-0.6,0.3-0.6,0.6v3.4c0,0.3,0.3,0.6,0.6,0.6c0.3,0,0.6-0.3,0.6-0.6v-3.4
	C8.7,37.4,8.4,37.1,8.1,37.1z"/>
<path class="st0" d="M6.7,27.2l0.6,0.3c0.1,0.1,0.2,0.1,0.2,0.3v1.6c0,0.3,0.3,0.6,0.6,0.6c0.3,0,0.6-0.3,0.6-0.6v-1.6
	c0-0.6-0.3-1.1-0.8-1.3l-0.6-0.3c-0.9-0.5-1.4-1.3-1.4-2.3v-5.5c0-0.3-0.3-0.6-0.6-0.6c-0.3,0-0.6,0.3-0.6,0.6v5.5
	C4.7,25.3,5.4,26.6,6.7,27.2L6.7,27.2z"/>
<path class="st0" d="M23.7,12.3c-0.3,0-0.6,0.3-0.6,0.6v11.3c0,0.8-0.2,1.5-0.6,2.1l-0.9,1.5c-0.2,0.3-0.3,0.7-0.3,1.1v0.7
	c0,0.3,0.3,0.6,0.6,0.6c0.3,0,0.6-0.3,0.6-0.6V29c0-0.2,0-0.4,0.1-0.5l0.9-1.5c0.5-0.8,0.8-1.8,0.8-2.8V12.9
	C24.3,12.6,24.1,12.3,23.7,12.3L23.7,12.3z"/>
<path class="st0" d="M20.6,11.9V6.2c0-0.7,0.6-1.2,1.2-1.2c0.7,0,1.2,0.6,1.2,1.2v4.1c0,0.3,0.3,0.6,0.6,0.6c0.3,0,0.6-0.3,0.6-0.6
	V6.2c0-1.4-1.1-2.5-2.5-2.5c-0.5,0-0.9,0.1-1.2,0.3c-0.1-1.3-1.2-2.3-2.5-2.3c-0.5,0-0.9,0.1-1.3,0.4c-0.2-1.1-1.2-2-2.4-2
	c-1.4,0-2.5,1.1-2.5,2.5v0.2c-0.4-0.2-0.8-0.3-1.2-0.3C9.4,2.5,8.3,3.6,8.3,5v6.2C8,11,7.7,11,7.3,11c-1.5,0-2.7,1.2-2.7,2.7v2.1
	c0,0.3,0.3,0.6,0.6,0.6c0.3,0,0.6-0.3,0.6-0.6v-2.1c0-0.8,0.6-1.4,1.4-1.4c0.8,0,1.4,0.6,1.4,1.4V18c0,0.3,0.3,0.6,0.6,0.6
	c0.3,0,0.6-0.3,0.6-0.6v-4.3c0-0.5-0.2-1.1-0.4-1.5V5c0-0.7,0.6-1.2,1.2-1.2C11.5,3.8,12,4.3,12,5v6.9c0,0.3,0.3,0.6,0.6,0.6
	s0.6-0.3,0.6-0.6V2.6c0-0.7,0.6-1.2,1.2-1.2c0.7,0,1.2,0.6,1.2,1.2v9.3c0,0.3,0.3,0.6,0.6,0.6c0.3,0,0.6-0.3,0.6-0.6V4.2
	c0-0.7,0.6-1.2,1.2-1.2c0.7,0,1.2,0.6,1.2,1.2v7.6c0,0.3,0.3,0.6,0.6,0.6C20.4,12.5,20.6,12.2,20.6,11.9z"/>
<path class="st0" d="M21.9,37.2c-0.3,0-0.6,0.3-0.6,0.6v3.3c0,0.3,0.3,0.6,0.6,0.6c0.3,0,0.6-0.3,0.6-0.6v-3.3
	C22.5,37.5,22.2,37.2,21.9,37.2z"/>
<path class="st0" d="M29.5,29c-0.2-0.2-0.6-0.2-0.9,0h0l-2.8,2.1l-0.3-0.5C25.4,30.3,25,30,24.6,30c-0.4,0-0.8,0.2-1,0.5l-3.3,4.6
	c-0.2,0.2-0.2,0.6,0,0.8c0.2,0.2,0.5,0.3,0.8,0.2l2.9-1l0.4,0.7c0.2,0.4,0.6,0.6,1,0.6c0,0,0,0,0,0c0.4,0,0.8-0.2,1-0.6l3.2-6
	C29.8,29.5,29.7,29.2,29.5,29L29.5,29z M25.5,35.2l-0.6-1.1c-0.1-0.2-0.3-0.3-0.5-0.3c-0.1,0-0.1,0-0.2,0l-1.8,0.6l2.2-3.2l0.5,1
	c0.1,0.2,0.2,0.3,0.4,0.3s0.4,0,0.5-0.1l1.4-1.1L25.5,35.2z M29.4,29.9L29.4,29.9L29.4,29.9C29.4,29.9,29.4,29.9,29.4,29.9
	L29.4,29.9z"/>
<path class="st0" d="M6.6,30.5C6.4,30.2,6,30,5.6,30c-0.4,0-0.8,0.3-0.9,0.6l-0.3,0.5L1.6,29c-0.3-0.2-0.6-0.2-0.9,0
	c-0.2,0.2-0.3,0.6-0.2,0.8l3.2,6c0.2,0.4,0.6,0.6,1,0.6c0,0,0,0,0,0c0.4,0,0.8-0.2,1-0.6l0.4-0.7l2.9,1c0.3,0.1,0.6,0,0.8-0.2
	c0.2-0.2,0.2-0.6,0-0.8L6.6,30.5z M0.9,29.9C0.9,29.9,0.9,29.9,0.9,29.9L0.9,29.9C0.9,29.9,0.9,29.9,0.9,29.9z M6.1,33.8
	c-0.3-0.1-0.6,0-0.7,0.3l-0.6,1.1l-2-3.7l1.4,1.1c0.1,0.1,0.3,0.2,0.5,0.1s0.3-0.2,0.4-0.3l0.5-1l2.2,3.2L6.1,33.8z"/>
</svg>
