<?xml version="1.0" encoding="utf-8"?>
<!-- Generator: Adobe Illustrator 24.0.1, SVG Export Plug-In . SVG Version: 6.00 Build 0)  -->
<svg version="1.1" id="Слой_1" xmlns="http://www.w3.org/2000/svg" xmlns:xlink="http://www.w3.org/1999/xlink" x="0px" y="0px"
	 viewBox="0 0 30 30" style="enable-background:new 0 0 30 30;" xml:space="preserve">
<style type="text/css">
	.st0{fill:#DA0000;}
</style>
<path class="st0" d="M24.3,6.4c-2.3-2.3-6.1-2.3-8.4,0c-0.1,0.1-0.2,0.2-0.3,0.3c0.2,0.6,0.4,1.1,0.9,1.5c1,1,2.5,1.3,3.8,0.7
	c0.3-0.1,0.6-0.1,0.8,0c0.2,0.1,0.4,0.4,0.4,0.7c0.1,0.8,0.4,1.6,1,2.2c0.8,0.8,2,1.2,3.1,0.9C26.4,10.5,25.9,8.1,24.3,6.4z"/>
<path class="st0" d="M21.3,13c-0.6-0.6-1.1-1.4-1.3-2.2c-1.7,0.4-3.5-0.1-4.7-1.4c-0.3-0.3-0.5-0.6-0.7-1l-3.7,9.1
	c-2.3,5.7-6.8,8.8-8.7,10c-0.5,0.3-0.9,0.6-1.1,0.8c-0.2,0.2-0.3,0.4-0.3,0.7c0,0.4,0.3,0.7,0.7,0.8c0,0,0,0,0.1,0
	c1.3,0,16.4-1,23.3-15.4l0,0C23.5,14.5,22.2,14,21.3,13z"/>
<path class="st0" d="M29.7,1.5c-0.1-0.4-0.6-0.7-1.1-0.5C27,1.5,25.1,2.9,23.9,4c0.5,0.3,1,0.6,1.4,1c1-0.9,2.6-2.1,3.8-2.5
	C29.6,2.4,29.8,1.9,29.7,1.5z"/>
</svg>
