<?xml version="1.0" encoding="utf-8"?>
<!-- Generator: Adobe Illustrator 24.0.1, SVG Export Plug-In . SVG Version: 6.00 Build 0)  -->
<svg version="1.1" id="Слой_1" xmlns="http://www.w3.org/2000/svg" xmlns:xlink="http://www.w3.org/1999/xlink" x="0px" y="0px"
	 viewBox="0 0 20 21" style="enable-background:new 0 0 20 21;" xml:space="preserve">
<style type="text/css">
	.st0{fill:#303030;}
</style>
<path class="st0" d="M19.8,15.4C19.7,15.3,17.6,14,15,14c-0.3,0-0.5,0-0.8,0c0.6-0.4,1.2-0.8,1.8-1.2c2.8-2.3,3.9-6,4-6.1
	c0-0.1,0-0.3-0.1-0.4c-0.1-0.1-0.2-0.2-0.4-0.2c-0.1,0-3,0.5-5.6,3c-0.7,0.7-1.3,1.4-1.9,2.1c0.2-1,0.4-2.2,0.4-3.4
	c0-4.2-2.1-7.5-2.2-7.7c-0.2-0.2-0.5-0.2-0.7,0C9.6,0.3,7.5,3.7,7.5,7.9c0,1.2,0.2,2.3,0.4,3.4C7.4,10.5,6.7,9.8,6,9.1
	c-2.6-2.5-5.4-2.9-5.6-3c-0.1,0-0.3,0-0.4,0.2C0,6.4,0,6.5,0,6.7c0,0.2,1.2,3.8,4,6.1c0.6,0.5,1.2,0.9,1.8,1.2c-0.3,0-0.5,0-0.8,0
	c-2.6,0-4.7,1.3-4.8,1.4C0.1,15.5,0,15.6,0,15.7c0,0.2,0.1,0.3,0.2,0.4c0.1,0.1,2.2,1.4,4.8,1.4c0.6,0,1.1-0.1,1.7-0.2
	c-0.9,1.1-0.9,2.4-0.9,2.4C5.8,19.8,5.9,20,6,20c0.1,0.1,0.2,0.1,0.2,0.1c0,0,0.1,0,0.1,0c0.1,0,1.6-0.5,2.7-1.9
	c0.2-0.2,0.4-0.5,0.5-0.7v3.1c0,0.2,0.2,0.4,0.4,0.4c0.2,0,0.4-0.2,0.4-0.4v-3.1c0.1,0.2,0.3,0.5,0.5,0.7c1.1,1.4,2.6,1.9,2.7,1.9
	c0,0,0.1,0,0.1,0c0.1,0,0.2,0,0.2-0.1c0.1-0.1,0.2-0.2,0.2-0.3c0-0.1,0-1.3-0.9-2.4c0.5,0.1,1.1,0.2,1.7,0.2c2.6,0,4.7-1.3,4.8-1.4
	c0.1-0.1,0.2-0.2,0.2-0.4C20,15.6,19.9,15.5,19.8,15.4z"/>
</svg>
