<?xml version="1.0" encoding="utf-8"?>
<!-- Generator: Adobe Illustrator 24.0.1, SVG Export Plug-In . SVG Version: 6.00 Build 0)  -->
<svg version="1.1" id="Слой_1" xmlns="http://www.w3.org/2000/svg" xmlns:xlink="http://www.w3.org/1999/xlink" x="0px" y="0px"
	 viewBox="0 0 39 38" style="enable-background:new 0 0 39 38;" xml:space="preserve">
<style type="text/css">
	.st0{fill:#8CC153;}
</style>
<path class="st0" d="M35,4.9c-0.5-2.7-2.8-4.7-5.6-4.7c-2.8,0-5.1,2-5.6,4.7c-1.6,0.6-2.8,2-3.1,3.7c-6.5-2.3-13.7,0-17.6,5.7
	c-3.9,5.7-3.4,13.3,1.1,18.5c4.5,5.2,12,6.7,18.1,3.6s9.5-9.9,8-16.7l2.8-2.6c0.3-0.3,0.5-0.8,0.4-1.2c-0.1-0.4-0.4-0.8-0.8-0.9
	l-0.3-0.1c-0.1,0-0.2-0.1-0.2-0.2c0-0.1,0-0.2,0-0.3l0.9-3.3c0.1-0.3,0.1-0.7-0.1-1c-0.2-0.3-0.4-0.5-0.7-0.6l-3-1
	c-0.3-0.1-0.7-0.1-1,0.1c-0.3,0.2-0.5,0.4-0.6,0.7L26.1,15c-0.1,0.4-0.1,0.8,0.1,1.2c0.2,0.4,0.5,0.7,0.9,0.8c0.1,0,0.2,0.1,0.2,0.2
	c0,0.1,0,0.2,0,0.2l-1.4,4.3c-0.1,0.4,0,0.7,0.3,0.9c0.3,0.2,0.7,0.2,1-0.1l2.1-1.9c1,6.2-2.3,12.3-8.1,14.8
	c-5.7,2.5-12.5,0.9-16.4-4c-3.9-4.9-4.1-11.8-0.3-16.9c3.7-5.1,10.4-7,16.2-4.7c0.1,2.1,1.6,3.9,3.6,4.5c0.3,0.1,0.7-0.1,0.8-0.4
	s-0.1-0.7-0.4-0.8c-1.9-0.6-3-2.5-2.6-4.4c0.4-1.9,2.3-3.2,4.2-2.9c0.3,0.1,0.7-0.2,0.7-0.5C27,5,26.8,4.6,26.4,4.6
	c-0.4,0-0.8,0-1.2,0c0.4-1.5,1.6-2.7,3.1-3.1c1.5-0.4,3.1,0,4.2,1.2c1.1,1.1,1.5,2.7,1.1,4.3c-0.1,0.3,0.1,0.7,0.5,0.7
	c0.3,0.1,0.7-0.1,0.8-0.4c0.1-0.3,0.1-0.6,0.2-0.9C36.5,7,37.2,8.5,37,10c-0.2,1.5-1.2,2.8-2.7,3.2c-0.2,0-0.3,0.1-0.4,0.3
	c-0.1,0.1-0.1,0.3-0.1,0.5c0.1,0.3,0.4,0.5,0.8,0.4c2.1-0.6,3.5-2.5,3.6-4.6C38.3,7.6,37,5.7,35,4.9L35,4.9z M27.4,15.8
	c-0.1,0-0.1-0.1-0.1-0.1c-0.1-0.2-0.2,0.2,1.7-6l3,1L31,14c-0.1,0.4-0.1,0.8,0.1,1.2c0.2,0.4,0.5,0.7,0.9,0.8l0.3,0.1l-4.7,4.4
	l0.9-2.7C28.7,16.9,28.3,16.1,27.4,15.8L27.4,15.8z"/>
<path class="st0" d="M10.9,22.2c1.6,0,2.8-1.3,2.8-2.8c0-1.6-1.3-2.8-2.8-2.8c-1.6,0-2.8,1.3-2.8,2.8C8.1,20.9,9.3,22.2,10.9,22.2z
	 M10.9,17.8c0.9,0,1.6,0.7,1.6,1.6c0,0.9-0.7,1.6-1.6,1.6c-0.9,0-1.6-0.7-1.6-1.6C9.3,18.5,10,17.8,10.9,17.8z"/>
<path class="st0" d="M20.3,16.5c-1.6,0-2.8,1.3-2.8,2.8c0,1.6,1.3,2.8,2.8,2.8c1.6,0,2.8-1.3,2.8-2.8C23.2,17.8,21.9,16.5,20.3,16.5
	z M20.3,20.9c-0.9,0-1.6-0.7-1.6-1.6c0-0.9,0.7-1.6,1.6-1.6c0.9,0,1.6,0.7,1.6,1.6C21.9,20.2,21.2,20.9,20.3,20.9z"/>
<path class="st0" d="M10.5,30.8c3.3-1.5,7-1.5,10.2,0c0.4,0.2,1,0.2,1.3-0.1c0.4-0.3,0.6-0.8,0.5-1.3c-0.7-3.2-3.6-5.5-6.9-5.4
	c-3.3-0.1-6.2,2.2-6.9,5.4c-0.1,0.5,0.1,1,0.5,1.3C9.6,31,10.1,31.1,10.5,30.8z M11.5,26.9c3.2-3.1,8.8-1.5,9.7,2.8
	c-3.6-1.6-7.7-1.6-11.3,0C10.2,28.6,10.7,27.7,11.5,26.9z"/>
</svg>
