<?xml version="1.0" encoding="utf-8"?>
<!-- Generator: Adobe Illustrator 24.0.1, SVG Export Plug-In . SVG Version: 6.00 Build 0)  -->
<svg version="1.1" id="Слой_1" xmlns="http://www.w3.org/2000/svg" xmlns:xlink="http://www.w3.org/1999/xlink" x="0px" y="0px"
	 viewBox="0 0 35 35" style="enable-background:new 0 0 35 35;" xml:space="preserve">
<style type="text/css">
	.st0{fill:#EB4B6E;}
</style>
<path class="st0" d="M30.7,3.9c-2.2-2.2-5.2-3.5-8.3-3.5c-0.1,0-0.2,0-0.3,0v0c-3.2,0-6.3,1.3-8.5,3.5c-2.3,2.3-3.5,5.3-3.5,8.5
	c0,2.1,0.5,4.1,1.5,5.9L0.2,29.7l4.7,4.7L16.3,23c1.7,0.9,3.6,1.5,5.6,1.5c0.1,0,0.2,0,0.3,0v0h0c3.2,0,6.3-1.3,8.5-3.5
	c2.3-2.3,3.5-5.3,3.5-8.5C34.2,9.2,33,6.2,30.7,3.9L30.7,3.9z M30.9,17.5c-0.6,1.1-1.6,1.8-2.8,2.1c-1.2,0.3-2.4,0.2-3.4-0.4
	c-1.1-0.6-1.8-1.6-2.1-2.8c-0.2-0.6-0.2-1.3-0.1-1.9c0.8,0.7,1.7,1.3,2.8,1.5c1.7,0.5,3.4,0.2,5-0.7c0.8-0.5,1.4-1,1.9-1.7
	C32,15,31.6,16.3,30.9,17.5L30.9,17.5z M16.1,20.5c-0.4-0.3-0.8-0.6-1.1-1c-0.6-0.6-1.2-1.3-1.6-2.1l0,0c-0.6-1.1-0.8-2.3-0.5-3.4
	s1.1-2.2,2.1-2.8c1.1-0.6,2.3-0.8,3.4-0.5c0.6,0.2,1.2,0.5,1.7,0.9c-1,0.3-2,0.9-2.7,1.6c-1.2,1.2-1.9,2.9-1.9,4.6
	C15.6,18.9,15.8,19.8,16.1,20.5L16.1,20.5z M13.4,7.4c1.2-2.2,4-2.9,6.2-1.7c1.1,0.6,1.8,1.6,2.1,2.8c0.2,0.6,0.2,1.3,0.1,1.9
	c-0.8-0.7-1.7-1.3-2.8-1.5c-1.7-0.5-3.4-0.2-5,0.7c-0.8,0.4-1.4,1-1.9,1.7C12.3,9.9,12.7,8.6,13.4,7.4L13.4,7.4z M30.9,7.4L30.9,7.4
	c0.6,1.1,0.8,2.3,0.5,3.4C31,12,30.3,13,29.2,13.6s-2.3,0.8-3.4,0.5c-0.6-0.2-1.2-0.5-1.7-0.9c1-0.3,2-0.9,2.7-1.6
	c1.2-1.2,1.9-2.9,1.9-4.6c0-0.9-0.2-1.8-0.5-2.6c0.4,0.3,0.8,0.6,1.1,1C29.9,6,30.5,6.7,30.9,7.4L30.9,7.4z M22.3,2.4
	c2.4,0.1,4.4,2.1,4.4,4.5c0,1.2-0.5,2.4-1.3,3.2c-0.5,0.5-1,0.8-1.7,1.1C24,10.1,24,9,23.7,8c-0.5-1.7-1.5-3.1-3.1-4
	c-0.8-0.5-1.6-0.7-2.5-0.8c1.3-0.5,2.6-0.8,4-0.8C22.2,2.4,22.3,2.4,22.3,2.4L22.3,2.4z M4.9,31.6l-1.9-1.9l9.7-9.7
	c0.3,0.3,0.6,0.7,0.9,1c0.3,0.3,0.6,0.6,1,0.9L4.9,31.6z M22,22.5c-2.4-0.1-4.4-2.1-4.4-4.5c0-1.2,0.5-2.4,1.3-3.2
	c0.5-0.5,1-0.8,1.7-1.1c-0.2,1-0.2,2.1,0.1,3.2c0.5,1.7,1.5,3.1,3.1,4c0.8,0.4,1.6,0.7,2.5,0.8c-1.3,0.5-2.6,0.8-4,0.8
	C22.1,22.5,22,22.5,22,22.5z"/>
</svg>
