<?xml version="1.0" encoding="utf-8"?>
<!-- Generator: Adobe Illustrator 24.0.1, SVG Export Plug-In . SVG Version: 6.00 Build 0)  -->
<svg version="1.1" id="Слой_1" xmlns="http://www.w3.org/2000/svg" xmlns:xlink="http://www.w3.org/1999/xlink" x="0px" y="0px"
	 viewBox="0 0 21 19" style="enable-background:new 0 0 21 19;" xml:space="preserve">
<style type="text/css">
	.st0{fill:#98879E;}
</style>
<path class="st0" d="M16.4,0.1H9.9c-0.4,0-0.8,0.2-1.1,0.5L0.5,9c-0.6,0.6-0.6,1.6,0,2.2l6.4,6.4c0.6,0.6,1.6,0.6,2.2,0l8.4-8.4
	c0.3-0.3,0.5-0.7,0.5-1.1V1.7C17.9,0.8,17.2,0.1,16.4,0.1z M13.7,5.5c-0.6,0-1.2-0.5-1.2-1.2c0-0.6,0.5-1.2,1.2-1.2
	c0.6,0,1.2,0.5,1.2,1.2C14.8,5,14.3,5.5,13.7,5.5z"/>
<path class="st0" d="M19.5,1.7l0,7.2c0,0.4-0.1,0.7-0.4,0.9l-8.5,8.5l0.1,0.1c0.6,0.6,1.6,0.6,2.2,0l7.7-7.7
	c0.3-0.3,0.5-0.7,0.5-1.1V3.2C21,2.3,20.3,1.7,19.5,1.7z"/>
</svg>
