<?xml version="1.0" encoding="utf-8"?>
<!-- Generator: Adobe Illustrator 24.0.1, SVG Export Plug-In . SVG Version: 6.00 Build 0)  -->
<svg version="1.1" id="Слой_1" xmlns="http://www.w3.org/2000/svg" xmlns:xlink="http://www.w3.org/1999/xlink" x="0px" y="0px"
	 viewBox="0 0 30 33" style="enable-background:new 0 0 30 33;" xml:space="preserve">
<style type="text/css">
	.st0{fill:#FF2347;}
</style>
<path class="st0" d="M17.1,13.6h-3.8v15.5L10,32.3h10.4l-3.3-3.2V13.6z"/>
<path class="st0" d="M15.2,6.1c-0.5,0-1,0.4-1,0.9s0.4,0.9,1,0.9s1-0.4,1-0.9S15.8,6.1,15.2,6.1z"/>
<path class="st0" d="M7.5,9.9c-0.5,0-1,0.4-1,0.9c0,0.5,0.4,0.9,1,0.9c0.5,0,1-0.4,1-0.9C8.5,10.3,8.1,9.9,7.5,9.9z"/>
<path class="st0" d="M22.9,15.4c-0.5,0-1,0.4-1,0.9c0,0.5,0.4,0.9,1,0.9c0.5,0,1-0.4,1-0.9C23.9,15.9,23.4,15.4,22.9,15.4z"/>
<path class="st0" d="M22.9,4.3c-0.5,0-1,0.1-1.5,0.2c-1.1-2.3-3.5-4-6.1-4c-2.7,0-5.1,1.6-6.1,4c-0.5-0.1-1-0.2-1.5-0.2
	c-3.7,0-6.7,2.9-6.7,6.5c0,1,0.2,1.9,0.7,2.8c-0.4,0.9-0.7,1.8-0.7,2.8c0,3.6,3,6.5,6.7,6.5c0.8,0,1.5-0.1,2.3-0.4
	c0.4,0.5,1,0.9,1.5,1.3v-4.2L8.8,17l1.4-1.3l1.2,1.2v-5.2h7.8l1-1.4l1.6,1l-2.7,4v8.5c0.6-0.3,1.1-0.8,1.5-1.3
	c0.7,0.3,1.5,0.4,2.3,0.4c3.7,0,6.7-2.9,6.7-6.5c0-1-0.2-1.9-0.7-2.8c0.4-0.9,0.7-1.8,0.7-2.8C29.6,7.2,26.6,4.3,22.9,4.3L22.9,4.3z
	 M6.6,17.3H4.7v-1.9h1.9V17.3z M7.5,13.6c-1.6,0-2.9-1.3-2.9-2.8C4.7,9.2,6,8,7.5,8s2.9,1.3,2.9,2.8C10.4,12.3,9.1,13.6,7.5,13.6z
	 M15.2,9.9c-1.6,0-2.9-1.3-2.9-2.8s1.3-2.8,2.9-2.8c1.6,0,2.9,1.3,2.9,2.8S16.8,9.9,15.2,9.9z M22,8h1.9v1.9H22V8z M22.9,19.2
	c-1.6,0-2.9-1.3-2.9-2.8c0-1.5,1.3-2.8,2.9-2.8c1.6,0,2.9,1.3,2.9,2.8C25.8,17.9,24.5,19.2,22.9,19.2z"/>
</svg>
