<?xml version="1.0" encoding="utf-8"?>
<!-- Generator: Adobe Illustrator 24.0.1, SVG Export Plug-In . SVG Version: 6.00 Build 0)  -->
<svg version="1.1" id="Слой_1" xmlns="http://www.w3.org/2000/svg" xmlns:xlink="http://www.w3.org/1999/xlink" x="0px" y="0px"
	 viewBox="0 0 61 40" style="enable-background:new 0 0 61 40;" xml:space="preserve">
<style type="text/css">
	.st0{fill:#CD66D1;}
</style>
<path class="st0" d="M60.6,17.1c-1.4-0.6-3.5-3.3-5.7-6.1C51,5.9,46.4,0,41.6,0c-6.4,0-9.9,3.9-11.1,5.6c-1.4-1.5-5.1-5.1-10.3-5.1
	c-4.1,0-9.1,5.9-13.5,11c-2.5,3-4.9,5.8-6.2,6.2C0.2,17.9,0,18.1,0,18.4c0,0.3,0.1,0.5,0.4,0.6c2.2,1,4.4,3.8,6.9,6.9
	c3.6,4.4,7.6,9.5,13,11.5c3.3,1.3,6.8,1.9,10.8,1.9c3.8,0,7.5-0.6,10.3-1.1c4.8-0.9,11.9-10.4,16.2-16.1c1.4-1.8,2.8-3.7,3.1-3.9
	c0.2-0.1,0.3-0.3,0.3-0.6C61,17.4,60.8,17.2,60.6,17.1z M54,19c-2.8,1.9-9.9,5.7-21.3,6.2c-11.8,0.5-20.5-3.6-24.2-5.8
	c2.5-0.6,4.7-1.8,6.6-2.9c2.2-1.2,4.1-2.3,6.1-2.3c2.4,0,4.8,0.8,6.8,1.4c1.6,0.5,2.8,0.9,3.7,0.8c0.8-0.1,1.9-0.4,3.1-0.7
	c1.9-0.6,4.3-1.3,6.5-1.3c1.6,0,3.7,1,6,2C49.5,17.5,51.7,18.6,54,19z"/>
</svg>
