<?xml version="1.0" encoding="utf-8"?>
<!-- Generator: Adobe Illustrator 23.0.2, SVG Export Plug-In . SVG Version: 6.00 Build 0)  -->
<svg version="1.1" id="Слой_1" xmlns="http://www.w3.org/2000/svg" xmlns:xlink="http://www.w3.org/1999/xlink" x="0px" y="0px"
	 viewBox="0 0 16 13" style="enable-background:new 0 0 16 13;" xml:space="preserve">
<style type="text/css">
	.st0{fill:#313131;}
</style>
<path class="st0" d="M15.3,1.7c-0.6,0.2-1.1,0.4-1.8,0.5c0.6-0.4,1.1-1,1.3-1.7c-0.6,0.4-1.2,0.6-1.9,0.7c-0.6-0.6-1.4-1-2.2-1
	c-1.7,0-3.1,1.4-3.1,3.1c0,0.2,0,0.5,0.1,0.7C5.2,3.9,3,2.7,1.5,0.8C1.2,1.3,1,1.8,1,2.4c0,1.1,0.5,2,1.4,2.5c-0.5,0-1-0.2-1.4-0.4
	c0,0,0,0,0,0c0,1.5,1.1,2.7,2.5,3C3.2,7.6,3,7.7,2.7,7.7c-0.2,0-0.4,0-0.6-0.1c0.4,1.2,1.5,2.1,2.9,2.1c-1,0.8-2.4,1.3-3.8,1.3
	c-0.3,0-0.5,0-0.7,0c1.4,0.9,3,1.4,4.7,1.4c5.6,0,8.7-4.7,8.7-8.7c0-0.1,0-0.3,0-0.4C14.4,2.9,14.9,2.3,15.3,1.7z"/>
</svg>
