<?xml version="1.0" encoding="utf-8"?>
<!-- Generator: Adobe Illustrator 23.0.2, SVG Export Plug-In . SVG Version: 6.00 Build 0)  -->
<svg version="1.1" id="Layer_1" xmlns="http://www.w3.org/2000/svg" xmlns:xlink="http://www.w3.org/1999/xlink" x="0px" y="0px"
	 viewBox="0 0 492 492" style="enable-background:new 0 0 492 492;" xml:space="preserve">
<g>
	<g>
		<path d="M246.1,101.5c-7.2,0-14,2.8-19.1,7.8L7.9,328.5c-5.1,5.1-7.9,11.8-7.9,19c0,7.2,2.8,14,7.9,19L24,382.6
			c5.1,5.1,11.8,7.9,19,7.9s14-2.8,19-7.9l184.1-184L430,382.5c10.5,10.5,27.6,10.5,38.1,0l16-16.2c5.1-5.1,7.9-11.8,7.9-19
			s-2.8-14-7.9-19l-218.9-219C260.1,104.3,253.3,101.5,246.1,101.5z"/>
	</g>
</g>
</svg>
