<?xml version="1.0" encoding="utf-8"?>
<!-- Generator: Adobe Illustrator 24.0.1, SVG Export Plug-In . SVG Version: 6.00 Build 0)  -->
<svg version="1.1" id="Слой_1" xmlns="http://www.w3.org/2000/svg" xmlns:xlink="http://www.w3.org/1999/xlink" x="0px" y="0px"
	 viewBox="0 0 26 43" style="enable-background:new 0 0 26 43;" xml:space="preserve">
<style type="text/css">
	.st0{fill:#FFBC8A;}
</style>
<path class="st0" d="M25.5,17.3c0-1.4-0.6-2.6-1.5-3.6c0.2-0.8,0.3-1.7,0.3-2.6C24.3,5,19.3,0,13.2,0C7.1,0,2.1,5,2.1,11.1
	c0,0.9,0.1,1.7,0.3,2.6c-1,0.9-1.5,2.2-1.5,3.6c0,2.7,2.2,4.9,4.9,4.9c1.5,0,2.8-0.6,3.7-1.7c0.9,1,2.2,1.7,3.7,1.7
	c1.5,0,2.8-0.6,3.7-1.7c0.9,1,2.2,1.7,3.7,1.7C23.5,22.2,25.5,19.8,25.5,17.3z"/>
<path class="st0" d="M7.9,29.9l4.2,11.3c0.2,0.5,0.6,0.8,1.2,0.8s1-0.3,1.2-0.8l6.5-16.5c-2.5,0.8-3.6-0.2-4.2-0.6L7.9,29.9z"/>
<path class="st0" d="M13.2,24.8c-1.3,0-2.6-0.5-3.7-1.2c-1.1,0.6-2.3,1-3.6,1l2,5.3l8.8-5.8C16.2,24.2,14.5,24.8,13.2,24.8z"/>
</svg>
