<?xml version="1.0" encoding="utf-8"?>
<!-- Generator: Adobe Illustrator 24.0.1, SVG Export Plug-In . SVG Version: 6.00 Build 0)  -->
<svg version="1.1" id="Слой_1" xmlns="http://www.w3.org/2000/svg" xmlns:xlink="http://www.w3.org/1999/xlink" x="0px" y="0px"
	 viewBox="0 0 42 28" style="enable-background:new 0 0 42 28;" xml:space="preserve">
<path d="M9.1,15.6v6.6c0,0,6.3-2.6,11.9-2.6s11.9,2.6,11.9,2.6v-6.7c0,0-6-3.2-12-3.2C15,12.3,9.1,15.6,9.1,15.6z"/>
<path d="M39.6,14l2.4-1.3l-2.4-1.3v-0.6c0,0,0.7-3.4-3.1-1.6c-0.2,0.1-0.3,0.2-0.3,0.3L20.5,0.8L0,12.6l7.8,3.5V15
	c0,0,6.5-3.7,13.2-3.7c6.7,0,13.4,3.6,13.4,3.6v2l4.3-2.3c0,2.7,0,8.4,0,9.3h-1.4v3.3l1.9-1.3l2.1,1.3v-3.3h-1.5V14z M38.6,10.2
	c0,0.1,0,0.3,0,0.6l-1.2-0.7C37.8,9.8,38.6,9.4,38.6,10.2z M38.2,13.9c-0.6,0-1-0.4-1-1c0-0.6,0.5-1,1-1c0.6,0,1,0.4,1,1
	C39.2,13.4,38.7,13.9,38.2,13.9z"/>
</svg>
