<?xml version="1.0" encoding="utf-8"?>
<!-- Generator: Adobe Illustrator 24.0.1, SVG Export Plug-In . SVG Version: 6.00 Build 0)  -->
<svg version="1.1" id="Слой_1" xmlns="http://www.w3.org/2000/svg" xmlns:xlink="http://www.w3.org/1999/xlink" x="0px" y="0px"
	 viewBox="0 0 15 11" style="enable-background:new 0 0 15 11;" xml:space="preserve">
<style type="text/css">
	.st0{fill:#AEAEAE;}
</style>
<path class="st0" d="M7.5,3.1c-1.1,0-2,0.9-2,2c0,1.1,0.9,2,2,2c1.1,0,2-0.9,2-2C9.5,4,8.6,3.1,7.5,3.1z"/>
<path class="st0" d="M7.5,0C4.1,0,1.2,2.1,0,5.1c1.2,3,4.1,5.1,7.5,5.1c3.4,0,6.3-2.1,7.5-5.1C13.8,2.1,10.9,0,7.5,0z M7.5,8.5
	C5.6,8.5,4.1,7,4.1,5.1c0-1.9,1.5-3.4,3.4-3.4s3.4,1.5,3.4,3.4C10.9,7,9.4,8.5,7.5,8.5z"/>
</svg>
