<?xml version="1.0" encoding="utf-8"?>
<!-- Generator: Adobe Illustrator 24.0.1, SVG Export Plug-In . SVG Version: 6.00 Build 0)  -->
<svg version="1.1" id="Слой_1" xmlns="http://www.w3.org/2000/svg" xmlns:xlink="http://www.w3.org/1999/xlink" x="0px" y="0px"
	 viewBox="0 0 43 30" style="enable-background:new 0 0 43 30;" xml:space="preserve">
<style type="text/css">
	.st0{fill:#62052D;}
</style>
<path class="st0" d="M41.9,23.6C41.9,23.6,41.9,23.6,41.9,23.6c-1.2-1.1-2.6-2-4-2.6c2.8-2.8,3.9-6.1,3.9-6.7c0-0.5-0.4-1-0.9-1.1
	c-2-0.5-4.1-0.6-6.1-0.4c0.1-0.3,0.1-0.7,0.2-1c0.3-2.1,0.2-4.3-0.5-6.4c-0.2-0.6-0.9-0.9-1.5-0.8c-2.3,0.6-4.5,1.5-6.4,2.9
	c-1.3-3.1-3.2-5.2-4.4-6.2c-0.2-0.2-0.5-0.3-0.9-0.3c-0.3,0-0.6,0.1-0.9,0.3c-1.2,1-3.1,3.1-4.4,6.2c-1.9-1.3-4.1-2.3-6.4-2.9
	C8.9,4.4,8.3,4.8,8.1,5.4c-0.4,1.5-1,4.1-0.3,7.4c-2.1-0.2-4.1-0.1-6.1,0.4c-0.5,0.1-0.9,0.6-0.9,1.1c0,0.4,1,3.7,3.9,6.7
	c-1.5,0.7-2.8,1.5-4,2.6c-0.2,0.2-0.4,0.5-0.4,0.8c0,0.3,0.1,0.6,0.4,0.8c2.9,2.6,6.7,4,10.8,4c3.7,0,7.1-1.2,9.9-3.3
	c2.8,2.1,6.2,3.3,9.9,3.3c4.1,0,7.9-1.4,10.7-4c0.2-0.2,0.4-0.5,0.4-0.8C42.2,24.1,42.1,23.8,41.9,23.6L41.9,23.6z M33.9,15.1
	c1.6-0.3,3.3-0.3,5,0c-1.2,2.9-3.4,5.3-6.4,6.9c-2,1.1-4.2,1.6-6.5,1.7c3.6-1.9,5.6-4.5,6.5-5.9C33.1,17,33.6,16.1,33.9,15.1
	L33.9,15.1z M3.5,15.1c1.6-0.3,3.3-0.3,5,0c0.4,0.9,0.8,1.8,1.4,2.7c0.9,1.5,2.9,4,6.5,5.9c-2.3-0.1-4.5-0.7-6.5-1.7
	C6.9,20.4,4.7,18,3.5,15.1L3.5,15.1z M11.3,27c-3,0-5.8-0.9-8.1-2.6c1-0.7,2.1-1.3,3.3-1.8c0.7,0.5,1.4,0.9,2.1,1.3
	c1.4,0.8,4.2,1.9,7.9,2C14.9,26.6,13.2,27,11.3,27L11.3,27z M12,16.7c-0.9-1.4-2.8-4.9-1.8-9.6c1.9,0.6,3.6,1.5,5.1,2.7
	c-0.3,1.1-0.4,2.3-0.4,3.4c0,1.8,0.3,5,2.5,8.5C14.4,20,12.8,17.9,12,16.7z M21.2,22.7c-3.6-3.8-3.9-7.9-3.9-9.5
	c0-1.7,0.3-5.8,3.9-9.5c3.6,3.8,3.9,7.9,3.9,9.5C25.1,14.8,24.8,19,21.2,22.7L21.2,22.7z M27.6,13.2c0-1.1-0.1-2.3-0.4-3.4
	c1.5-1.2,3.2-2.1,5.1-2.7c0.9,4.7-1,8.2-1.8,9.6c-0.8,1.2-2.4,3.3-5.4,5C27.3,18.2,27.6,15,27.6,13.2L27.6,13.2z M31.1,27
	c-1.8,0-3.6-0.3-5.2-1c3.7-0.1,6.4-1.3,7.9-2c0.7-0.4,1.4-0.8,2.1-1.3c1.2,0.4,2.3,1,3.3,1.8C36.9,26,34.1,27,31.1,27L31.1,27z"/>
</svg>
